<?xml version="1.0" standalone="no"?>
<!DOCTYPE svg PUBLIC "-//W3C//DTD SVG 20010904//EN"
 "http://www.w3.org/TR/2001/REC-SVG-20010904/DTD/svg10.dtd">
<svg version="1.0" xmlns="http://www.w3.org/2000/svg"
 width="856.000000pt" height="856.000000pt" viewBox="0 0 856.000000 856.000000"
 preserveAspectRatio="xMidYMid meet">
<metadata>
Created by potrace 1.11, written by Peter Selinger 2001-2013
</metadata>
<g transform="translate(0.000000,856.000000) scale(0.100000,-0.100000)"
fill="#000000" stroke="none">
<path d="M3324 7893 c-14 -32 -41 -92 -59 -133 -62 -142 -290 -656 -335 -755
-10 -22 -30 -68 -44 -103 -15 -34 -40 -93 -57 -130 -17 -37 -55 -121 -84 -187
-29 -66 -62 -140 -73 -165 -11 -25 -62 -139 -112 -255 -99 -225 -111 -253
-159 -358 -17 -37 -31 -70 -31 -72 0 -2 -18 -43 -40 -90 -22 -47 -40 -88 -40
-90 0 -3 -11 -28 -24 -57 -13 -29 -70 -156 -126 -283 -56 -126 -108 -243 -115
-260 -7 -16 -41 -93 -75 -170 -34 -77 -75 -168 -91 -203 -16 -35 -29 -65 -29
-67 0 -2 -18 -43 -40 -90 -22 -47 -40 -88 -40 -91 0 -2 -21 -50 -46 -106 -70
-158 -79 -177 -114 -258 -18 -41 -43 -97 -55 -125 -13 -27 -66 -147 -118 -265
-52 -118 -107 -242 -122 -275 -14 -33 -32 -73 -40 -90 -106 -241 -645 -1462
-685 -1550 -10 -22 -41 -94 -70 -160 -29 -66 -65 -147 -80 -180 -15 -33 -47
-105 -70 -160 -24 -55 -47 -104 -52 -109 -4 -6 -8 -17 -8 -27 0 -15 72 -16
956 -15 l956 1 34 89 c19 48 40 102 48 120 16 34 182 443 315 776 48 118 90
221 94 227 7 10 327 13 1551 13 l1542 0 23 -57 c27 -68 34 -86 54 -133 8 -19
27 -66 42 -105 15 -38 31 -79 36 -90 4 -11 58 -146 119 -300 61 -154 115 -289
120 -300 6 -11 29 -69 53 -130 l43 -110 992 -1 c546 -1 992 2 992 5 0 8 -34
87 -185 436 -65 149 -130 299 -145 335 -15 36 -94 218 -175 405 -81 187 -166
385 -190 440 -23 55 -95 222 -160 370 -197 455 -558 1289 -672 1555 -41 96
-86 200 -100 230 -14 30 -29 64 -33 75 -7 20 -229 530 -255 590 -8 17 -57 131
-110 255 -168 389 -258 598 -324 748 -23 50 -41 94 -41 97 0 2 -11 28 -24 57
-13 29 -60 137 -105 241 -45 103 -117 271 -162 375 -45 103 -91 210 -103 237
-12 28 -65 148 -116 268 l-94 217 -958 0 -958 0 -26 -57z m946 -1813 c0 -5 33
-94 74 -197 96 -244 229 -580 323 -818 41 -104 126 -318 188 -475 62 -157 150
-379 196 -495 46 -115 84 -212 84 -215 1 -3 6 -16 12 -30 28 -65 83 -210 83
-217 0 -6 -1873 -10 -1952 -4 -13 1 -3 33 54 174 39 94 78 192 88 217 9 25 82
207 162 405 81 198 212 524 293 725 81 201 194 482 252 625 58 143 111 272
117 288 10 26 26 37 26 17z"/>
</g>
</svg>
