<?xml version="1.0" encoding="UTF-8" standalone="no"?>
<!-- Created with Inkscape (http://www.inkscape.org/) -->

<svg
   xmlns:dc="http://purl.org/dc/elements/1.1/"
   xmlns:cc="http://creativecommons.org/ns#"
   xmlns:rdf="http://www.w3.org/1999/02/22-rdf-syntax-ns#"
   xmlns:svg="http://www.w3.org/2000/svg"
   xmlns="http://www.w3.org/2000/svg"
   xmlns:sodipodi="http://sodipodi.sourceforge.net/DTD/sodipodi-0.dtd"
   xmlns:inkscape="http://www.inkscape.org/namespaces/inkscape"
   version="1.1"
   id="svg2"
   xml:space="preserve"
   width="94.079002"
   height="14.936"
   viewBox="0 0 94.079003 14.936"
   sodipodi:docname="logo.svg"
   inkscape:version="0.92.1 r15371"><metadata
     id="metadata8"><rdf:RDF><cc:Work
         rdf:about=""><dc:format>image/svg+xml</dc:format><dc:type
           rdf:resource="http://purl.org/dc/dcmitype/StillImage" /><dc:title></dc:title></cc:Work></rdf:RDF></metadata><defs
     id="defs6" /><sodipodi:namedview
     pagecolor="#ffffff"
     bordercolor="#666666"
     borderopacity="1"
     objecttolerance="10"
     gridtolerance="10"
     guidetolerance="10"
     inkscape:pageopacity="0"
     inkscape:pageshadow="2"
     inkscape:window-width="1280"
     inkscape:window-height="735"
     id="namedview4"
     showgrid="false"
     inkscape:zoom="10.781911"
     inkscape:cx="47.768827"
     inkscape:cy="4.6407511"
     inkscape:window-x="0"
     inkscape:window-y="0"
     inkscape:window-maximized="1"
     inkscape:current-layer="g10" /><g
     id="g10"
     inkscape:groupmode="layer"
     inkscape:label="logo"
     transform="matrix(1.3333333,0,0,-1.3333333,0,14.935999)"><g
       aria-label="ApuntsFME"
       transform="scale(1,-1)"
       style="font-variant:normal;font-weight:bold;font-size:11.9552002px;font-family:Montserrat;-inkscape-font-specification:Montserrat-Bold;writing-mode:lr-tb;fill:#000000;fill-opacity:1;fill-rule:nonzero;stroke:none"
       id="text18"><path
         d="M 6.3278501,-4.0745745 H 2.813675 L 2.2591125,-2.4867744 H 0 l 3.2281376,-8.7153876 h 2.6794125 l 3.2281375,8.7153876 H 6.8765751 Z M 3.3740751,-5.691562 h 2.3875375 l -1.19085,-3.4674751 z"
         style=""
         id="path3728" /><path
         d="M 12.276869,-3.4324495 V 5.9604645e-7 H 10.187044 V -9.0247746 h 2.089825 v 0.9573501 q 0.431975,-0.572075 0.95735,-0.8406 0.525375,-0.2743626 1.208362,-0.2743626 1.208363,0 1.984751,0.9631876 0.776387,0.95735 0.776387,2.4692625 0,1.5119125 -0.776387,2.4751 -0.776388,0.9573501 -1.984751,0.9573501 -0.682987,0 -1.208362,-0.268525 -0.525375,-0.2743626 -0.95735,-0.8464376 z m 1.389325,-4.2321875 q -0.671313,0 -1.033238,0.4961875 -0.356087,0.49035 -0.356087,1.4185125 0,0.9281625 0.356087,1.42435 0.361925,0.49035 1.033238,0.49035 0.671312,0 1.021562,-0.49035 0.356088,-0.49035 0.356088,-1.42435 0,-0.934 -0.356088,-1.42435 -0.35025,-0.49035 -1.021562,-0.49035 z"
         style=""
         id="path3730" /><path
         d="m 18.318262,-5.0319245 v -3.9928501 h 2.1015 v 0.6538001 q 0,0.5312125 -0.0058,1.3367875 -0.0058,0.7997375 -0.0058,1.0682625 0,0.7880625 0.04086,1.1383125 0.04086,0.3444125 0.1401,0.502025 0.128425,0.2043125 0.332737,0.315225 0.21015,0.1109125 0.478675,0.1109125 0.6538,0 1.0274,-0.502025 0.3736,-0.502025 0.3736,-1.3951625 v -3.2281376 h 2.089825 v 6.5380002 h -2.089825 v -0.9456751 q -0.472837,0.572075 -1.00405,0.8464376 -0.525375,0.268525 -1.161662,0.268525 -1.132475,0 -1.7279,-0.6946626 -0.589588,-0.6946625 -0.589588,-2.019775 z"
         style=""
         id="path3732" /><path
         d="m 32.899591,-6.4679495 v 3.9811751 h -2.1015 V -3.134737 -5.5339495 q 0,-0.8464375 -0.04086,-1.1675 -0.03503,-0.3210625 -0.128425,-0.4728375 -0.122587,-0.2043125 -0.332737,-0.315225 -0.21015,-0.11675 -0.478675,-0.11675 -0.6538,0 -1.0274,0.5078625 -0.3736,0.502025 -0.3736,1.3951625 v 3.2164626 h -2.089825 v -6.5380002 h 2.089825 v 0.9573501 q 0.472837,-0.572075 1.00405,-0.8406 0.531212,-0.2743626 1.173337,-0.2743626 1.132475,0 1.716225,0.6946626 0.589588,0.6946625 0.589588,2.019775 z"
         style=""
         id="path3734" /><path
         d="m 36.66683,-10.8811 v 1.8563254 h 2.154038 v 1.4944001 H 36.66683 v 2.7728125 q 0,0.455325 0.180963,0.618775 0.180962,0.1576125 0.718012,0.1576125 h 1.0741 v 1.4944001 h -1.792112 q -1.23755,0 -1.757088,-0.5137001 -0.5137,-0.5195375 -0.5137,-1.7570875 V -7.5303745 H 33.53793 v -1.4944001 h 1.039075 V -10.8811 Z"
         style=""
         id="path3736" /><path
         d="m 44.716603,-8.820462 v 1.5878 q -0.671313,-0.2802 -1.295925,-0.4203 -0.624613,-0.1401 -1.179175,-0.1401 -0.595425,0 -0.8873,0.151775 -0.286038,0.1459375 -0.286038,0.455325 0,0.2510125 0.215988,0.385275 0.221825,0.1342625 0.788062,0.198475 l 0.367763,0.052537 q 1.605312,0.2043125 2.159875,0.6713125 0.554562,0.467 0.554562,1.4652125 0,1.0449125 -0.77055,1.5702875 -0.77055,0.5253751 -2.299975,0.5253751 -0.647962,0 -1.342625,-0.105075 -0.688825,-0.099238 -1.418512,-0.30355 V -4.313912 q 0.624612,0.30355 1.278412,0.455325 0.659638,0.151775 1.336788,0.151775 0.612937,0 0.922325,-0.1692875 0.309387,-0.1692875 0.309387,-0.502025 0,-0.2802 -0.215987,-0.4144625 -0.21015,-0.1401 -0.846438,-0.2159875 l -0.367762,-0.0467 q -1.395163,-0.175125 -1.955563,-0.6479625 -0.5604,-0.4728375 -0.5604,-1.436025 0,-1.039075 0.712175,-1.5411 0.712175,-0.5020251 2.183225,-0.5020251 0.577913,0 1.2142,0.087562 0.636288,0.087563 1.383488,0.2743626 z"
         style=""
         id="path3738" /><path
         d="m 45.88303,-11.202162 h 6.065162 v 1.6987124 h -3.817725 v 1.6228251 h 3.590063 v 1.6987125 h -3.590063 v 3.6951376 H 45.88303 Z"
         style=""
         id="path3740" /><path
         d="m 53.139835,-11.202162 h 2.860375 l 1.98475,4.6641625 1.996425,-4.6641625 h 2.854538 v 8.7153876 h -2.12485 v -6.3745501 l -2.0081,4.6991875 h -1.42435 l -2.0081,-4.6991875 v 6.3745501 h -2.130688 z"
         style=""
         id="path3742" /><path
         d="m 64.365768,-11.202162 h 6.065163 v 1.6987124 h -3.817725 v 1.6228251 h 3.590062 v 1.6987125 h -3.590062 v 1.996425 h 3.94615 v 1.6987126 h -6.193588 z"
         style=""
         id="path3744" /></g></g></svg>