<?xml version="1.0" encoding="UTF-8" standalone="no"?>
<!-- Created with Inkscape (http://www.inkscape.org/) -->

<svg
   xmlns:dc="http://purl.org/dc/elements/1.1/"
   xmlns:cc="http://creativecommons.org/ns#"
   xmlns:rdf="http://www.w3.org/1999/02/22-rdf-syntax-ns#"
   xmlns:svg="http://www.w3.org/2000/svg"
   xmlns="http://www.w3.org/2000/svg"
   xmlns:sodipodi="http://sodipodi.sourceforge.net/DTD/sodipodi-0.dtd"
   xmlns:inkscape="http://www.inkscape.org/namespaces/inkscape"
   version="1.1"
   id="svg2"
   xml:space="preserve"
   width="80.496002"
   height="14.936"
   viewBox="0 0 80.496003 14.936"
   sodipodi:docname="puntsFME.svg"
   inkscape:version="0.92.1 r15371"><metadata
     id="metadata8"><rdf:RDF><cc:Work
         rdf:about=""><dc:format>image/svg+xml</dc:format><dc:type
           rdf:resource="http://purl.org/dc/dcmitype/StillImage" /><dc:title></dc:title></cc:Work></rdf:RDF></metadata><defs
     id="defs6" /><sodipodi:namedview
     pagecolor="#ffffff"
     bordercolor="#666666"
     borderopacity="1"
     objecttolerance="10"
     gridtolerance="10"
     guidetolerance="10"
     inkscape:pageopacity="0"
     inkscape:pageshadow="2"
     inkscape:window-width="1280"
     inkscape:window-height="735"
     id="namedview4"
     showgrid="false"
     inkscape:zoom="10.781911"
     inkscape:cx="47.768827"
     inkscape:cy="4.6407511"
     inkscape:window-x="0"
     inkscape:window-y="0"
     inkscape:window-maximized="1"
     inkscape:current-layer="g10" /><g
     id="g10"
     inkscape:groupmode="layer"
     inkscape:label="logo"
     transform="matrix(1.3333333,0,0,-1.3333333,0,14.935999)"><g
       aria-label="ApuntsFME"
       transform="matrix(1,0,0,-1,-10.245419,2.4867743)"
       style="font-variant:normal;font-weight:bold;font-size:11.9552002px;font-family:Montserrat;-inkscape-font-specification:Montserrat-Bold;writing-mode:lr-tb;fill:#000000;fill-opacity:1;fill-rule:nonzero;stroke:none"
       id="text18"><path
         d="M 12.335244,-0.94567502 V 2.486775 h -2.089825 v -9.0247751 h 2.089825 v 0.95735 q 0.431975,-0.572075 0.95735,-0.8406 0.525375,-0.2743625 1.208363,-0.2743625 1.208362,0 1.98475,0.9631875 0.776387,0.95735 0.776387,2.4692625 0,1.5119126 -0.776387,2.47510009 -0.776388,0.95735001 -1.98475,0.95735001 -0.682988,0 -1.208363,-0.268525 -0.525375,-0.27436251 -0.95735,-0.84643752 z m 1.389325,-4.23218758 q -0.671312,0 -1.033237,0.4961875 -0.356088,0.49035 -0.356088,1.4185125 0,0.9281626 0.356088,1.4243501 0.361925,0.49035 1.033237,0.49035 0.671313,0 1.021563,-0.49035 0.356087,-0.49035 0.356087,-1.4243501 0,-0.934 -0.356087,-1.42435 -0.35025,-0.49035 -1.021563,-0.49035 z"
         id="path3787"
         inkscape:connector-curvature="0" /><path
         d="m 18.376637,-2.54515 v -3.9928501 h 2.1015 v 0.6538 q 0,0.5312125 -0.0058,1.3367875 -0.0058,0.7997375 -0.0058,1.0682625 0,0.7880626 0.04086,1.1383126 0.04086,0.3444125 0.1401,0.502025 0.128425,0.2043125 0.332738,0.315225 0.21015,0.1109125 0.478675,0.1109125 0.6538,0 1.0274,-0.502025 0.3736,-0.502025 0.3736,-1.3951626 v -3.2281375 h 2.089825 V 0 H 22.85991 v -0.94567502 q -0.472838,0.57207501 -1.00405,0.84643752 -0.525375,0.268525 -1.161663,0.268525 -1.132475,0 -1.7279,-0.69466251 -0.58966,-0.69466249 -0.58966,-2.01977499 z"
         id="path3789"
         inkscape:connector-curvature="0" /><path
         d="M 32.957965,-3.9811751 V 0 h -2.1015 V -0.64796251 -3.047175 q 0,-0.8464376 -0.04086,-1.1675001 -0.03502,-0.3210625 -0.128425,-0.4728375 -0.122587,-0.2043125 -0.332737,-0.315225 -0.21015,-0.11675 -0.478675,-0.11675 -0.6538,0 -1.0274,0.5078625 -0.3736,0.502025 -0.3736,1.3951625 V 0 H 26.38494 v -6.5380001 h 2.089825 v 0.95735 q 0.472837,-0.572075 1.00405,-0.8406 0.531212,-0.2743625 1.173337,-0.2743625 1.132475,0 1.716226,0.6946625 0.589587,0.6946625 0.589587,2.019775 z"
         id="path3791"
         inkscape:connector-curvature="0" /><path
         d="m 36.725207,-8.3943251 v 1.856325 h 2.154037 v 1.4944 h -2.154037 v 2.7728126 q 0,0.455325 0.180962,0.618775 0.180963,0.1576125 0.718013,0.1576125 h 1.0741 V 0 h -1.792113 q -1.23755,0 -1.757087,-0.51370001 -0.5137,-0.51953749 -0.5137,-1.75708749 v -2.7728126 h -1.039075 v -1.4944 h 1.039075 v -1.856325 z"
         id="path3793"
         inkscape:connector-curvature="0" /><path
         d="m 44.774979,-6.3336876 v 1.5878 q -0.671312,-0.2802 -1.295925,-0.4203 -0.624612,-0.1401 -1.179175,-0.1401 -0.595425,0 -0.8873,0.151775 -0.286038,0.1459375 -0.286038,0.455325 0,0.2510125 0.215988,0.385275 0.221825,0.1342625 0.788063,0.198475 l 0.367762,0.052537 q 1.605313,0.2043125 2.159875,0.6713125 0.554563,0.4670001 0.554563,1.4652126 0,1.04491249 -0.77055,1.57028749 -0.77055,0.52537501 -2.299975,0.52537501 -0.647963,0 -1.342626,-0.105075 -0.688825,-0.0992375 -1.418512,-0.30355 v -1.5878 q 0.624612,0.30355 1.278412,0.455325 0.659638,0.151775 1.336788,0.151775 0.612938,0 0.922325,-0.1692875 0.309388,-0.1692875 0.309388,-0.502025 0,-0.2802 -0.215988,-0.4144625 -0.21015,-0.1401 -0.846437,-0.2159875 l -0.367763,-0.0467 q -1.395163,-0.175125 -1.955563,-0.6479626 -0.5604,-0.4728375 -0.5604,-1.436025 0,-1.039075 0.712175,-1.5411 0.712175,-0.502025 2.183226,-0.502025 0.577912,0 1.2142,0.087562 0.636287,0.087562 1.383487,0.2743625 z"
         id="path3795"
         inkscape:connector-curvature="0" /><path
         d="m 45.941406,-8.7153876 h 6.065163 v 1.6987125 h -3.817725 v 1.622825 h 3.590062 v 1.6987125 H 48.188844 V 0 h -2.247438 z"
         id="path3797"
         inkscape:connector-curvature="0" /><path
         d="m 53.198211,-8.7153876 h 2.860375 l 1.984751,4.6641625 1.996425,-4.6641625 h 2.854537 V 0 h -2.12485 v -6.3745501 l -2.0081,4.6991876 h -1.42435 l -2.0081,-4.6991876 V 0 h -2.130688 z"
         id="path3799"
         inkscape:connector-curvature="0" /><path
         d="m 64.424145,-8.7153876 h 6.065162 v 1.6987125 h -3.817725 v 1.622825 h 3.590063 v 1.6987125 h -3.590063 v 1.9964251 h 3.94615 V 0 h -6.193587 z"
         id="path3801"
         inkscape:connector-curvature="0" /></g></g></svg>