<?xml version="1.0" encoding="UTF-8" standalone="no"?>
<!-- Created with Inkscape (http://www.inkscape.org/) -->

<svg
   xmlns:dc="http://purl.org/dc/elements/1.1/"
   xmlns:cc="http://creativecommons.org/ns#"
   xmlns:rdf="http://www.w3.org/1999/02/22-rdf-syntax-ns#"
   xmlns:svg="http://www.w3.org/2000/svg"
   xmlns="http://www.w3.org/2000/svg"
   xmlns:sodipodi="http://sodipodi.sourceforge.net/DTD/sodipodi-0.dtd"
   xmlns:inkscape="http://www.inkscape.org/namespaces/inkscape"
   width="400"
   height="300"
   viewBox="0 0 105.83333 79.374992"
   version="1.1"
   id="svg8"
   inkscape:version="0.92.1 r15371"
   sodipodi:docname="tar.svg">
  <defs
     id="defs2" />
  <sodipodi:namedview
     id="base"
     pagecolor="#ffffff"
     bordercolor="#666666"
     borderopacity="1.0"
     inkscape:pageopacity="0.0"
     inkscape:pageshadow="2"
     inkscape:zoom="1.4142136"
     inkscape:cx="176.90781"
     inkscape:cy="153.14437"
     inkscape:document-units="mm"
     inkscape:current-layer="layer1-3"
     showgrid="false"
     units="px"
     inkscape:window-width="1280"
     inkscape:window-height="735"
     inkscape:window-x="0"
     inkscape:window-y="0"
     inkscape:window-maximized="1" />
  <metadata
     id="metadata5">
    <rdf:RDF>
      <cc:Work
         rdf:about="">
        <dc:format>image/svg+xml</dc:format>
        <dc:type
           rdf:resource="http://purl.org/dc/dcmitype/StillImage" />
        <dc:title />
      </cc:Work>
    </rdf:RDF>
  </metadata>
  <g
     inkscape:label="Layer 1"
     inkscape:groupmode="layer"
     id="layer1"
     transform="translate(0,-217.62501)">
    <g
       id="g7987"
       transform="matrix(0.51200305,0,0,0.51200305,37.78472,237.85701)">
      <g
         id="g7919">
        <polygon
           id="polygon7893"
           points="51,58 51,3 41,3 41,9 18,9 18,3 7,3 7,58 "
           style="fill:#ffd42a;fill-opacity:1" />
        <rect
           id="rect7895"
           height="9"
           width="23"
           style="fill:#a1c8ec"
           x="18"
           y="0" />
        <polygon
           id="polygon7897"
           points="47,54 47,7 41,7 41,9 18,9 18,7 11,7 11,54 "
           style="fill:#ffffff" />
        <path
           id="path7899"
           d="M 37,5 H 22 C 21.447,5 21,4.553 21,4 21,3.447 21.447,3 22,3 h 15 c 0.553,0 1,0.447 1,1 0,0.553 -0.447,1 -1,1 z"
           style="fill:#3e465b"
           inkscape:connector-curvature="0" />
        <circle
           id="circle7901"
           r="3.5"
           cy="17.5"
           cx="19.5"
           style="fill:#c27c62;fill-opacity:1" />
        <circle
           id="circle7903"
           r="3.5"
           cy="30.5"
           cx="19.5"
           style="fill:#c27c62;fill-opacity:1" />
        <circle
           id="circle7905"
           r="3.5"
           cy="43.5"
           cx="19.5"
           style="fill:#c27c62;fill-opacity:1" />
        <path
           id="path7907"
           d="M 42,17 H 27 c -0.553,0 -1,-0.447 -1,-1 0,-0.553 0.447,-1 1,-1 h 15 c 0.553,0 1,0.447 1,1 0,0.553 -0.447,1 -1,1 z"
           style="fill:#839594"
           inkscape:connector-curvature="0" />
        <path
           id="path7909"
           d="M 42,21 H 27 c -0.553,0 -1,-0.447 -1,-1 0,-0.553 0.447,-1 1,-1 h 15 c 0.553,0 1,0.447 1,1 0,0.553 -0.447,1 -1,1 z"
           style="fill:#839594"
           inkscape:connector-curvature="0" />
        <path
           id="path7911"
           d="M 42,30 H 27 c -0.553,0 -1,-0.447 -1,-1 0,-0.553 0.447,-1 1,-1 h 15 c 0.553,0 1,0.447 1,1 0,0.553 -0.447,1 -1,1 z"
           style="fill:#839594"
           inkscape:connector-curvature="0" />
        <path
           id="path7913"
           d="M 42,34 H 27 c -0.553,0 -1,-0.447 -1,-1 0,-0.553 0.447,-1 1,-1 h 15 c 0.553,0 1,0.447 1,1 0,0.553 -0.447,1 -1,1 z"
           style="fill:#839594"
           inkscape:connector-curvature="0" />
        <path
           id="path7915"
           d="M 42,43 H 27 c -0.553,0 -1,-0.447 -1,-1 0,-0.553 0.447,-1 1,-1 h 15 c 0.553,0 1,0.447 1,1 0,0.553 -0.447,1 -1,1 z"
           style="fill:#839594"
           inkscape:connector-curvature="0" />
        <path
           id="path7917"
           d="M 42,47 H 27 c -0.553,0 -1,-0.447 -1,-1 0,-0.553 0.447,-1 1,-1 h 15 c 0.553,0 1,0.447 1,1 0,0.553 -0.447,1 -1,1 z"
           style="fill:#839594"
           inkscape:connector-curvature="0" />
      </g>
      <g
         id="g7921" />
      <g
         id="g7923" />
      <g
         id="g7925" />
      <g
         id="g7927" />
      <g
         id="g7929" />
      <g
         id="g7931" />
      <g
         id="g7933" />
      <g
         id="g7935" />
      <g
         id="g7937" />
      <g
         id="g7939" />
      <g
         id="g7941" />
      <g
         id="g7943" />
      <g
         id="g7945" />
      <g
         id="g7947" />
      <g
         id="g7949" />
    </g>
    <rect
       style="fill:#f3ec93;fill-opacity:1;stroke-width:0.2501511"
       id="rect4583"
       width="105.83334"
       height="79.375"
       x="0"
       y="217.62502" />
    <circle
       style="fill:#e0ae1b;fill-opacity:1;stroke-width:0.18708867"
       id="path3774"
       cx="52.916668"
       cy="257.3125"
       r="33.072918" />
    <g
       transform="translate(24.341676,-5.258789e-6)"
       id="layer1-3"
       inkscape:label="Layer 1"
       style="fill:none;stroke:#f3ec93;stroke-opacity:1">
      <text
         xml:space="preserve"
         style="font-style:normal;font-variant:normal;font-weight:bold;font-stretch:normal;font-size:10.58333302px;line-height:1.25;font-family:sans-serif;-inkscape-font-specification:'sans-serif Bold';letter-spacing:0px;word-spacing:0px;fill:none;fill-opacity:1;stroke:#f3ec93;stroke-width:0.40000001;stroke-miterlimit:4;stroke-dasharray:none;stroke-opacity:1"
         x="20.482635"
         y="280.83115"
         id="text4858"><tspan
           sodipodi:role="line"
           id="tspan4856"
           x="20.482635"
           y="280.83115"
           style="font-style:normal;font-variant:normal;font-weight:bold;font-stretch:normal;font-family:sans-serif;-inkscape-font-specification:'sans-serif Bold';fill:none;fill-opacity:1;stroke:#f3ec93;stroke-width:0.40000001;stroke-miterlimit:4;stroke-dasharray:none;stroke-opacity:1">CN</tspan></text>
    </g>
    <g
       id="g4775"
       transform="matrix(0.06439548,0,0,0.06439548,36.431579,235.17372)">
      <path
         id="path2-5"
         d="M 470.14,84.14 401.86,15.86 C 398.11,12.11 393.02,10 387.72,10 370.88,10 75.582,10 56,10 44.95,10 36,18.95 36,30 v 452 c 0,11.05 8.95,20 20,20 20.476,0 339.108,0 400,0 11.05,0 20,-8.95 20,-20 V 98.28 c 0,-5.3 -2.11,-10.39 -5.86,-14.14 z"
         style="fill:#424a60;fill-opacity:1"
         inkscape:connector-curvature="0" />
      <rect
         id="rect4"
         height="60"
         width="320"
         style="fill:#c7cac7;fill-opacity:1"
         y="442"
         x="96" />
      <g
         style="fill:#e7eced;fill-opacity:1"
         id="g10">
        <path
           id="path6-6"
           d="M 416,282 V 442 H 96 V 282 c 0,-11.05 8.95,-20 20,-20 h 280 c 11.05,0 20,8.95 20,20 z"
           style="fill:#e7eced;fill-opacity:1"
           inkscape:connector-curvature="0" />
        <path
           id="path8"
           d="m 376,10 v 120 c 0,11.05 -8.95,20 -20,20 H 156 c -11.05,0 -20,-8.95 -20,-20 V 10 c 12.642,0 228.035,0 240,0 z"
           style="fill:#e7eced;fill-opacity:1"
           inkscape:connector-curvature="0" />
      </g>
      <rect
         id="rect12"
         height="100"
         width="40"
         style="fill:#424a60;fill-opacity:1"
         y="10"
         x="276" />
      <path
         style="fill:#424a60;fill-opacity:1"
         id="path14-2"
         d="m 156,332 c 5.52,0 10,-4.48 10,-10 0,-5.52 -4.48,-10 -10,-10 -5.52,0 -10,4.48 -10,10 0,5.52 4.48,10 10,10 z"
         inkscape:connector-curvature="0" />
      <path
         style="fill:#424a60;fill-opacity:1"
         id="path18"
         d="M 356,312 H 196 c -5.522,0 -10,4.478 -10,10 0,5.522 4.478,10 10,10 h 160 c 5.522,0 10,-4.478 10,-10 0,-5.522 -4.478,-10 -10,-10 z"
         inkscape:connector-curvature="0" />
      <path
         style="fill:#424a60;fill-opacity:1"
         id="path20-9"
         d="M 356,372 H 156 c -5.522,0 -10,4.478 -10,10 0,5.522 4.478,10 10,10 h 200 c 5.522,0 10,-4.478 10,-10 0,-5.522 -4.478,-10 -10,-10 z"
         inkscape:connector-curvature="0" />
      <g
         id="g22" />
      <g
         id="g24" />
      <g
         id="g26" />
      <g
         id="g28" />
      <g
         id="g30" />
      <g
         id="g32" />
      <g
         id="g34" />
      <g
         id="g36" />
      <g
         id="g38" />
      <g
         id="g40" />
      <g
         id="g42" />
      <g
         id="g44" />
      <g
         id="g46" />
      <g
         id="g48" />
      <g
         id="g50" />
    </g>
  </g>
</svg>
