<?xml version="1.0" encoding="UTF-8" standalone="no"?>
<!-- Created with Inkscape (http://www.inkscape.org/) -->

<svg
   xmlns:dc="http://purl.org/dc/elements/1.1/"
   xmlns:cc="http://creativecommons.org/ns#"
   xmlns:rdf="http://www.w3.org/1999/02/22-rdf-syntax-ns#"
   xmlns:svg="http://www.w3.org/2000/svg"
   xmlns="http://www.w3.org/2000/svg"
   xmlns:sodipodi="http://sodipodi.sourceforge.net/DTD/sodipodi-0.dtd"
   xmlns:inkscape="http://www.inkscape.org/namespaces/inkscape"
   width="400"
   height="300"
   viewBox="0 0 105.83333 79.374992"
   version="1.1"
   id="svg8"
   inkscape:version="0.92.2 (5c3e80d, 2017-08-06)"
   sodipodi:docname="a_amg.svg">
  <defs
     id="defs2" />
  <sodipodi:namedview
     id="base"
     pagecolor="#ffffff"
     bordercolor="#666666"
     borderopacity="1.0"
     inkscape:pageopacity="0.0"
     inkscape:pageshadow="2"
     inkscape:zoom="2"
     inkscape:cx="128.58908"
     inkscape:cy="139.67875"
     inkscape:document-units="mm"
     inkscape:current-layer="layer1"
     showgrid="false"
     units="px"
     inkscape:window-width="1600"
     inkscape:window-height="836"
     inkscape:window-x="0"
     inkscape:window-y="27"
     inkscape:window-maximized="1"
     inkscape:measure-start="0,0"
     inkscape:measure-end="0,0" />
  <metadata
     id="metadata5">
    <rdf:RDF>
      <cc:Work
         rdf:about="">
        <dc:format>image/svg+xml</dc:format>
        <dc:type
           rdf:resource="http://purl.org/dc/dcmitype/StillImage" />
        <dc:title />
      </cc:Work>
    </rdf:RDF>
  </metadata>
  <g
     inkscape:label="Layer 1"
     inkscape:groupmode="layer"
     id="layer1"
     transform="translate(0,-217.62501)">
    <rect
       style="fill:#c2b4c2;fill-opacity:1;stroke:none;stroke-width:0.44635451;stroke-miterlimit:4;stroke-dasharray:none;stroke-opacity:1"
       id="rect1890"
       width="105.83334"
       height="79.375"
       x="-8.8817842e-16"
       y="217.625" />
    <rect
       style="fill:#fdffbe;fill-opacity:0;stroke-width:0.2501511"
       id="rect4583"
       width="105.83334"
       height="79.375"
       x="0"
       y="217.62502" />
    <circle
       style="fill:#b85b5d;fill-opacity:1;stroke-width:0.18708867"
       id="path3774"
       cx="52.916668"
       cy="257.3125"
       r="33.072918" />
    <g
       id="g6106"
       transform="matrix(0.06919637,0,0,0.08068456,35.756056,232.80499)">
      <g
         id="g5970">
        <g
           id="g5810"
           style="fill:#7bcb00;fill-opacity:1">
          <path
             id="path5808"
             d="M 472,116.07 H 24 c -13.234,0 -24,10.766 -24,24 v 264 c 0,13.234 10.766,24 24,24 h 448 c 13.234,0 24,-10.766 24,-24 v -264 c 0,-13.234 -10.766,-24 -24,-24 z"
             style="fill:#ab3f3e;fill-opacity:1"
             inkscape:connector-curvature="0" />
        </g>
        <g
           id="g5814">
          <rect
             id="rect5812"
             height="40"
             width="48"
             style="fill:#ae847e;fill-opacity:1"
             y="388.07001"
             x="224" />
        </g>
        <g
           id="g5818">
          <path
             id="path5816"
             d="m 464.219,364.07 v 24 c 0,4.418 -3.582,8 -8,8 h -416 c -4.418,0 -8,-3.582 -8,-8 v -24 l 47.781,-24 192,8 160,-8 z"
             style="fill:#e6be8a"
             inkscape:connector-curvature="0" />
        </g>
        <g
           id="g5822">
          <path
             id="path5820"
             d="m 43.443,375.116 c 65.739,-27.139 140.084,-25.487 204.776,4.954 v -288 C 181.394,60.625 104.27,59.9 36.97,89.894 c -2.896,1.291 -4.751,4.222 -4.751,7.393 v 270.515 c 0,5.779 5.883,9.519 11.224,7.314 z"
             style="fill:#ffebb7"
             inkscape:connector-curvature="0" />
        </g>
        <g
           id="g5826">
          <path
             id="path5824"
             d="m 248.219,380.07 c 64.692,-30.442 139.037,-32.093 204.776,-4.954 5.341,2.205 11.224,-1.535 11.224,-7.314 V 97.287 c 0,-3.171 -1.855,-6.102 -4.751,-7.393 C 392.168,59.9 315.043,60.625 248.219,92.07 Z"
             style="fill:#ffebb7;fill-opacity:1"
             inkscape:connector-curvature="0" />
        </g>
        <g
           id="g5832">
          <g
             id="g5830">
            <path
               id="path5828"
               d="m 280.219,327.824 c -3.406,0 -6.563,-2.188 -7.633,-5.605 -1.32,-4.215 1.023,-8.707 5.234,-10.031 8.094,-2.543 16.422,-4.715 24.758,-6.461 4.313,-0.906 8.563,1.855 9.469,6.188 0.906,4.324 -1.859,8.563 -6.188,9.469 -7.828,1.641 -15.648,3.684 -23.242,6.07 -0.797,0.249 -1.609,0.37 -2.398,0.37 z"
               style="fill:#b4b6bc;fill-opacity:1"
               inkscape:connector-curvature="0" />
          </g>
        </g>
        <g
           id="g5838">
          <g
             id="g5836">
            <path
               id="path5834"
               d="m 432.219,327.824 c -0.789,0 -1.602,-0.121 -2.398,-0.371 -30.187,-9.48 -61.477,-13.031 -92.969,-10.523 -4.469,0.32 -8.258,-2.941 -8.609,-7.344 -0.344,-4.406 2.938,-8.258 7.344,-8.609 33.609,-2.641 66.891,1.117 99.031,11.211 4.211,1.324 6.555,5.816 5.234,10.031 -1.071,3.418 -4.227,5.605 -7.633,5.605 z"
               style="fill:#b4b6bc;fill-opacity:1"
               inkscape:connector-curvature="0" />
          </g>
        </g>
        <g
           id="g5844">
          <g
             id="g5842">
            <path
               id="path5840"
               d="m 432.219,295.73 c -0.789,0 -1.602,-0.121 -2.398,-0.371 -48.156,-15.125 -99.047,-15.125 -147.203,0 -4.234,1.324 -8.719,-1.023 -10.031,-5.234 -1.32,-4.215 1.023,-8.707 5.234,-10.031 51.297,-16.109 105.5,-16.109 156.797,0 4.211,1.324 6.555,5.816 5.234,10.031 -1.071,3.418 -4.227,5.605 -7.633,5.605 z"
               style="fill:#b4b6bc;fill-opacity:1"
               inkscape:connector-curvature="0" />
          </g>
        </g>
        <g
           id="g5850">
          <g
             id="g5848">
            <path
               id="path5846"
               d="m 280.219,263.824 c -3.406,0 -6.563,-2.188 -7.633,-5.605 -1.32,-4.215 1.023,-8.707 5.234,-10.031 29.445,-9.242 60,-13.176 90.781,-11.73 4.406,0.211 7.82,3.957 7.609,8.371 -0.203,4.422 -3.891,7.797 -8.375,7.613 -28.883,-1.363 -57.578,2.332 -85.219,11.012 -0.796,0.249 -1.608,0.37 -2.397,0.37 z"
               style="fill:#b4b6bc;fill-opacity:1"
               inkscape:connector-curvature="0" />
          </g>
        </g>
        <g
           id="g5856">
          <g
             id="g5854">
            <path
               id="path5852"
               d="m 432.219,263.824 c -0.789,0 -1.602,-0.121 -2.398,-0.371 -10.109,-3.176 -20.539,-5.723 -31,-7.566 -4.352,-0.77 -7.258,-4.918 -6.484,-9.27 0.766,-4.348 4.922,-7.258 9.266,-6.488 11.141,1.965 22.242,4.676 33.016,8.059 4.211,1.324 6.555,5.816 5.234,10.031 -1.072,3.418 -4.228,5.605 -7.634,5.605 z"
               style="fill:#b4b6bc;fill-opacity:1"
               inkscape:connector-curvature="0" />
          </g>
        </g>
        <g
           id="g5862">
          <g
             id="g5860">
            <path
               id="path5858"
               d="m 432.219,231.73 c -0.789,0 -1.602,-0.121 -2.398,-0.371 -48.156,-15.125 -99.047,-15.125 -147.203,0 -4.234,1.316 -8.719,-1.027 -10.031,-5.234 -1.32,-4.215 1.023,-8.707 5.234,-10.031 51.297,-16.109 105.5,-16.109 156.797,0 4.211,1.324 6.555,5.816 5.234,10.031 -1.071,3.418 -4.227,5.605 -7.633,5.605 z"
               style="fill:#b4b6bc;fill-opacity:1"
               inkscape:connector-curvature="0" />
          </g>
        </g>
        <g
           id="g5868">
          <g
             id="g5866">
            <path
               id="path5864"
               d="m 280.219,199.731 c -3.406,0 -6.563,-2.188 -7.633,-5.605 -1.32,-4.215 1.023,-8.707 5.234,-10.031 16.094,-5.055 32.75,-8.562 49.523,-10.422 4.453,-0.535 8.352,2.684 8.836,7.066 0.484,4.391 -2.68,8.348 -7.07,8.832 -15.742,1.75 -31.391,5.043 -46.492,9.789 -0.797,0.249 -1.609,0.371 -2.398,0.371 z"
               style="fill:#b4b6bc;fill-opacity:1"
               inkscape:connector-curvature="0" />
          </g>
        </g>
        <g
           id="g5874">
          <g
             id="g5872">
            <path
               id="path5870"
               d="m 432.219,199.731 c -0.789,0 -1.602,-0.121 -2.398,-0.371 -22.586,-7.098 -46.039,-10.887 -69.719,-11.258 -4.422,-0.07 -7.945,-3.707 -7.875,-8.125 0.07,-4.414 3.93,-8.133 8.125,-7.875 25.219,0.398 50.211,4.434 74.266,11.992 4.211,1.324 6.555,5.816 5.234,10.031 -1.079,3.418 -4.227,5.606 -7.633,5.606 z"
               style="fill:#b4b6bc;fill-opacity:1"
               inkscape:connector-curvature="0" />
          </g>
        </g>
        <g
           id="g5880">
          <g
             id="g5878">
            <path
               id="path5876"
               d="m 280.219,167.824 c -3.406,0 -6.563,-2.188 -7.633,-5.605 -1.32,-4.215 1.023,-8.707 5.234,-10.031 34.859,-10.949 70.937,-14.465 107.281,-10.422 4.391,0.484 7.555,4.441 7.07,8.832 -0.484,4.387 -4.359,7.637 -8.836,7.066 -34.094,-3.781 -67.992,-0.496 -100.719,9.789 -0.796,0.25 -1.608,0.371 -2.397,0.371 z"
               style="fill:#b4b6bc;fill-opacity:1"
               inkscape:connector-curvature="0" />
          </g>
        </g>
        <g
           id="g5886">
          <g
             id="g5884">
            <path
               id="path5882"
               d="m 432.219,167.824 c -0.789,0 -1.602,-0.121 -2.398,-0.371 -5.078,-1.598 -10.289,-3.047 -15.5,-4.316 -4.289,-1.047 -6.922,-5.375 -5.875,-9.668 1.047,-4.293 5.344,-6.918 9.672,-5.879 5.539,1.352 11.086,2.898 16.5,4.598 4.211,1.324 6.555,5.816 5.234,10.031 -1.071,3.418 -4.227,5.605 -7.633,5.605 z"
               style="fill:#b4b6bc;fill-opacity:1"
               inkscape:connector-curvature="0" />
          </g>
        </g>
        <g
           id="g5892">
          <g
             id="g5890">
            <path
               id="path5888"
               d="m 280.219,135.731 c -3.406,0 -6.563,-2.191 -7.633,-5.609 -1.32,-4.219 1.023,-8.707 5.242,-10.027 5.5,-1.727 11.047,-3.27 16.492,-4.594 4.266,-1.051 8.617,1.59 9.664,5.883 1.047,4.293 -1.594,8.621 -5.883,9.664 -5.109,1.242 -10.32,2.691 -15.492,4.312 -0.797,0.249 -1.601,0.371 -2.39,0.371 z"
               style="fill:#b4b6bc;fill-opacity:1"
               inkscape:connector-curvature="0" />
          </g>
        </g>
        <g
           id="g5898">
          <g
             id="g5896">
            <path
               id="path5894"
               d="m 432.219,135.731 c -0.789,0 -1.602,-0.121 -2.398,-0.371 -32.734,-10.285 -66.617,-13.566 -100.719,-9.789 -4.422,0.539 -8.352,-2.684 -8.836,-7.066 -0.484,-4.391 2.68,-8.348 7.07,-8.832 36.328,-4.043 72.414,-0.527 107.281,10.422 4.211,1.324 6.555,5.816 5.234,10.031 -1.07,3.417 -4.226,5.605 -7.632,5.605 z"
               style="fill:#b4b6bc;fill-opacity:1"
               inkscape:connector-curvature="0" />
          </g>
        </g>
        <g
           id="g5904">
          <g
             id="g5902">
            <path
               id="path5900"
               d="m 64.219,327.824 c -3.406,0 -6.562,-2.188 -7.633,-5.605 -1.32,-4.215 1.023,-8.707 5.234,-10.031 8.094,-2.543 16.422,-4.715 24.758,-6.461 4.32,-0.906 8.563,1.855 9.469,6.188 0.906,4.324 -1.859,8.563 -6.188,9.469 -7.828,1.641 -15.648,3.684 -23.242,6.07 -0.797,0.249 -1.609,0.37 -2.398,0.37 z"
               style="fill:#b4b6bc"
               inkscape:connector-curvature="0" />
          </g>
        </g>
        <g
           id="g5910">
          <g
             id="g5908">
            <path
               id="path5906"
               d="m 216.219,327.824 c -0.789,0 -1.602,-0.121 -2.398,-0.371 -30.18,-9.48 -61.477,-13.031 -92.969,-10.523 -4.531,0.32 -8.258,-2.941 -8.609,-7.344 -0.344,-4.406 2.938,-8.258 7.344,-8.609 33.609,-2.641 66.883,1.117 99.031,11.211 4.211,1.324 6.555,5.816 5.234,10.031 -1.071,3.418 -4.227,5.605 -7.633,5.605 z"
               style="fill:#b4b6bc"
               inkscape:connector-curvature="0" />
          </g>
        </g>
        <g
           id="g5916">
          <g
             id="g5914">
            <path
               id="path5912"
               d="m 216.219,295.73 c -0.789,0 -1.602,-0.121 -2.398,-0.371 -48.156,-15.125 -99.047,-15.125 -147.203,0 -4.25,1.324 -8.719,-1.023 -10.031,-5.234 -1.32,-4.215 1.023,-8.707 5.234,-10.031 51.297,-16.109 105.5,-16.109 156.797,0 4.211,1.324 6.555,5.816 5.234,10.031 -1.071,3.418 -4.227,5.605 -7.633,5.605 z"
               style="fill:#b4b6bc"
               inkscape:connector-curvature="0" />
          </g>
        </g>
        <g
           id="g5922">
          <g
             id="g5920">
            <path
               id="path5918"
               d="m 64.219,263.824 c -3.406,0 -6.562,-2.188 -7.633,-5.605 -1.32,-4.215 1.023,-8.707 5.234,-10.031 29.445,-9.242 60.023,-13.176 90.781,-11.73 4.406,0.211 7.82,3.957 7.609,8.371 -0.211,4.422 -3.938,7.797 -8.375,7.613 -28.891,-1.363 -57.578,2.332 -85.219,11.012 -0.796,0.249 -1.608,0.37 -2.397,0.37 z"
               style="fill:#b4b6bc"
               inkscape:connector-curvature="0" />
          </g>
        </g>
        <g
           id="g5928">
          <g
             id="g5926">
            <path
               id="path5924"
               d="m 216.219,263.824 c -0.789,0 -1.602,-0.121 -2.398,-0.371 -10.109,-3.176 -20.539,-5.723 -31,-7.566 -4.352,-0.77 -7.258,-4.918 -6.484,-9.27 0.758,-4.348 4.93,-7.258 9.266,-6.488 11.141,1.965 22.242,4.676 33.016,8.059 4.211,1.324 6.555,5.816 5.234,10.031 -1.072,3.418 -4.228,5.605 -7.634,5.605 z"
               style="fill:#b4b6bc"
               inkscape:connector-curvature="0" />
          </g>
        </g>
        <g
           id="g5934">
          <g
             id="g5932">
            <path
               id="path5930"
               d="m 64.219,231.73 c -3.406,0 -6.562,-2.188 -7.633,-5.605 -1.32,-4.215 1.023,-8.707 5.234,-10.031 45.477,-14.277 94,-15.867 140.289,-4.594 4.297,1.047 6.93,5.375 5.883,9.668 -1.047,4.289 -5.398,6.902 -9.664,5.879 -43.469,-10.598 -89.016,-9.094 -131.711,4.313 -0.797,0.249 -1.609,0.37 -2.398,0.37 z"
               style="fill:#b4b6bc"
               inkscape:connector-curvature="0" />
          </g>
        </g>
        <g
           id="g5940">
          <g
             id="g5938">
            <path
               id="path5936"
               d="m 64.219,199.731 c -3.406,0 -6.562,-2.188 -7.633,-5.605 -1.32,-4.215 1.023,-8.707 5.234,-10.031 16.094,-5.055 32.75,-8.562 49.523,-10.422 4.414,-0.535 8.352,2.684 8.836,7.066 0.484,4.391 -2.68,8.348 -7.07,8.832 -15.742,1.75 -31.391,5.043 -46.492,9.789 -0.797,0.249 -1.609,0.371 -2.398,0.371 z"
               style="fill:#b4b6bc"
               inkscape:connector-curvature="0" />
          </g>
        </g>
        <g
           id="g5946">
          <g
             id="g5944">
            <path
               id="path5942"
               d="m 200.227,195.273 c -0.625,0 -1.266,-0.074 -1.898,-0.227 -17.734,-4.32 -35.984,-6.66 -54.227,-6.945 -4.422,-0.07 -7.945,-3.707 -7.875,-8.125 0.07,-4.414 3.523,-8.133 8.125,-7.875 19.437,0.309 38.867,2.797 57.758,7.398 4.297,1.047 6.93,5.375 5.883,9.668 -0.892,3.657 -4.165,6.106 -7.766,6.106 z"
               style="fill:#b4b6bc"
               inkscape:connector-curvature="0" />
          </g>
        </g>
        <g
           id="g5952">
          <g
             id="g5950">
            <path
               id="path5948"
               d="m 64.219,167.824 c -3.406,0 -6.562,-2.188 -7.633,-5.605 -1.32,-4.215 1.023,-8.707 5.234,-10.031 34.867,-10.949 70.945,-14.465 107.281,-10.422 4.391,0.484 7.555,4.441 7.07,8.832 -0.484,4.387 -4.391,7.637 -8.836,7.066 -34.094,-3.781 -67.992,-0.496 -100.719,9.789 -0.796,0.25 -1.608,0.371 -2.397,0.371 z"
               style="fill:#b4b6bc"
               inkscape:connector-curvature="0" />
          </g>
        </g>
        <g
           id="g5958">
          <g
             id="g5956">
            <path
               id="path5954"
               d="m 64.219,135.731 c -3.406,0 -6.562,-2.191 -7.633,-5.609 -1.32,-4.219 1.023,-8.707 5.242,-10.027 5.5,-1.727 11.047,-3.27 16.492,-4.594 4.258,-1.051 8.617,1.59 9.664,5.883 1.047,4.293 -1.594,8.621 -5.883,9.664 -5.109,1.242 -10.32,2.691 -15.492,4.312 -0.797,0.249 -1.601,0.371 -2.39,0.371 z"
               style="fill:#b4b6bc"
               inkscape:connector-curvature="0" />
          </g>
        </g>
        <g
           id="g5964">
          <g
             id="g5962">
            <path
               id="path5960"
               d="m 200.227,131.27 c -0.625,0 -1.266,-0.074 -1.898,-0.227 -27.961,-6.809 -56.633,-8.641 -85.227,-5.473 -4.391,0.539 -8.352,-2.676 -8.836,-7.066 -0.484,-4.391 2.68,-8.348 7.07,-8.832 30.445,-3.391 61,-1.422 90.773,5.824 4.297,1.047 6.93,5.375 5.883,9.668 -0.891,3.656 -4.164,6.106 -7.765,6.106 z"
               style="fill:#b4b6bc"
               inkscape:connector-curvature="0" />
          </g>
        </g>
        <g
           id="g5968" />
      </g>
      <g
         id="g5972" />
      <g
         id="g5974" />
      <g
         id="g5976" />
      <g
         id="g5978" />
      <g
         id="g5980" />
      <g
         id="g5982" />
      <g
         id="g5984" />
      <g
         id="g5986" />
      <g
         id="g5988" />
      <g
         id="g5990" />
      <g
         id="g5992" />
      <g
         id="g5994" />
      <g
         id="g5996" />
      <g
         id="g5998" />
      <g
         id="g6000" />
    </g>
    <g
       aria-label="AMG"
       transform="matrix(0.26458333,0,0,0.26458333,-0.57663426,216.56667)"
       style="font-style:normal;font-weight:normal;font-size:40px;line-height:1.25;font-family:sans-serif;letter-spacing:0px;word-spacing:0px;fill:#e14045;fill-opacity:1;stroke:#c2b4c2;stroke-width:1.51181102;stroke-miterlimit:4;stroke-dasharray:none;stroke-opacity:1"
       id="flowRoot4730">
      <path
         d="m 173.11719,237.57812 h -11.75782 l -1.85546,5.3125 h -7.5586 l 10.80078,-29.16015 h 8.96485 l 10.80078,29.16015 h -7.5586 z m -9.88282,-5.41015 h 7.98829 l -3.98438,-11.60156 z"
         style="font-style:normal;font-variant:normal;font-weight:bold;font-stretch:normal;font-size:40px;font-family:sans-serif;-inkscape-font-specification:'sans-serif Bold';fill:#b85b5d;fill-opacity:1;stroke:#c2b4c2;stroke-width:1.51181102;stroke-miterlimit:4;stroke-dasharray:none;stroke-opacity:1"
         id="path4908" />
      <path
         d="m 186.35937,213.73047 h 9.57032 l 6.64062,15.60547 6.67969,-15.60547 h 9.55078 v 29.16015 h -7.10937 V 221.5625 l -6.71875,15.72266 h -4.76563 l -6.71875,-15.72266 v 21.32812 h -7.12891 z"
         style="font-style:normal;font-variant:normal;font-weight:bold;font-stretch:normal;font-size:40px;font-family:sans-serif;-inkscape-font-specification:'sans-serif Bold';fill:#b85b5d;fill-opacity:1;stroke:#c2b4c2;stroke-width:1.51181102;stroke-miterlimit:4;stroke-dasharray:none;stroke-opacity:1"
         id="path4910" />
      <path
         d="m 252.41406,240.72266 q -2.8125,1.36718 -5.83984,2.05078 -3.02735,0.68359 -6.25,0.68359 -7.28516,0 -11.54297,-4.0625 -4.25781,-4.08203 -4.25781,-11.05469 0,-7.05078 4.33593,-11.09375 4.33594,-4.04297 11.875,-4.04297 2.91016,0 5.56641,0.54688 2.67578,0.54687 5.03906,1.62109 v 6.03516 q -2.4414,-1.38672 -4.86328,-2.07031 -2.40234,-0.6836 -4.82422,-0.6836 -4.49218,0 -6.93359,2.51953 -2.42188,2.5 -2.42188,7.16797 0,4.62891 2.34375,7.14844 2.34375,2.51953 6.66016,2.51953 1.17188,0 2.16797,-0.13672 1.01562,-0.15625 1.81641,-0.46875 v -5.66406 h -4.58985 v -5.03906 h 11.71875 z"
         style="font-style:normal;font-variant:normal;font-weight:bold;font-stretch:normal;font-size:40px;font-family:sans-serif;-inkscape-font-specification:'sans-serif Bold';fill:#b85b5d;fill-opacity:1;stroke:#c2b4c2;stroke-width:1.51181102;stroke-miterlimit:4;stroke-dasharray:none;stroke-opacity:1"
         id="path4912" />
    </g>
    <path
       style="display:inline;fill:none;fill-opacity:1;fill-rule:evenodd;stroke:#b4b6bc;stroke-width:0.1;stroke-linecap:butt;stroke-linejoin:miter;stroke-miterlimit:4;stroke-dasharray:none;stroke-opacity:1"
       d="M 52.93191,263.47077 V 240.23362"
       id="path4590"
       inkscape:connector-type="polyline"
       inkscape:connector-curvature="0" />
    <path
       transform="matrix(0.06919637,0,0,0.08068456,35.756056,232.80499)"
       id="path5966"
       d="m 200.219,216.064 c 0.001,3.194 3.561,5.1 6.219,3.328 L 224.219,207.538 242,219.392 c 2.658,1.772 6.219,-0.133 6.219,-3.328 V 92.734 c 0,-3.16 -1.843,-6.077 -4.731,-7.361 -12.457,-5.54 -25.259,-9.983 -38.262,-13.418 -2.537,-0.67 -5.03,1.292 -5.029,3.916 z"
       style="fill:#5d647f"
       inkscape:connector-curvature="0" />
  </g>
</svg>
