<?xml version="1.0" encoding="UTF-8" standalone="no"?>
<!-- Created with Inkscape (http://www.inkscape.org/) -->

<svg
   xmlns:dc="http://purl.org/dc/elements/1.1/"
   xmlns:cc="http://creativecommons.org/ns#"
   xmlns:rdf="http://www.w3.org/1999/02/22-rdf-syntax-ns#"
   xmlns:svg="http://www.w3.org/2000/svg"
   xmlns="http://www.w3.org/2000/svg"
   xmlns:xlink="http://www.w3.org/1999/xlink"
   xmlns:sodipodi="http://sodipodi.sourceforge.net/DTD/sodipodi-0.dtd"
   xmlns:inkscape="http://www.inkscape.org/namespaces/inkscape"
   width="400"
   height="300"
   viewBox="0 0 105.83333 79.374992"
   version="1.1"
   id="svg8"
   inkscape:version="0.92.1 r15371"
   sodipodi:docname="e_top.svg">
  <defs
     id="defs2">
    <linearGradient
       inkscape:collect="always"
       id="linearGradient6330">
      <stop
         style="stop-color:#d4ffd4;stop-opacity:1;"
         offset="0"
         id="stop6326" />
      <stop
         style="stop-color:#d4ffd4;stop-opacity:0;"
         offset="1"
         id="stop6328" />
    </linearGradient>
    <linearGradient
       inkscape:collect="always"
       xlink:href="#linearGradient6330"
       id="linearGradient6334"
       x1="151.18941"
       y1="228.33008"
       x2="241.43169"
       y2="228.33008"
       gradientUnits="userSpaceOnUse" />
  </defs>
  <sodipodi:namedview
     id="base"
     pagecolor="#ffffff"
     bordercolor="#666666"
     borderopacity="1.0"
     inkscape:pageopacity="0.0"
     inkscape:pageshadow="2"
     inkscape:zoom="4"
     inkscape:cx="181.66059"
     inkscape:cy="153.57768"
     inkscape:document-units="mm"
     inkscape:current-layer="layer1"
     showgrid="false"
     units="px"
     inkscape:window-width="2560"
     inkscape:window-height="1477"
     inkscape:window-x="0"
     inkscape:window-y="0"
     inkscape:window-maximized="1" />
  <metadata
     id="metadata5">
    <rdf:RDF>
      <cc:Work
         rdf:about="">
        <dc:format>image/svg+xml</dc:format>
        <dc:type
           rdf:resource="http://purl.org/dc/dcmitype/StillImage" />
        <dc:title></dc:title>
      </cc:Work>
    </rdf:RDF>
  </metadata>
  <g
     inkscape:label="Layer 1"
     inkscape:groupmode="layer"
     id="layer1"
     transform="translate(0,-217.62501)">
    <rect
       style="fill:#e6dcff;fill-opacity:1;stroke-width:0.2501511"
       id="rect4583"
       width="105.83334"
       height="79.375"
       x="0"
       y="217.62502" />
    <circle
       style="fill:#2aaa84;fill-opacity:1;stroke-width:0.18708867"
       id="path3774"
       cx="52.916668"
       cy="257.3125"
       r="33.072918" />
    <g
       aria-label="TOP"
       transform="matrix(0.26458333,0,0,0.26458333,0.97620532,216.56667)"
       style="font-style:normal;font-weight:normal;font-size:40px;line-height:1.25;font-family:sans-serif;letter-spacing:0px;word-spacing:0px;fill:none;fill-opacity:1;stroke:#e6dcff;stroke-width:1.51181102;stroke-miterlimit:4;stroke-dasharray:none;stroke-opacity:1"
       id="flowRoot4730">
      <path
         d="m 151.94531,213.73047 h 26.875 v 5.68359 h -9.66797 v 23.47656 h -7.51953 v -23.47656 h -9.6875 z"
         style="font-style:normal;font-variant:normal;font-weight:bold;font-stretch:normal;font-size:40px;font-family:sans-serif;-inkscape-font-specification:'sans-serif Bold';fill:none;fill-opacity:1;stroke:#e6dcff;stroke-width:1.51181102;stroke-miterlimit:4;stroke-dasharray:none;stroke-opacity:1"
         id="path4548" />
      <path
         d="m 196.00781,218.65234 q -3.4375,0 -5.33203,2.53907 -1.89453,2.53906 -1.89453,7.14843 0,4.58985 1.89453,7.12891 1.89453,2.53906 5.33203,2.53906 3.45703,0 5.35156,-2.53906 1.89454,-2.53906 1.89454,-7.12891 0,-4.60937 -1.89454,-7.14843 -1.89453,-2.53907 -5.35156,-2.53907 z m 0,-5.44922 q 7.03125,0 11.01563,4.02344 3.98437,4.02344 3.98437,11.11328 0,7.07032 -3.98437,11.09375 -3.98438,4.02344 -11.01563,4.02344 -7.01172,0 -11.01562,-4.02344 -3.98438,-4.02343 -3.98438,-11.09375 0,-7.08984 3.98438,-11.11328 4.0039,-4.02344 11.01562,-4.02344 z"
         style="font-style:normal;font-variant:normal;font-weight:bold;font-stretch:normal;font-size:40px;font-family:sans-serif;-inkscape-font-specification:'sans-serif Bold';fill:none;fill-opacity:1;stroke:#e6dcff;stroke-width:1.51181102;stroke-miterlimit:4;stroke-dasharray:none;stroke-opacity:1"
         id="path4550" />
      <path
         d="m 216.67187,213.73047 h 12.48047 q 5.56641,0 8.53516,2.48047 2.98828,2.46093 2.98828,7.03125 0,4.58984 -2.98828,7.07031 -2.96875,2.46094 -8.53516,2.46094 h -4.96093 v 10.11718 h -7.51954 z m 7.51954,5.44922 v 8.14453 h 4.16015 q 2.1875,0 3.37891,-1.05469 1.1914,-1.07422 1.1914,-3.02734 0,-1.95313 -1.1914,-3.00782 -1.19141,-1.05468 -3.37891,-1.05468 z"
         style="font-style:normal;font-variant:normal;font-weight:bold;font-stretch:normal;font-size:40px;font-family:sans-serif;-inkscape-font-specification:'sans-serif Bold';fill:none;fill-opacity:1;stroke:#e6dcff;stroke-width:1.51181102;stroke-miterlimit:4;stroke-dasharray:none;stroke-opacity:1"
         id="path4552" />
    </g>
    <g
       id="g4862"
       transform="matrix(0.0573939,0,0,0.0573939,38.223828,237.92884)">
      <g
         id="g4782">
        <path
           id="path4732"
           d="M 445.793,512 H 128 V 0 h 317.793 c 9.754,0 17.655,7.901 17.655,17.655 v 476.69 c 0,9.754 -7.9,17.655 -17.655,17.655"
           style="fill:#424a60"
           inkscape:connector-curvature="0" />
        <path
           id="path4734"
           d="M 128,512 H 92.69 c -9.754,0 -17.655,-7.901 -17.655,-17.655 V 17.655 C 75.034,7.901 82.935,0 92.69,0 H 128 Z"
           style="fill:#586789"
           inkscape:connector-curvature="0" />
        <g
           id="g4750">
          <path
             id="path4736"
             d="M 92.69,52.966 H 57.38 c -4.873,0 -8.828,-3.946 -8.828,-8.828 0,-4.882 3.955,-8.828 8.828,-8.828 h 35.31 c 4.873,0 8.828,3.946 8.828,8.828 0,4.882 -3.956,8.828 -8.828,8.828"
             style="fill:#ccd0d2"
             inkscape:connector-curvature="0" />
          <path
             id="path4738"
             d="M 92.69,123.586 H 57.38 c -4.873,0 -8.828,-3.946 -8.828,-8.828 0,-4.882 3.955,-8.828 8.828,-8.828 h 35.31 c 4.873,0 8.828,3.946 8.828,8.828 0,4.882 -3.956,8.828 -8.828,8.828"
             style="fill:#ccd0d2"
             inkscape:connector-curvature="0" />
          <path
             id="path4740"
             d="M 92.69,194.207 H 57.38 c -4.873,0 -8.828,-3.946 -8.828,-8.828 0,-4.882 3.955,-8.828 8.828,-8.828 h 35.31 c 4.873,0 8.828,3.946 8.828,8.828 -0.001,4.882 -3.956,8.828 -8.828,8.828"
             style="fill:#ccd0d2"
             inkscape:connector-curvature="0" />
          <path
             id="path4742"
             d="M 92.69,264.828 H 57.38 c -4.873,0 -8.828,-3.946 -8.828,-8.828 0,-4.882 3.955,-8.828 8.828,-8.828 h 35.31 c 4.873,0 8.828,3.946 8.828,8.828 0,4.882 -3.956,8.828 -8.828,8.828"
             style="fill:#ccd0d2"
             inkscape:connector-curvature="0" />
          <path
             id="path4744"
             d="M 92.69,335.448 H 57.38 c -4.873,0 -8.828,-3.946 -8.828,-8.828 0,-4.882 3.955,-8.828 8.828,-8.828 h 35.31 c 4.873,0 8.828,3.946 8.828,8.828 -0.001,4.882 -3.956,8.828 -8.828,8.828"
             style="fill:#ccd0d2"
             inkscape:connector-curvature="0" />
          <path
             id="path4746"
             d="M 92.69,406.069 H 57.38 c -4.873,0 -8.828,-3.946 -8.828,-8.828 0,-4.882 3.955,-8.828 8.828,-8.828 h 35.31 c 4.873,0 8.828,3.946 8.828,8.828 -0.001,4.882 -3.956,8.828 -8.828,8.828"
             style="fill:#ccd0d2"
             inkscape:connector-curvature="0" />
          <path
             id="path4748"
             d="M 92.69,476.69 H 57.38 c -4.873,0 -8.828,-3.946 -8.828,-8.828 0,-4.882 3.955,-8.828 8.828,-8.828 h 35.31 c 4.873,0 8.828,3.946 8.828,8.828 -0.001,4.882 -3.956,8.828 -8.828,8.828"
             style="fill:#ccd0d2"
             inkscape:connector-curvature="0" />
        </g>
        <path
           id="path4752"
           d="m 331.034,406.069 c 0,-29.255 -23.711,-52.966 -52.966,-52.966 -29.255,0 -52.966,23.711 -52.966,52.966 0,29.255 23.711,52.966 52.966,52.966 29.255,0 52.966,-23.711 52.966,-52.966"
           style="fill:#25ae88"
           inkscape:connector-curvature="0" />
        <path
           id="path4754"
           d="m 348.69,344.276 v 35.31 h -24.797 c 4.511,7.795 7.142,16.825 7.142,26.483 0,7.274 -1.474,14.204 -4.122,20.515 6.444,3.69 13.815,5.967 21.778,5.967 24.373,0 44.138,-19.765 44.138,-44.138 0,-24.373 -19.766,-44.137 -44.139,-44.137"
           style="fill:#cc4b4c"
           inkscape:connector-curvature="0" />
        <path
           id="path4756"
           d="m 260.414,291.31 v 23.499 l 19.897,7.239 -11.626,31.938 c 3.054,-0.547 6.179,-0.883 9.384,-0.883 19.597,0 36.661,10.664 45.824,26.483 H 348.69 V 291.31 Z"
           style="fill:#f0ce49"
           inkscape:connector-curvature="0" />
        <path
           id="path4758"
           d="m 268.687,353.983 11.626,-31.929 -66.366,-24.152 -24.152,66.357 42.39,15.431 c 7.653,-13.278 20.877,-22.909 36.502,-25.707"
           style="fill:#cc4b4c"
           inkscape:connector-curvature="0" />
        <g
           id="g4780">
          <path
             id="path4760"
             d="m 278.069,97.103 h -88.276 c -4.873,0 -8.828,-3.946 -8.828,-8.828 0,-4.882 3.955,-8.828 8.828,-8.828 h 88.276 c 4.873,0 8.828,3.946 8.828,8.828 0,4.882 -3.955,8.828 -8.828,8.828"
             style="fill:#586789"
             inkscape:connector-curvature="0" />
          <path
             id="path4762"
             d="m 401.655,158.897 h -61.793 c -4.873,0 -8.828,-3.946 -8.828,-8.828 0,-4.882 3.955,-8.828 8.828,-8.828 h 61.793 c 4.873,0 8.828,3.946 8.828,8.828 0,4.882 -3.955,8.828 -8.828,8.828"
             style="fill:#586789"
             inkscape:connector-curvature="0" />
          <path
             id="path4764"
             d="m 286.901,158.897 h -61.793 c -4.882,0 -8.828,-3.946 -8.828,-8.828 0,-4.882 3.946,-8.828 8.828,-8.828 h 61.793 c 4.873,0 8.828,3.946 8.828,8.828 0,4.882 -3.955,8.828 -8.828,8.828"
             style="fill:#586789"
             inkscape:connector-curvature="0" />
          <path
             id="path4766"
             d="m 189.793,158.897 h -17.655 c -4.873,0 -8.828,-3.946 -8.828,-8.828 0,-4.882 3.955,-8.828 8.828,-8.828 h 17.655 c 4.873,0 8.828,3.946 8.828,8.828 0,4.882 -3.955,8.828 -8.828,8.828"
             style="fill:#586789"
             inkscape:connector-curvature="0" />
          <path
             id="path4768"
             d="M 401.655,194.207 H 384 c -4.873,0 -8.828,-3.946 -8.828,-8.828 0,-4.882 3.955,-8.828 8.828,-8.828 h 17.655 c 4.873,0 8.828,3.946 8.828,8.828 0,4.882 -3.955,8.828 -8.828,8.828"
             style="fill:#586789"
             inkscape:connector-curvature="0" />
          <path
             id="path4770"
             d="m 348.69,194.207 h -88.276 c -4.873,0 -8.828,-3.946 -8.828,-8.828 0,-4.882 3.955,-8.828 8.828,-8.828 h 88.276 c 4.873,0 8.828,3.946 8.828,8.828 -10e-4,4.882 -3.956,8.828 -8.828,8.828"
             style="fill:#586789"
             inkscape:connector-curvature="0" />
          <path
             id="path4772"
             d="m 207.453,194.207 h -35.31 c -4.882,0 -8.828,-3.946 -8.828,-8.828 0,-4.882 3.946,-8.828 8.828,-8.828 h 35.31 c 4.873,0 8.828,3.946 8.828,8.828 -0.001,4.882 -3.955,8.828 -8.828,8.828"
             style="fill:#586789"
             inkscape:connector-curvature="0" />
          <path
             id="path4774"
             d="m 401.655,229.517 h -88.276 c -4.873,0 -8.828,-3.946 -8.828,-8.828 0,-4.882 3.955,-8.828 8.828,-8.828 h 88.276 c 4.873,0 8.828,3.946 8.828,8.828 0,4.882 -3.955,8.828 -8.828,8.828"
             style="fill:#586789"
             inkscape:connector-curvature="0" />
          <path
             id="path4776"
             d="m 260.414,229.517 h -35.31 c -4.873,0 -8.828,-3.946 -8.828,-8.828 0,-4.882 3.955,-8.828 8.828,-8.828 h 35.31 c 4.873,0 8.828,3.946 8.828,8.828 0,4.882 -3.955,8.828 -8.828,8.828"
             style="fill:#586789"
             inkscape:connector-curvature="0" />
          <path
             id="path4778"
             d="m 189.793,229.517 h -17.655 c -4.873,0 -8.828,-3.946 -8.828,-8.828 0,-4.882 3.955,-8.828 8.828,-8.828 h 17.655 c 4.873,0 8.828,3.946 8.828,8.828 0,4.882 -3.955,8.828 -8.828,8.828"
             style="fill:#586789"
             inkscape:connector-curvature="0" />
        </g>
      </g>
      <g
         id="g4784" />
      <g
         id="g4786" />
      <g
         id="g4788" />
      <g
         id="g4790" />
      <g
         id="g4792" />
      <g
         id="g4794" />
      <g
         id="g4796" />
      <g
         id="g4798" />
      <g
         id="g4800" />
      <g
         id="g4802" />
      <g
         id="g4804" />
      <g
         id="g4806" />
      <g
         id="g4808" />
      <g
         id="g4810" />
      <g
         id="g4812" />
    </g>
  </g>
</svg>
