<?xml version="1.0" encoding="UTF-8" standalone="no"?>
<!-- Created with Inkscape (http://www.inkscape.org/) -->

<svg
   xmlns:dc="http://purl.org/dc/elements/1.1/"
   xmlns:cc="http://creativecommons.org/ns#"
   xmlns:rdf="http://www.w3.org/1999/02/22-rdf-syntax-ns#"
   xmlns:svg="http://www.w3.org/2000/svg"
   xmlns="http://www.w3.org/2000/svg"
   xmlns:sodipodi="http://sodipodi.sourceforge.net/DTD/sodipodi-0.dtd"
   xmlns:inkscape="http://www.inkscape.org/namespaces/inkscape"
   width="400"
   height="300"
   viewBox="0 0 105.83333 79.374992"
   version="1.1"
   id="svg8"
   inkscape:version="0.92.1 r15371"
   sodipodi:docname="f_ci.svg">
  <defs
     id="defs2" />
  <sodipodi:namedview
     id="base"
     pagecolor="#ffffff"
     bordercolor="#666666"
     borderopacity="1.0"
     inkscape:pageopacity="0.0"
     inkscape:pageshadow="2"
     inkscape:zoom="11.313708"
     inkscape:cx="178.32562"
     inkscape:cy="123.58911"
     inkscape:document-units="mm"
     inkscape:current-layer="layer1"
     showgrid="false"
     units="px"
     inkscape:window-width="2560"
     inkscape:window-height="1477"
     inkscape:window-x="0"
     inkscape:window-y="0"
     inkscape:window-maximized="1" />
  <metadata
     id="metadata5">
    <rdf:RDF>
      <cc:Work
         rdf:about="">
        <dc:format>image/svg+xml</dc:format>
        <dc:type
           rdf:resource="http://purl.org/dc/dcmitype/StillImage" />
        <dc:title />
      </cc:Work>
    </rdf:RDF>
  </metadata>
  <g
     inkscape:label="Layer 1"
     inkscape:groupmode="layer"
     id="layer1"
     transform="translate(0,-217.62501)">
    <rect
       style="fill:#cdffbb;fill-opacity:1;stroke-width:0.2501511"
       id="rect4583"
       width="105.83334"
       height="79.375"
       x="0"
       y="217.62502" />
    <circle
       style="fill:#273b7a;fill-opacity:1;stroke-width:0.18708867"
       id="path3774"
       cx="52.916668"
       cy="257.3125"
       r="33.072918" />
    <g
       id="g4926"
       transform="matrix(0.05922388,0,0,0.05721282,37.755248,237.90355)">
      <g
         id="g4827">
        <polygon
           id="polygon4823"
           points="190.958,492.399 150.207,492.399 167.249,412.465 172.15,389.477 212.901,389.477 208.001,412.465 "
           style="fill:#8d5f3d;fill-opacity:1" />
        <polygon
           id="polygon4825"
           points="303.995,412.465 299.095,389.477 339.846,389.477 344.746,412.465 361.789,492.399 321.038,492.399 "
           style="fill:#8d5f3d;fill-opacity:1" />
      </g>
      <g
         id="g4833"
         style="fill:#623f33;fill-opacity:1">
        <polygon
           id="polygon4829"
           points="172.15,389.477 212.901,389.477 208.001,412.465 167.249,412.465 "
           style="fill:#623f33;fill-opacity:1" />
        <polygon
           id="polygon4831"
           points="344.746,412.465 303.995,412.465 299.095,389.477 339.846,389.477 "
           style="fill:#623f33;fill-opacity:1" />
      </g>
      <path
         id="path4835"
         d="M 496.805,391.042 H 15.195 C 6.803,391.042 0,384.239 0,375.847 V 34.795 C 0,26.402 6.803,19.6 15.195,19.6 h 481.609 c 8.392,0 15.195,6.803 15.195,15.195 v 341.053 c 10e-4,8.391 -6.802,15.194 -15.194,15.194 z"
         style="fill:#8d5f3d;fill-opacity:1"
         inkscape:connector-curvature="0" />
      <rect
         id="rect4837"
         height="310.836"
         width="451.396"
         style="fill:#008000"
         y="49.902"
         x="30.302" />
      <g
         id="g4855">
        <path
           id="path4839"
           d="m 106.418,174.767 h 16.346 c 3.268,0 5.122,3.16 5.122,6.647 0,2.942 -1.528,6.429 -5.122,6.429 h -16.346 v 18.526 h 29.206 c 3.268,0 5.12,3.487 5.12,7.52 0,3.487 -1.526,7.301 -5.12,7.301 H 96.828 c -3.706,0 -7.41,-1.744 -7.41,-5.231 v -69.2 c 0,-3.487 3.704,-5.231 7.41,-5.231 h 38.796 c 3.594,0 5.12,3.815 5.12,7.302 0,4.032 -1.853,7.519 -5.12,7.519 h -29.206 z"
           style="fill:#ffffff"
           inkscape:connector-curvature="0" />
        <path
           id="path4841"
           d="m 181.789,177.382 h 28.332 c 2.616,0 5.232,3.051 5.232,6.975 0,4.141 -2.615,6.866 -5.232,6.866 h -28.332 c -3.053,0 -5.122,-2.724 -5.122,-6.866 0,-3.924 2.07,-6.975 5.122,-6.975 z m 0,22.123 h 28.332 c 2.616,0 5.232,3.051 5.232,6.975 0,4.141 -2.615,6.865 -5.232,6.865 h -28.332 c -3.053,0 -5.122,-2.724 -5.122,-6.865 0,-3.924 2.07,-6.975 5.122,-6.975 z"
           style="fill:#ffffff"
           inkscape:connector-curvature="0" />
        <path
           id="path4843"
           d="m 286.973,145.708 c 0,-5.448 -3.706,-8.282 -7.41,-8.282 -3.487,0 -6.865,2.615 -6.865,8.173 v 24.411 c 0,2.615 -3.924,5.231 -8.5,5.231 -4.905,0 -8.393,-2.615 -8.393,-5.231 v -41.52 c 0,-3.051 3.487,-5.121 8.393,-5.121 4.031,0 7.41,2.07 7.41,5.121 v 2.507 c 2.396,-4.25 7.192,-8.282 14.383,-8.282 5.885,0 10.681,4.468 12.86,10.898 3.814,-7.41 10.135,-10.898 16.346,-10.898 10.244,0 19.834,8.282 19.834,22.885 v 24.411 c 0,2.615 -3.814,5.231 -8.5,5.231 -4.469,0 -8.393,-2.615 -8.393,-5.231 V 145.6 c 0,-5.449 -3.594,-8.282 -7.301,-8.282 -3.487,0 -6.975,2.724 -6.975,8.282 v 24.52 c 0,3.597 -4.25,5.122 -8.5,5.122 -3.924,0 -8.391,-1.526 -8.391,-5.122 v -24.412 z"
           style="fill:#ffffff"
           inkscape:connector-curvature="0" />
        <path
           id="path4845"
           d="m 351.048,131.76 c -0.327,-0.544 -0.543,-1.526 -0.543,-2.07 0,-3.924 7.082,-7.083 11.442,-7.083 2.071,0 3.924,0.763 4.686,2.724 l 11.224,28.442 11.224,-28.442 c 0.763,-1.961 2.508,-2.724 4.577,-2.724 3.487,0 11.444,3.269 11.444,7.192 0,0.763 -0.11,1.199 -0.436,1.961 l -19.181,41.956 c -0.87,1.961 -4.357,2.942 -7.628,2.942 -3.378,0 -6.755,-0.981 -7.628,-2.942 z"
           style="fill:#ffffff"
           inkscape:connector-curvature="0" />
        <path
           id="path4847"
           d="m 319.075,216.878 c 12.64,0 25.391,7.955 25.391,22.558 0,23.648 -33.674,31.386 -33.674,41.302 v 0.98 h 28.551 c 2.724,0 5.122,3.378 5.122,7.302 0,3.924 -2.398,7.519 -5.122,7.519 h -38.796 c -3.051,0 -7.408,-2.07 -7.408,-5.231 v -10.57 c 0,-17.109 34.327,-26.918 34.327,-40.757 0,-3.487 -2.179,-7.737 -8.283,-7.737 -4.357,0 -8.173,2.18 -8.173,8.173 0,3.16 -3.378,6.212 -8.936,6.212 -4.357,0 -7.628,-1.961 -7.628,-8.827 0,-13.295 12.206,-20.924 24.629,-20.924 z"
           style="fill:#ffffff"
           inkscape:connector-curvature="0" />
        <path
           id="path4849"
           d="m 163.854,234.987 6.65,9.32 c 0.242,0.389 0.388,0.777 0.388,1.166 0,1.747 -2.523,3.738 -4.32,3.738 -0.727,0 -1.358,-0.292 -1.796,-0.923 l -5.872,-8.689 -2.476,2.282 v 4.515 c 0,1.165 -1.698,2.33 -3.834,2.33 -2.136,0 -3.69,-1.165 -3.69,-2.33 v -31.699 c 0,-1.358 1.554,-2.281 3.69,-2.281 2.136,0 3.834,0.923 3.834,2.281 v 19.029 l 8.058,-7.815 c 0.39,-0.389 0.923,-0.582 1.458,-0.582 1.65,0 3.639,1.991 3.639,3.592 0,0.486 -0.194,0.923 -0.582,1.31 z"
           style="fill:#ffffff"
           inkscape:connector-curvature="0" />
        <path
           id="path4851"
           d="m 427.086,90.101 c 5.632,0 11.311,3.543 11.311,10.049 0,10.534 -14.998,13.981 -14.998,18.398 v 0.437 h 12.717 c 1.213,0 2.281,1.505 2.281,3.253 0,1.747 -1.068,3.349 -2.281,3.349 h -17.282 c -1.358,0 -3.301,-0.923 -3.301,-2.33 v -4.709 c 0,-7.62 15.291,-11.99 15.291,-18.155 0,-1.554 -0.971,-3.446 -3.69,-3.446 -1.941,0 -3.639,0.971 -3.639,3.64 0,1.407 -1.506,2.767 -3.981,2.767 -1.941,0 -3.397,-0.874 -3.397,-3.932 -0.001,-5.923 5.436,-9.321 10.969,-9.321 z"
           style="fill:#ffffff"
           inkscape:connector-curvature="0" />
        <path
           id="path4853"
           d="m 244.618,188.444 h 157.994 c 2.616,0 5.232,3.051 5.232,6.975 0,4.141 -2.615,6.865 -5.232,6.865 H 244.618 c -3.053,0 -5.122,-2.724 -5.122,-6.865 0,-3.924 2.069,-6.975 5.122,-6.975 z"
           style="fill:#ffffff"
           inkscape:connector-curvature="0" />
      </g>
      <g
         id="g4857" />
      <g
         id="g4859" />
      <g
         id="g4861" />
      <g
         id="g4863" />
      <g
         id="g4865" />
      <g
         id="g4867" />
      <g
         id="g4869" />
      <g
         id="g4871" />
      <g
         id="g4873" />
      <g
         id="g4875" />
      <g
         id="g4877" />
      <g
         id="g4879" />
      <g
         id="g4881" />
      <g
         id="g4883" />
      <g
         id="g4885" />
    </g>
    <g
       aria-label="CI"
       style="font-style:normal;font-weight:normal;font-size:10.58333302px;line-height:1.25;font-family:sans-serif;letter-spacing:0px;word-spacing:0px;fill:#273b7a;fill-opacity:1;stroke:#cdffbb;stroke-width:0.40000001;stroke-miterlimit:4;stroke-dasharray:none;stroke-opacity:1"
       id="text4982">
      <path
         d="m 54.376528,280.47512 q -0.54777,0.28422 -1.142049,0.42891 -0.594279,0.1447 -1.240234,0.1447 -1.927531,0 -3.054077,-1.07487 -1.126546,-1.08004 -1.126546,-2.92489 0,-1.85002 1.126546,-2.92489 1.126546,-1.08003 3.054077,-1.08003 0.645955,0 1.240234,0.14469 0.594279,0.1447 1.142049,0.42892 v 1.5968 q -0.552938,-0.37724 -1.090372,-0.55294 -0.537435,-0.1757 -1.131714,-0.1757 -1.064535,0 -1.674317,0.68213 -0.609782,0.68213 -0.609782,1.88102 0,1.19373 0.609782,1.87586 0.609782,0.68212 1.674317,0.68212 0.594279,0 1.131714,-0.1757 0.537434,-0.1757 1.090372,-0.55293 z"
         style="font-style:normal;font-variant:normal;font-weight:bold;font-stretch:normal;font-family:sans-serif;-inkscape-font-specification:'sans-serif Bold';fill:#273b7a;fill-opacity:1;stroke:#cdffbb;stroke-width:0.40000001;stroke-miterlimit:4;stroke-dasharray:none;stroke-opacity:1"
         id="path5047" />
      <path
         d="m 56.030174,273.18357 h 1.989543 v 7.71529 h -1.989543 z"
         style="font-style:normal;font-variant:normal;font-weight:bold;font-stretch:normal;font-family:sans-serif;-inkscape-font-specification:'sans-serif Bold';fill:#273b7a;fill-opacity:1;stroke:#cdffbb;stroke-width:0.40000001;stroke-miterlimit:4;stroke-dasharray:none;stroke-opacity:1"
         id="path5049" />
    </g>
  </g>
</svg>
