<?xml version="1.0" encoding="UTF-8" standalone="no"?>
<!-- Generator: Adobe Illustrator 19.0.0, SVG Export Plug-In . SVG Version: 6.00 Build 0)  -->

<svg
   xmlns:dc="http://purl.org/dc/elements/1.1/"
   xmlns:cc="http://creativecommons.org/ns#"
   xmlns:rdf="http://www.w3.org/1999/02/22-rdf-syntax-ns#"
   xmlns:svg="http://www.w3.org/2000/svg"
   xmlns="http://www.w3.org/2000/svg"
   xmlns:sodipodi="http://sodipodi.sourceforge.net/DTD/sodipodi-0.dtd"
   xmlns:inkscape="http://www.inkscape.org/namespaces/inkscape"
   version="1.1"
   id="Capa_1"
   x="0px"
   y="0px"
   viewBox="0 0 512 512"
   style="enable-background:new 0 0 512 512;"
   xml:space="preserve"
   width="512px"
   height="512px"
   sodipodi:docname="formulario_contorno.svg"
   inkscape:version="0.92.2 (5c3e80d, 2017-08-06)"><metadata
     id="metadata1053"><rdf:RDF><cc:Work
         rdf:about=""><dc:format>image/svg+xml</dc:format><dc:type
           rdf:resource="http://purl.org/dc/dcmitype/StillImage" /><dc:title></dc:title></cc:Work></rdf:RDF></metadata><defs
     id="defs1051" /><sodipodi:namedview
     pagecolor="#000000"
     bordercolor="#666666"
     borderopacity="1"
     objecttolerance="10"
     gridtolerance="10"
     guidetolerance="10"
     inkscape:pageopacity="0"
     inkscape:pageshadow="2"
     inkscape:window-width="1600"
     inkscape:window-height="836"
     id="namedview1049"
     showgrid="false"
     inkscape:snap-grids="true"
     inkscape:zoom="3.5521067"
     inkscape:cx="412.03045"
     inkscape:cy="145.1226"
     inkscape:window-x="0"
     inkscape:window-y="27"
     inkscape:window-maximized="1"
     inkscape:current-layer="Capa_1" /><g
     id="g958"><g
       id="g956"><path
         d="M 504.396,18.257 H 7.604 C 3.405,18.257 0,21.661 0,25.861 v 360.411 c 0,4.199 3.405,7.604 7.604,7.604 h 157.642 l -19.331,90.679 c -0.661,3.103 0.664,6.391 3.564,8.137 1.218,0.733 2.641,1.052 4.062,1.052 h 39.35 c 3.588,0 6.69,-2.509 7.437,-6.018 l 20.007,-93.85 h 71.332 l 20.007,93.85 c 0.747,3.509 3.849,6.018 7.437,6.018 h 39.35 c 1.42,0 2.844,-0.319 4.062,-1.052 2.901,-1.746 4.226,-5.034 3.564,-8.137 l -19.331,-90.679 h 51.695 c 4.199,0 7.604,-3.405 7.604,-7.604 0,-4.199 -3.405,-7.604 -7.604,-7.604 H 337.361 297.822 214.182 174.643 15.208 V 33.465 H 496.792 V 378.668 H 395.936 c -4.199,0 6.396,3.405 6.396,7.604 0,4.199 -12.595,7.604 -8.396,7.604 h 110.46 c 4.199,0 7.604,-3.405 7.604,-7.604 V 25.861 c 0,-4.2 -3.405,-7.604 -7.604,-7.604 z m -173.191,375.618 18.048,84.66 h -23.989 l -18.048,-84.66 z m -150.41,0 h 23.989 l -18.048,84.66 h -23.989 z"
         id="path954"
         inkscape:connector-curvature="0"
         style="fill:#ffffff"
         sodipodi:nodetypes="ssssscccssccccsscccsssccccccccssssssscccccccccc" /></g></g><g
     id="g964"><g
       id="g962"><path
         d="M 474.994,47.659 H 37.006 c -4.199,0 -7.604,3.405 -7.604,7.604 v 63.096 c 0,4.199 3.405,-6.396 7.604,-6.396 4.199,0 7.604,8.595 7.604,4.396 V 62.867 H 467.39 V 349.265 H 44.61 V 115.846 c 0,-4.199 -3.405,-7.604 -7.604,-7.604 -4.199,0 -7.604,3.405 -7.604,7.604 v 241.023 c 0,4.199 3.405,7.604 7.604,7.604 h 437.988 c 4.199,0 7.604,-3.405 7.604,-7.604 V 55.263 c 0,-4.2 -3.405,-7.604 -7.604,-7.604 z"
         id="path960"
         inkscape:connector-curvature="0"
         style="fill:#ffffff"
         sodipodi:nodetypes="ssssssccccsssssssss" /></g></g><g
     id="g970"><g
       id="g968"><path
         d="M139.198,207.083H110.86v-17.976h15.861c3.488,0,4.97-3.383,4.97-6.238c0-3.383-1.799-6.449-4.97-6.449H110.86v-17.871    h28.338c3.17,0,4.968-3.383,4.968-7.296c0-3.383-1.48-7.085-4.968-7.085h-37.644c-3.596,0-7.19,1.692-7.19,5.075v67.145    c0,3.383,3.594,5.075,7.19,5.075h37.644c3.488,0,4.968-3.701,4.968-7.084C144.166,210.466,142.369,207.083,139.198,207.083z"
         fill="#FFFFFF"
         id="path966" /></g></g><g
     id="g980"><g
       id="g978"><g
         id="g976"><path
           d="M183.994,192.386h27.491c2.539,0,5.076-2.644,5.076-6.662c0-3.807-2.538-6.768-5.076-6.768h-27.491     c-2.962,0-4.97,2.961-4.97,6.768C179.024,189.743,181.031,192.386,183.994,192.386z"
           fill="#FFFFFF"
           id="path972" /><path
           d="M211.484,200.422h-27.491c-2.962,0-4.97,2.96-4.97,6.768c0,4.018,2.007,6.661,4.97,6.661h27.491     c2.539,0,5.076-2.643,5.076-6.661C216.561,203.383,214.023,200.422,211.484,200.422z"
           fill="#FFFFFF"
           id="path974" /></g></g></g><g
     id="g986"><g
       id="g984"><path
         d="M313.438,125.914c-6.026,0-12.16,3.384-15.861,10.575c-2.114-6.239-6.768-10.575-12.478-10.575    c-6.977,0-11.631,3.912-13.956,8.036v-2.432c0-2.961-3.279-4.969-7.19-4.969c-4.76,0-8.143,2.008-8.143,4.969v40.287    c0,2.538,3.384,5.075,8.143,5.075c4.441,0,8.248-2.538,8.248-5.075v-23.686c0-5.393,3.278-7.93,6.661-7.93    c3.594,0,7.19,2.75,7.19,8.036h-0.001v23.687c0,3.49,4.334,4.97,8.141,4.97c4.124,0,8.248-1.48,8.248-4.97V148.12    c0-5.393,3.384-8.036,6.768-8.036c3.596,0,7.084,2.749,7.084,8.036v23.686c0,2.538,3.807,5.075,8.143,5.075    c4.547,0,8.248-2.538,8.248-5.075V148.12C332.683,133.95,323.378,125.914,313.438,125.914z"
         fill="#FFFFFF"
         id="path982" /></g></g><g
     id="g992"><g
       id="g990"><path
         d="M389.569,125.808c-2.007,0-3.701,0.74-4.441,2.643l-10.891,27.597l-10.891-27.597c-0.74-1.903-2.538-2.643-4.547-2.643    c-4.23,0-11.102,3.066-11.102,6.873c0,0.528,0.21,1.48,0.527,2.008l18.612,40.71c0.847,1.903,4.123,2.855,7.401,2.855    c3.173,0,6.557-0.952,7.401-2.855l18.611-40.71c0.316-0.74,0.423-1.163,0.423-1.903    C400.673,128.98,392.952,125.808,389.569,125.808z"
         fill="#FFFFFF"
         id="path988" /></g></g><g
     id="g998"><g
       id="g996"><path
         d="M336.868,280.194h-27.703v-0.951c0-9.622,32.674-17.129,32.674-40.075c0-14.17-12.372-21.888-24.637-21.888    c-12.055,0-23.898,7.402-23.898,20.302c0,6.662,3.173,8.565,7.401,8.565c5.393,0,8.671-2.961,8.671-6.027    c0-5.815,3.703-7.93,7.93-7.93c5.923,0,8.037,4.124,8.037,7.508c0,13.429-33.307,22.946-33.307,39.547v10.256    c0,3.067,4.228,5.075,7.188,5.075h37.644c2.643,0,4.97-3.489,4.97-7.296C341.838,283.472,339.511,280.194,336.868,280.194z"
         fill="#FFFFFF"
         id="path994" /></g></g><g
     id="g1004"><g
       id="g1002"><path
         d="M173.043,243.893l-6.452-9.044l4.993-4.616c0.376-0.376,0.565-0.8,0.565-1.271c0-1.554-1.93-3.486-3.531-3.486    c-0.519,0-1.036,0.188-1.414,0.565l-7.819,7.584v-18.463c0-1.318-1.648-2.213-3.72-2.213s-3.58,0.895-3.58,2.213v30.759    c0,1.13,1.508,2.261,3.58,2.261s3.72-1.13,3.72-2.261v-4.381l2.403-2.214l5.698,8.431c0.425,0.612,1.037,0.895,1.743,0.895    c1.743,0,4.191-1.931,4.191-3.627C173.419,244.648,173.278,244.271,173.043,243.893z"
         fill="#FFFFFF"
         id="path1000" /></g></g><g
     id="g1010"><g
       id="g1008"><path
         d="M430.766,122.293h-12.34v-0.424c0-4.286,14.553-7.63,14.553-17.851c0-6.312-5.51-9.75-10.975-9.75    c-5.369,0-10.645,3.298-10.643,9.043c0,2.967,1.413,3.815,3.297,3.815c2.402,0,3.863-1.319,3.863-2.685    c0-2.59,1.648-3.532,3.531-3.532c2.638,0,3.58,1.836,3.58,3.344c0,5.982-14.837,10.222-14.837,17.616v4.569    c0,1.366,1.885,2.261,3.203,2.261h16.768c1.177,0,2.213-1.554,2.213-3.249C432.98,123.753,431.943,122.293,430.766,122.293z"
         fill="#FFFFFF"
         id="path1006" /></g></g><g
     id="g1016"><g
       id="g1014"><path
         d="M398.257,189.689H244.956c-2.962,0-4.971,2.961-4.97,6.768c0,4.018,2.007,6.661,4.97,6.661h153.301    c2.539,0,5.076-2.643,5.076-6.661C403.333,192.65,400.796,189.689,398.257,189.689z"
         fill="#FFFFFF"
         id="path1012" /></g></g><g
     id="g1018" /><g
     id="g1020" /><g
     id="g1022" /><g
     id="g1024" /><g
     id="g1026" /><g
     id="g1028" /><g
     id="g1030" /><g
     id="g1032" /><g
     id="g1034" /><g
     id="g1036" /><g
     id="g1038" /><g
     id="g1040" /><g
     id="g1042" /><g
     id="g1044" /><g
     id="g1046" /></svg>