<?xml version="1.0" encoding="UTF-8" standalone="no"?>
<!-- Created with Inkscape (http://www.inkscape.org/) -->

<svg
   xmlns:dc="http://purl.org/dc/elements/1.1/"
   xmlns:cc="http://creativecommons.org/ns#"
   xmlns:rdf="http://www.w3.org/1999/02/22-rdf-syntax-ns#"
   xmlns:svg="http://www.w3.org/2000/svg"
   xmlns="http://www.w3.org/2000/svg"
   xmlns:sodipodi="http://sodipodi.sourceforge.net/DTD/sodipodi-0.dtd"
   xmlns:inkscape="http://www.inkscape.org/namespaces/inkscape"
   width="400"
   height="300"
   viewBox="0 0 105.83333 79.374992"
   version="1.1"
   id="svg8"
   inkscape:version="0.92.2 (5c3e80d, 2017-08-06)"
   sodipodi:docname="p_t4.svg">
  <defs
     id="defs2" />
  <sodipodi:namedview
     id="base"
     pagecolor="#ffffff"
     bordercolor="#666666"
     borderopacity="1.0"
     inkscape:pageopacity="0.0"
     inkscape:pageshadow="2"
     inkscape:zoom="1.4142136"
     inkscape:cx="65.370227"
     inkscape:cy="197.50792"
     inkscape:document-units="mm"
     inkscape:current-layer="layer1"
     showgrid="false"
     units="px"
     inkscape:window-width="1600"
     inkscape:window-height="836"
     inkscape:window-x="0"
     inkscape:window-y="27"
     inkscape:window-maximized="1" />
  <metadata
     id="metadata5">
    <rdf:RDF>
      <cc:Work
         rdf:about="">
        <dc:format>image/svg+xml</dc:format>
        <dc:type
           rdf:resource="http://purl.org/dc/dcmitype/StillImage" />
        <dc:title />
      </cc:Work>
    </rdf:RDF>
  </metadata>
  <g
     inkscape:label="Layer 1"
     inkscape:groupmode="layer"
     id="layer1"
     transform="translate(0,-217.62501)">
    <rect
       style="fill:#ffe58b;fill-opacity:1;stroke-width:0.2501511"
       id="rect4583"
       width="105.83334"
       height="79.375"
       x="0"
       y="217.62502" />
    <circle
       style="fill:#c27c62;fill-opacity:1;stroke-width:0.18708867"
       id="path3774"
       cx="52.916668"
       cy="257.3125"
       r="33.072918" />
    <g
       id="g8358"
       transform="matrix(0.54680556,0,0,0.54680556,36.5125,236.1459)">
      <g
         id="g8284">
        <rect
           id="rect8246"
           height="6"
           width="58"
           style="fill:#7a3722;fill-opacity:1"
           y="0.5"
           x="1" />
        <rect
           id="rect8248"
           height="42"
           width="54"
           style="fill:#ecf0f1"
           y="6.5"
           x="3" />
        <path
           id="path8250"
           d="m 36,44.5 c -0.553,0 -1,-0.447 -1,-1 v -3 c 0,-0.553 0.447,-1 1,-1 0.553,0 1,0.447 1,1 v 3 c 0,0.553 -0.447,1 -1,1 z"
           style="fill:#8697cb"
           inkscape:connector-curvature="0" />
        <path
           id="path8252"
           d="m 40,44.5 c -0.553,0 -1,-0.447 -1,-1 v -7 c 0,-0.553 0.447,-1 1,-1 0.553,0 1,0.447 1,1 v 7 c 0,0.553 -0.447,1 -1,1 z"
           style="fill:#f3d55b"
           inkscape:connector-curvature="0" />
        <path
           id="path8254"
           d="m 44,44.5 c -0.553,0 -1,-0.447 -1,-1 v -5 c 0,-0.553 0.447,-1 1,-1 0.553,0 1,0.447 1,1 v 5 c 0,0.553 -0.447,1 -1,1 z"
           style="fill:#8697cb"
           inkscape:connector-curvature="0" />
        <path
           id="path8256"
           d="m 48,44.5 c -0.553,0 -1,-0.447 -1,-1 v -12 c 0,-0.553 0.447,-1 1,-1 0.553,0 1,0.447 1,1 v 12 c 0,0.553 -0.447,1 -1,1 z"
           style="fill:#71c285"
           inkscape:connector-curvature="0" />
        <path
           id="path8258"
           d="m 52,44.5 c -0.553,0 -1,-0.447 -1,-1 v -8 c 0,-0.553 0.447,-1 1,-1 0.553,0 1,0.447 1,1 v 8 c 0,0.553 -0.447,1 -1,1 z"
           style="fill:#8697cb"
           inkscape:connector-curvature="0" />
        <path
           id="path8260"
           d="M 20,39.5 H 10 c -0.553,0 -1,-0.447 -1,-1 0,-0.553 0.447,-1 1,-1 h 10 c 0.553,0 1,0.447 1,1 0,0.553 -0.447,1 -1,1 z"
           style="fill:#d1d4d1"
           inkscape:connector-curvature="0" />
        <path
           id="path8262"
           d="M 25,43.5 H 10 c -0.553,0 -1,-0.447 -1,-1 0,-0.553 0.447,-1 1,-1 h 15 c 0.553,0 1,0.447 1,1 0,0.553 -0.447,1 -1,1 z"
           style="fill:#d1d4d1"
           inkscape:connector-curvature="0" />
        <circle
           id="circle8264"
           r="10.5"
           cy="22"
           cx="19.5"
           style="fill:#26b99a" />
        <path
           id="path8266"
           d="M 19.014,11.511 C 19.009,11.516 19.005,11.52 19,11.525 v 10.938 c 0,0.02 0.016,0.037 0.037,0.037 h 10.938 c 0.005,-0.005 0.009,-0.009 0.014,-0.014 0.279,-6.183 -4.792,-11.254 -10.975,-10.975 z"
           style="fill:#f3d55b"
           inkscape:connector-curvature="0" />
        <path
           id="path8268"
           d="m 47,18.5 h -8 c -0.553,0 -1,-0.447 -1,-1 0,-0.553 0.447,-1 1,-1 h 8 c 0.553,0 1,0.447 1,1 0,0.553 -0.447,1 -1,1 z"
           style="fill:#d1d4d1"
           inkscape:connector-curvature="0" />
        <path
           id="path8270"
           d="m 52,18.5 c -0.26,0 -0.521,-0.11 -0.71,-0.29 C 51.109,18.02 51,17.76 51,17.5 c 0,-0.26 0.109,-0.521 0.29,-0.71 0.37,-0.37 1.05,-0.37 1.42,0 0.18,0.189 0.29,0.45 0.29,0.71 0,0.26 -0.11,0.52 -0.29,0.71 -0.19,0.18 -0.45,0.29 -0.71,0.29 z"
           style="fill:#d1d4d1"
           inkscape:connector-curvature="0" />
        <path
           id="path8272"
           d="m 52,13.5 h -3 c -0.553,0 -1,-0.447 -1,-1 0,-0.553 0.447,-1 1,-1 h 3 c 0.553,0 1,0.447 1,1 0,0.553 -0.447,1 -1,1 z"
           style="fill:#d1d4d1"
           inkscape:connector-curvature="0" />
        <path
           id="path8274"
           d="m 41,13.5 h -2 c -0.553,0 -1,-0.447 -1,-1 0,-0.553 0.447,-1 1,-1 h 2 c 0.553,0 1,0.447 1,1 0,0.553 -0.447,1 -1,1 z"
           style="fill:#d1d4d1"
           inkscape:connector-curvature="0" />
        <path
           id="path8276"
           d="m 45,13.5 c -0.26,0 -0.521,-0.11 -0.71,-0.29 C 44.109,13.02 44,12.76 44,12.5 c 0,-0.26 0.109,-0.521 0.29,-0.71 0.37,-0.37 1.05,-0.37 1.42,0 0.18,0.189 0.29,0.439 0.29,0.71 0,0.26 -0.11,0.52 -0.29,0.71 -0.19,0.18 -0.45,0.29 -0.71,0.29 z"
           style="fill:#d1d4d1"
           inkscape:connector-curvature="0" />
        <path
           style="fill:#7a3722;fill-opacity:1;stroke-width:2.0666666"
           d="M 140.06641 168.16602 C 138.92354 168.16602 138 169.09151 138 170.23438 C 138 171.37724 138.92354 172.30078 140.06641 172.30078 L 259.93359 172.30078 C 261.07646 172.30078 262 171.37724 262 170.23438 C 262 169.09151 261.07646 168.16602 259.93359 168.16602 L 140.06641 168.16602 z "
           transform="matrix(0.48387096,0,0,0.48387096,-66.774193,-33.871071)"
           id="path8278" />
        <path
           id="path8280"
           d="m 30,52.5 c -0.553,0 -1,-0.447 -1,-1 v -3 c 0,-0.553 0.447,-1 1,-1 0.553,0 1,0.447 1,1 v 3 c 0,0.553 -0.447,1 -1,1 z"
           style="fill:#7a3722;fill-opacity:1"
           inkscape:connector-curvature="0" />
        <path
           id="path8282"
           d="m 30,59.5 c -2.206,0 -4,-1.794 -4,-4 0,-2.206 1.794,-4 4,-4 2.206,0 4,1.794 4,4 0,2.206 -1.794,4 -4,4 z m 0,-6 c -1.103,0 -2,0.897 -2,2 0,1.103 0.897,2 2,2 1.103,0 2,-0.897 2,-2 0,-1.103 -0.897,-2 -2,-2 z"
           style="fill:#7a3722;fill-opacity:1"
           inkscape:connector-curvature="0" />
      </g>
      <g
         id="g8286" />
      <g
         id="g8288" />
      <g
         id="g8290" />
      <g
         id="g8292" />
      <g
         id="g8294" />
      <g
         id="g8296" />
      <g
         id="g8298" />
      <g
         id="g8300" />
      <g
         id="g8302" />
      <g
         id="g8304" />
      <g
         id="g8306" />
      <g
         id="g8308" />
      <g
         id="g8310" />
      <g
         id="g8312" />
      <g
         id="g8314" />
    </g>
    <g
       aria-label="T4"
       style="font-style:normal;font-weight:normal;font-size:10.58333302px;line-height:1.25;font-family:sans-serif;letter-spacing:0px;word-spacing:0px;fill:none;fill-opacity:1;stroke:#ffe58b;stroke-width:0.40000001;stroke-miterlimit:4;stroke-dasharray:none;stroke-opacity:1"
       id="text4864">
      <path
         d="m 45.896453,273.26573 h 7.110676 v 1.50378 h -2.557983 v 6.21151 h -1.989542 v -6.21151 h -2.563151 z"
         style="font-style:normal;font-variant:normal;font-weight:bold;font-stretch:normal;font-family:sans-serif;-inkscape-font-specification:'sans-serif Bold';fill:none;fill-opacity:1;stroke:#ffe58b;stroke-width:0.40000001;stroke-miterlimit:4;stroke-dasharray:none;stroke-opacity:1"
         id="path4522" />
      <path
         d="m 56.955209,274.90387 -2.180746,3.22978 h 2.180746 z m -0.330729,-1.63814 h 2.211751 v 4.86792 h 1.100708 v 1.44177 h -1.100708 v 1.4056 h -1.881022 v -1.4056 h -3.42098 v -1.70532 z"
         style="font-style:normal;font-variant:normal;font-weight:bold;font-stretch:normal;font-family:sans-serif;-inkscape-font-specification:'sans-serif Bold';fill:none;fill-opacity:1;stroke:#ffe58b;stroke-width:0.40000001;stroke-miterlimit:4;stroke-dasharray:none;stroke-opacity:1"
         id="path4524" />
    </g>
  </g>
</svg>
