<?xml version="1.0" encoding="UTF-8" standalone="no"?>
<!-- Created with Inkscape (http://www.inkscape.org/) -->

<svg
   xmlns:dc="http://purl.org/dc/elements/1.1/"
   xmlns:cc="http://creativecommons.org/ns#"
   xmlns:rdf="http://www.w3.org/1999/02/22-rdf-syntax-ns#"
   xmlns:svg="http://www.w3.org/2000/svg"
   xmlns="http://www.w3.org/2000/svg"
   xmlns:sodipodi="http://sodipodi.sourceforge.net/DTD/sodipodi-0.dtd"
   xmlns:inkscape="http://www.inkscape.org/namespaces/inkscape"
   width="400"
   height="300"
   viewBox="0 0 105.83333 79.374992"
   version="1.1"
   id="svg8"
   inkscape:version="0.92.1 r15371"
   sodipodi:docname="r_al.svg">
  <defs
     id="defs2" />
  <sodipodi:namedview
     id="base"
     pagecolor="#ffffff"
     bordercolor="#666666"
     borderopacity="1.0"
     inkscape:pageopacity="0.0"
     inkscape:pageshadow="2"
     inkscape:zoom="2.8284271"
     inkscape:cx="114.23524"
     inkscape:cy="145.34006"
     inkscape:document-units="mm"
     inkscape:current-layer="layer1"
     showgrid="false"
     units="px"
     inkscape:window-width="2560"
     inkscape:window-height="1477"
     inkscape:window-x="0"
     inkscape:window-y="0"
     inkscape:window-maximized="1" />
  <metadata
     id="metadata5">
    <rdf:RDF>
      <cc:Work
         rdf:about="">
        <dc:format>image/svg+xml</dc:format>
        <dc:type
           rdf:resource="http://purl.org/dc/dcmitype/StillImage" />
        <dc:title />
      </cc:Work>
    </rdf:RDF>
  </metadata>
  <g
     inkscape:label="Layer 1"
     inkscape:groupmode="layer"
     id="layer1"
     transform="translate(0,-217.62501)">
    <rect
       style="fill:#fff1c0;fill-opacity:1;stroke-width:0.2501511"
       id="rect4583"
       width="105.83334"
       height="79.375"
       x="0"
       y="217.62502" />
    <circle
       style="fill:#c27c62;fill-opacity:1;stroke-width:0.18708867"
       id="path3774"
       cx="52.916668"
       cy="257.3125"
       r="33.072918" />
    <g
       id="g7987"
       transform="matrix(0.51200305,0,0,0.51200305,37.78472,237.85701)">
      <g
         id="g7919">
        <polygon
           id="polygon7893"
           points="51,58 51,3 41,3 41,9 18,9 18,3 7,3 7,58 "
           style="fill:#ffd42a;fill-opacity:1" />
        <rect
           id="rect7895"
           height="9"
           width="23"
           style="fill:#a1c8ec"
           x="18"
           y="0" />
        <polygon
           id="polygon7897"
           points="47,54 47,7 41,7 41,9 18,9 18,7 11,7 11,54 "
           style="fill:#ffffff" />
        <path
           id="path7899"
           d="M 37,5 H 22 C 21.447,5 21,4.553 21,4 21,3.447 21.447,3 22,3 h 15 c 0.553,0 1,0.447 1,1 0,0.553 -0.447,1 -1,1 z"
           style="fill:#3e465b"
           inkscape:connector-curvature="0" />
        <circle
           id="circle7901"
           r="3.5"
           cy="17.5"
           cx="19.5"
           style="fill:#c27c62;fill-opacity:1" />
        <circle
           id="circle7903"
           r="3.5"
           cy="30.5"
           cx="19.5"
           style="fill:#c27c62;fill-opacity:1" />
        <circle
           id="circle7905"
           r="3.5"
           cy="43.5"
           cx="19.5"
           style="fill:#c27c62;fill-opacity:1" />
        <path
           id="path7907"
           d="M 42,17 H 27 c -0.553,0 -1,-0.447 -1,-1 0,-0.553 0.447,-1 1,-1 h 15 c 0.553,0 1,0.447 1,1 0,0.553 -0.447,1 -1,1 z"
           style="fill:#839594"
           inkscape:connector-curvature="0" />
        <path
           id="path7909"
           d="M 42,21 H 27 c -0.553,0 -1,-0.447 -1,-1 0,-0.553 0.447,-1 1,-1 h 15 c 0.553,0 1,0.447 1,1 0,0.553 -0.447,1 -1,1 z"
           style="fill:#839594"
           inkscape:connector-curvature="0" />
        <path
           id="path7911"
           d="M 42,30 H 27 c -0.553,0 -1,-0.447 -1,-1 0,-0.553 0.447,-1 1,-1 h 15 c 0.553,0 1,0.447 1,1 0,0.553 -0.447,1 -1,1 z"
           style="fill:#839594"
           inkscape:connector-curvature="0" />
        <path
           id="path7913"
           d="M 42,34 H 27 c -0.553,0 -1,-0.447 -1,-1 0,-0.553 0.447,-1 1,-1 h 15 c 0.553,0 1,0.447 1,1 0,0.553 -0.447,1 -1,1 z"
           style="fill:#839594"
           inkscape:connector-curvature="0" />
        <path
           id="path7915"
           d="M 42,43 H 27 c -0.553,0 -1,-0.447 -1,-1 0,-0.553 0.447,-1 1,-1 h 15 c 0.553,0 1,0.447 1,1 0,0.553 -0.447,1 -1,1 z"
           style="fill:#839594"
           inkscape:connector-curvature="0" />
        <path
           id="path7917"
           d="M 42,47 H 27 c -0.553,0 -1,-0.447 -1,-1 0,-0.553 0.447,-1 1,-1 h 15 c 0.553,0 1,0.447 1,1 0,0.553 -0.447,1 -1,1 z"
           style="fill:#839594"
           inkscape:connector-curvature="0" />
      </g>
      <g
         id="g7921" />
      <g
         id="g7923" />
      <g
         id="g7925" />
      <g
         id="g7927" />
      <g
         id="g7929" />
      <g
         id="g7931" />
      <g
         id="g7933" />
      <g
         id="g7935" />
      <g
         id="g7937" />
      <g
         id="g7939" />
      <g
         id="g7941" />
      <g
         id="g7943" />
      <g
         id="g7945" />
      <g
         id="g7947" />
      <g
         id="g7949" />
    </g>
    <g
       transform="translate(24.425066,-5.258789e-6)"
       id="layer1-3"
       inkscape:label="Layer 1">
      <g
         aria-label="AL"
         style="font-style:normal;font-variant:normal;font-weight:bold;font-stretch:normal;font-size:10.58333302px;line-height:1.25;font-family:sans-serif;-inkscape-font-specification:'sans-serif Bold';letter-spacing:0px;word-spacing:0px;fill:#c27c62;fill-opacity:1;stroke:#fff1c0;stroke-width:0.40000001;stroke-miterlimit:4;stroke-dasharray:none;stroke-opacity:1"
         id="text4858">
        <path
           d="m 26.882392,279.42555 h -3.110921 l -0.490926,1.4056 h -1.999878 l 2.857707,-7.71529 h 2.371948 l 2.857706,7.71529 h -1.999877 z m -2.614827,-1.43144 h 2.113566 l -1.054199,-3.06958 z"
           style="font-style:normal;font-variant:normal;font-weight:bold;font-stretch:normal;font-family:sans-serif;-inkscape-font-specification:'sans-serif Bold';fill:#c27c62;fill-opacity:1;stroke:#fff1c0;stroke-width:0.40000001;stroke-miterlimit:4;stroke-dasharray:none;stroke-opacity:1"
           id="path4652"
           inkscape:connector-curvature="0" />
        <path
           d="m 30.386054,273.11586 h 1.989543 v 6.2115 h 3.493327 v 1.50379 h -5.48287 z"
           style="font-style:normal;font-variant:normal;font-weight:bold;font-stretch:normal;font-family:sans-serif;-inkscape-font-specification:'sans-serif Bold';fill:#c27c62;fill-opacity:1;stroke:#fff1c0;stroke-width:0.40000001;stroke-miterlimit:4;stroke-dasharray:none;stroke-opacity:1"
           id="path4654"
           inkscape:connector-curvature="0" />
      </g>
    </g>
  </g>
</svg>
