<?xml version="1.0" encoding="UTF-8" standalone="no"?>
<!-- Created with Inkscape (http://www.inkscape.org/) -->

<svg
   xmlns:dc="http://purl.org/dc/elements/1.1/"
   xmlns:cc="http://creativecommons.org/ns#"
   xmlns:rdf="http://www.w3.org/1999/02/22-rdf-syntax-ns#"
   xmlns:svg="http://www.w3.org/2000/svg"
   xmlns="http://www.w3.org/2000/svg"
   xmlns:sodipodi="http://sodipodi.sourceforge.net/DTD/sodipodi-0.dtd"
   xmlns:inkscape="http://www.inkscape.org/namespaces/inkscape"
   width="400"
   height="300"
   viewBox="0 0 105.83333 79.374992"
   version="1.1"
   id="svg8"
   inkscape:version="0.92.2 (5c3e80d, 2017-08-06)"
   sodipodi:docname="r_c1v.svg">
  <defs
     id="defs2" />
  <sodipodi:namedview
     id="base"
     pagecolor="#ffffff"
     bordercolor="#666666"
     borderopacity="1.0"
     inkscape:pageopacity="0.0"
     inkscape:pageshadow="2"
     inkscape:zoom="2.8284271"
     inkscape:cx="253.53528"
     inkscape:cy="173.62433"
     inkscape:document-units="mm"
     inkscape:current-layer="layer1"
     showgrid="false"
     units="px"
     inkscape:window-width="1600"
     inkscape:window-height="836"
     inkscape:window-x="0"
     inkscape:window-y="27"
     inkscape:window-maximized="1" />
  <metadata
     id="metadata5">
    <rdf:RDF>
      <cc:Work
         rdf:about="">
        <dc:format>image/svg+xml</dc:format>
        <dc:type
           rdf:resource="http://purl.org/dc/dcmitype/StillImage" />
        <dc:title />
      </cc:Work>
    </rdf:RDF>
  </metadata>
  <g
     inkscape:label="Layer 1"
     inkscape:groupmode="layer"
     id="layer1"
     transform="translate(0,-217.62501)">
    <rect
       style="fill:#fac5cc;fill-opacity:1;stroke-width:0.2501511"
       id="rect4583"
       width="105.83334"
       height="79.375"
       x="0"
       y="217.62502" />
    <circle
       style="fill:#aa4763;fill-opacity:1;stroke-width:0.18708867"
       id="path3774"
       cx="52.916668"
       cy="257.3125"
       r="33.072918" />
    <g
       id="g7987"
       transform="matrix(0.51200305,0,0,0.51200305,37.78472,237.85701)">
      <g
         id="g7919">
        <polygon
           id="polygon7893"
           points="51,58 51,3 41,3 41,9 18,9 18,3 7,3 7,58 "
           style="fill:#c4b10b;fill-opacity:1" />
        <rect
           id="rect7895"
           height="9"
           width="23"
           style="fill:#2b8100;fill-opacity:1"
           x="18"
           y="0" />
        <polygon
           id="polygon7897"
           points="47,54 47,7 41,7 41,9 18,9 18,7 11,7 11,54 "
           style="fill:#ffffff" />
        <path
           id="path7899"
           d="M 37,5 H 22 C 21.447,5 21,4.553 21,4 21,3.447 21.447,3 22,3 h 15 c 0.553,0 1,0.447 1,1 0,0.553 -0.447,1 -1,1 z"
           style="fill:#1d5214;fill-opacity:1"
           inkscape:connector-curvature="0" />
        <circle
           id="circle7901"
           r="3.5"
           cy="17.5"
           cx="19.5"
           style="fill:#aa4763;fill-opacity:1" />
        <circle
           id="circle7903"
           r="3.5"
           cy="30.5"
           cx="19.5"
           style="fill:#aa4763;fill-opacity:1" />
        <circle
           id="circle7905"
           r="3.5"
           cy="43.5"
           cx="19.5"
           style="fill:#aa4763;fill-opacity:1" />
        <path
           id="path7907"
           d="M 42,17 H 27 c -0.553,0 -1,-0.447 -1,-1 0,-0.553 0.447,-1 1,-1 h 15 c 0.553,0 1,0.447 1,1 0,0.553 -0.447,1 -1,1 z"
           style="fill:#2b8100;fill-opacity:1"
           inkscape:connector-curvature="0" />
        <path
           id="path7909"
           d="M 42,21 H 27 c -0.553,0 -1,-0.447 -1,-1 0,-0.553 0.447,-1 1,-1 h 15 c 0.553,0 1,0.447 1,1 0,0.553 -0.447,1 -1,1 z"
           style="fill:#2b8100;fill-opacity:1"
           inkscape:connector-curvature="0" />
        <path
           id="path7911"
           d="M 42,30 H 27 c -0.553,0 -1,-0.447 -1,-1 0,-0.553 0.447,-1 1,-1 h 15 c 0.553,0 1,0.447 1,1 0,0.553 -0.447,1 -1,1 z"
           style="fill:#2b8100;fill-opacity:1"
           inkscape:connector-curvature="0" />
        <path
           id="path7913"
           d="M 42,34 H 27 c -0.553,0 -1,-0.447 -1,-1 0,-0.553 0.447,-1 1,-1 h 15 c 0.553,0 1,0.447 1,1 0,0.553 -0.447,1 -1,1 z"
           style="fill:#2b8100;fill-opacity:1"
           inkscape:connector-curvature="0" />
        <path
           id="path7915"
           d="M 42,43 H 27 c -0.553,0 -1,-0.447 -1,-1 0,-0.553 0.447,-1 1,-1 h 15 c 0.553,0 1,0.447 1,1 0,0.553 -0.447,1 -1,1 z"
           style="fill:#2b8100;fill-opacity:1"
           inkscape:connector-curvature="0" />
        <path
           id="path7917"
           d="M 42,47 H 27 c -0.553,0 -1,-0.447 -1,-1 0,-0.553 0.447,-1 1,-1 h 15 c 0.553,0 1,0.447 1,1 0,0.553 -0.447,1 -1,1 z"
           style="fill:#2b8100;fill-opacity:1"
           inkscape:connector-curvature="0" />
      </g>
      <g
         id="g7921" />
      <g
         id="g7923" />
      <g
         id="g7925" />
      <g
         id="g7927" />
      <g
         id="g7929" />
      <g
         id="g7931" />
      <g
         id="g7933" />
      <g
         id="g7935" />
      <g
         id="g7937" />
      <g
         id="g7939" />
      <g
         id="g7941" />
      <g
         id="g7943" />
      <g
         id="g7945" />
      <g
         id="g7947" />
      <g
         id="g7949" />
    </g>
    <g
       transform="translate(19.789024,-5.258789e-6)"
       id="layer1-3"
       inkscape:label="Layer 1"
       style="fill:none;stroke:#fac5cc;stroke-opacity:1">
      <g
         aria-label="C1V"
         style="font-style:normal;font-variant:normal;font-weight:bold;font-stretch:normal;font-size:10.58333302px;line-height:1.25;font-family:sans-serif;-inkscape-font-specification:'sans-serif Bold';letter-spacing:0px;word-spacing:0px;fill:none;fill-opacity:1;stroke:#fac5cc;stroke-width:0.40000001;stroke-miterlimit:4;stroke-dasharray:none;stroke-opacity:1"
         id="text4858">
        <path
           d="m 28.318997,280.4074 q -0.54777,0.28422 -1.142049,0.42891 -0.594279,0.1447 -1.240235,0.1447 -1.92753,0 -3.054077,-1.07487 -1.126546,-1.08004 -1.126546,-2.92489 0,-1.85001 1.126546,-2.92488 1.126547,-1.08004 3.054077,-1.08004 0.645956,0 1.240235,0.14469 0.594279,0.1447 1.142049,0.42892 v 1.5968 q -0.552938,-0.37724 -1.090373,-0.55294 -0.537435,-0.1757 -1.131714,-0.1757 -1.064534,0 -1.674316,0.68213 -0.609782,0.68213 -0.609782,1.88102 0,1.19373 0.609782,1.87586 0.609782,0.68213 1.674316,0.68213 0.594279,0 1.131714,-0.1757 0.537435,-0.1757 1.090373,-0.55294 z"
           style="font-style:normal;font-variant:normal;font-weight:bold;font-stretch:normal;font-family:sans-serif;-inkscape-font-specification:'sans-serif Bold';fill:none;fill-opacity:1;stroke:#fac5cc;stroke-width:0.40000001;stroke-miterlimit:4;stroke-dasharray:none;stroke-opacity:1"
           id="path4664" />
        <path
           d="m 30.24136,279.45655 h 1.756999 v -4.98677 l -1.803508,0.37207 v -1.35392 l 1.793173,-0.37207 h 1.891357 v 6.34069 h 1.756999 v 1.3746 h -5.39502 z"
           style="font-style:normal;font-variant:normal;font-weight:bold;font-stretch:normal;font-family:sans-serif;-inkscape-font-specification:'sans-serif Bold';fill:none;fill-opacity:1;stroke:#fac5cc;stroke-width:0.40000001;stroke-miterlimit:4;stroke-dasharray:none;stroke-opacity:1"
           id="path4666" />
        <path
           d="m 36.411526,273.11586 h 1.999878 l 2.046387,5.69474 2.041219,-5.69474 h 1.999878 l -2.857707,7.71529 h -2.371948 z"
           style="font-style:normal;font-variant:normal;font-weight:bold;font-stretch:normal;font-family:sans-serif;-inkscape-font-specification:'sans-serif Bold';fill:none;fill-opacity:1;stroke:#fac5cc;stroke-width:0.40000001;stroke-miterlimit:4;stroke-dasharray:none;stroke-opacity:1"
           id="path4668" />
      </g>
    </g>
  </g>
</svg>
