<?xml version="1.0" encoding="UTF-8" standalone="no"?>
<svg
   xmlns:dc="http://purl.org/dc/elements/1.1/"
   xmlns:cc="http://creativecommons.org/ns#"
   xmlns:rdf="http://www.w3.org/1999/02/22-rdf-syntax-ns#"
   xmlns:svg="http://www.w3.org/2000/svg"
   xmlns="http://www.w3.org/2000/svg"
   xmlns:sodipodi="http://sodipodi.sourceforge.net/DTD/sodipodi-0.dtd"
   xmlns:inkscape="http://www.inkscape.org/namespaces/inkscape"
   height="512pt"
   viewBox="0 0 512 512"
   width="512pt"
   version="1.1"
   id="svg12"
   sodipodi:docname="tar_contorno.svg"
   inkscape:version="0.92.1 r15371">
  <metadata
     id="metadata18">
    <rdf:RDF>
      <cc:Work
         rdf:about="">
        <dc:format>image/svg+xml</dc:format>
        <dc:type
           rdf:resource="http://purl.org/dc/dcmitype/StillImage" />
        <dc:title></dc:title>
      </cc:Work>
    </rdf:RDF>
  </metadata>
  <defs
     id="defs16" />
  <sodipodi:namedview
     pagecolor="#ffffff"
     bordercolor="#666666"
     borderopacity="1"
     objecttolerance="10"
     gridtolerance="10"
     guidetolerance="10"
     inkscape:pageopacity="0"
     inkscape:pageshadow="2"
     inkscape:window-width="1280"
     inkscape:window-height="735"
     id="namedview14"
     showgrid="false"
     inkscape:zoom="0.34570313"
     inkscape:cx="-114.25989"
     inkscape:cy="341.33333"
     inkscape:window-x="0"
     inkscape:window-y="0"
     inkscape:window-maximized="1"
     inkscape:current-layer="svg12" />
  <path
     d="m396.394531 13.179688c-8.5-8.5-19.800781-13.179688-31.820312-13.179688h-319.574219c-24.8125 0-45 20.1875-45 45v422c0 24.8125 20.1875 45 45 45h422c24.8125 0 45-20.1875 45-45v-319.574219c0-12.019531-4.679688-23.320312-13.179688-31.820312zm-124.394531 136.820312v-120h30v120zm-122 0v-120h92v120zm182-120h30v120h-30zm30 302h-212v-30h212zm-212 30h212v120h-212zm332 105c0 8.269531-6.730469 15-15 15h-75v-195c0-8.285156-6.714844-15-15-15h-242c-8.285156 0-15 6.714844-15 15v195h-75c-8.269531 0-15-6.730469-15-15v-422c0-8.269531 6.730469-15 15-15h75v135c0 8.285156 6.714844 15 15 15h242c8.285156 0 15-6.714844 15-15v-113.785156l85.605469 85.605468c2.835937 2.832032 4.394531 6.601563 4.394531 10.605469zm0 0"
     id="path2" />
  <path
     d="m317 392h-122c-8.285156 0-15 6.714844-15 15s6.714844 15 15 15h122c8.285156 0 15-6.714844 15-15s-6.714844-15-15-15zm0 0"
     id="path10" />
</svg>
