<?xml version="1.0" encoding="UTF-8" standalone="no"?>
<!-- Created with Inkscape (http://www.inkscape.org/) -->

<svg
   xmlns:dc="http://purl.org/dc/elements/1.1/"
   xmlns:cc="http://creativecommons.org/ns#"
   xmlns:rdf="http://www.w3.org/1999/02/22-rdf-syntax-ns#"
   xmlns:svg="http://www.w3.org/2000/svg"
   xmlns="http://www.w3.org/2000/svg"
   xmlns:sodipodi="http://sodipodi.sourceforge.net/DTD/sodipodi-0.dtd"
   xmlns:inkscape="http://www.inkscape.org/namespaces/inkscape"
   width="400"
   height="300"
   viewBox="0 0 105.83333 79.374992"
   version="1.1"
   id="svg8"
   inkscape:version="0.92.1 r15371"
   sodipodi:docname="tar_cn.svg">
  <defs
     id="defs2" />
  <sodipodi:namedview
     id="base"
     pagecolor="#ffffff"
     bordercolor="#666666"
     borderopacity="1.0"
     inkscape:pageopacity="0.0"
     inkscape:pageshadow="2"
     inkscape:zoom="1.4142136"
     inkscape:cx="206.10164"
     inkscape:cy="124.8601"
     inkscape:document-units="mm"
     inkscape:current-layer="layer1"
     showgrid="false"
     units="px"
     inkscape:window-width="1280"
     inkscape:window-height="735"
     inkscape:window-x="0"
     inkscape:window-y="0"
     inkscape:window-maximized="1" />
  <metadata
     id="metadata5">
    <rdf:RDF>
      <cc:Work
         rdf:about="">
        <dc:format>image/svg+xml</dc:format>
        <dc:type
           rdf:resource="http://purl.org/dc/dcmitype/StillImage" />
        <dc:title></dc:title>
      </cc:Work>
    </rdf:RDF>
  </metadata>
  <g
     inkscape:label="Layer 1"
     inkscape:groupmode="layer"
     id="layer1"
     transform="translate(0,-217.62501)">
    <g
       id="g7987"
       transform="matrix(0.51200305,0,0,0.51200305,37.78472,237.85701)">
      <g
         id="g7919">
        <polygon
           id="polygon7893"
           points="51,58 51,3 41,3 41,9 18,9 18,3 7,3 7,58 "
           style="fill:#ffd42a;fill-opacity:1" />
        <rect
           id="rect7895"
           height="9"
           width="23"
           style="fill:#a1c8ec"
           x="18"
           y="0" />
        <polygon
           id="polygon7897"
           points="47,54 47,7 41,7 41,9 18,9 18,7 11,7 11,54 "
           style="fill:#ffffff" />
        <path
           id="path7899"
           d="M 37,5 H 22 C 21.447,5 21,4.553 21,4 21,3.447 21.447,3 22,3 h 15 c 0.553,0 1,0.447 1,1 0,0.553 -0.447,1 -1,1 z"
           style="fill:#3e465b"
           inkscape:connector-curvature="0" />
        <circle
           id="circle7901"
           r="3.5"
           cy="17.5"
           cx="19.5"
           style="fill:#c27c62;fill-opacity:1" />
        <circle
           id="circle7903"
           r="3.5"
           cy="30.5"
           cx="19.5"
           style="fill:#c27c62;fill-opacity:1" />
        <circle
           id="circle7905"
           r="3.5"
           cy="43.5"
           cx="19.5"
           style="fill:#c27c62;fill-opacity:1" />
        <path
           id="path7907"
           d="M 42,17 H 27 c -0.553,0 -1,-0.447 -1,-1 0,-0.553 0.447,-1 1,-1 h 15 c 0.553,0 1,0.447 1,1 0,0.553 -0.447,1 -1,1 z"
           style="fill:#839594"
           inkscape:connector-curvature="0" />
        <path
           id="path7909"
           d="M 42,21 H 27 c -0.553,0 -1,-0.447 -1,-1 0,-0.553 0.447,-1 1,-1 h 15 c 0.553,0 1,0.447 1,1 0,0.553 -0.447,1 -1,1 z"
           style="fill:#839594"
           inkscape:connector-curvature="0" />
        <path
           id="path7911"
           d="M 42,30 H 27 c -0.553,0 -1,-0.447 -1,-1 0,-0.553 0.447,-1 1,-1 h 15 c 0.553,0 1,0.447 1,1 0,0.553 -0.447,1 -1,1 z"
           style="fill:#839594"
           inkscape:connector-curvature="0" />
        <path
           id="path7913"
           d="M 42,34 H 27 c -0.553,0 -1,-0.447 -1,-1 0,-0.553 0.447,-1 1,-1 h 15 c 0.553,0 1,0.447 1,1 0,0.553 -0.447,1 -1,1 z"
           style="fill:#839594"
           inkscape:connector-curvature="0" />
        <path
           id="path7915"
           d="M 42,43 H 27 c -0.553,0 -1,-0.447 -1,-1 0,-0.553 0.447,-1 1,-1 h 15 c 0.553,0 1,0.447 1,1 0,0.553 -0.447,1 -1,1 z"
           style="fill:#839594"
           inkscape:connector-curvature="0" />
        <path
           id="path7917"
           d="M 42,47 H 27 c -0.553,0 -1,-0.447 -1,-1 0,-0.553 0.447,-1 1,-1 h 15 c 0.553,0 1,0.447 1,1 0,0.553 -0.447,1 -1,1 z"
           style="fill:#839594"
           inkscape:connector-curvature="0" />
      </g>
      <g
         id="g7921" />
      <g
         id="g7923" />
      <g
         id="g7925" />
      <g
         id="g7927" />
      <g
         id="g7929" />
      <g
         id="g7931" />
      <g
         id="g7933" />
      <g
         id="g7935" />
      <g
         id="g7937" />
      <g
         id="g7939" />
      <g
         id="g7941" />
      <g
         id="g7943" />
      <g
         id="g7945" />
      <g
         id="g7947" />
      <g
         id="g7949" />
    </g>
    <rect
       style="fill:#f7f763;fill-opacity:1;stroke-width:0.2501511"
       id="rect4583"
       width="105.83334"
       height="79.375"
       x="0"
       y="217.62502" />
    <circle
       style="fill:#f79400;fill-opacity:1;stroke-width:0.18708867"
       id="path3774"
       cx="52.916668"
       cy="257.3125"
       r="33.072918" />
    <g
       transform="translate(22.941418,-5.258789e-6)"
       id="layer1-3"
       inkscape:label="Layer 1"
       style="fill:none;stroke:#f7f763;stroke-opacity:1">
      <g
         aria-label="CN"
         style="font-style:normal;font-variant:normal;font-weight:bold;font-stretch:normal;font-size:10.58333302px;line-height:1.25;font-family:sans-serif;-inkscape-font-specification:'sans-serif Bold';letter-spacing:0px;word-spacing:0px;fill:none;fill-opacity:1;stroke:#f7f763;stroke-width:0.40000001;stroke-miterlimit:4;stroke-dasharray:none;stroke-opacity:1"
         id="text4858">
        <path
           d="m 28.972899,280.4074 q -0.54777,0.28422 -1.142049,0.42891 -0.594279,0.1447 -1.240235,0.1447 -1.92753,0 -3.054077,-1.07487 -1.126546,-1.08004 -1.126546,-2.92489 0,-1.85001 1.126546,-2.92488 1.126547,-1.08004 3.054077,-1.08004 0.645956,0 1.240235,0.14469 0.594279,0.1447 1.142049,0.42892 v 1.5968 q -0.552938,-0.37724 -1.090373,-0.55294 -0.537435,-0.1757 -1.131714,-0.1757 -1.064534,0 -1.674316,0.68213 -0.609782,0.68213 -0.609782,1.88102 0,1.19373 0.609782,1.87586 0.609782,0.68213 1.674316,0.68213 0.594279,0 1.131714,-0.1757 0.537435,-0.1757 1.090373,-0.55294 z"
           style="font-style:normal;font-variant:normal;font-weight:bold;font-stretch:normal;font-family:sans-serif;-inkscape-font-specification:'sans-serif Bold';fill:none;fill-opacity:1;stroke:#f7f763;stroke-width:0.40000001;stroke-miterlimit:4;stroke-dasharray:none;stroke-opacity:1"
           id="path5235"
           inkscape:connector-curvature="0" />
        <path
           d="m 30.626545,273.11586 h 2.222086 l 2.80603,5.29166 v -5.29166 h 1.88619 v 7.71529 h -2.222086 l -2.806031,-5.29167 v 5.29167 h -1.886189 z"
           style="font-style:normal;font-variant:normal;font-weight:bold;font-stretch:normal;font-family:sans-serif;-inkscape-font-specification:'sans-serif Bold';fill:none;fill-opacity:1;stroke:#f7f763;stroke-width:0.40000001;stroke-miterlimit:4;stroke-dasharray:none;stroke-opacity:1"
           id="path5237"
           inkscape:connector-curvature="0" />
      </g>
    </g>
    <g
       id="g5233"
       transform="matrix(0.06154797,0,0,0.06154797,37.160465,236.04063)">
      <path
         style="fill:#424a60;fill-opacity:1"
         id="path2"
         d="M 512,147.30078 V 467 c 0,24.89844 -20.09766,45 -45,45 H 392 L 362,467 H 150 l -30,45 H 45 C 20.097656,512 0,491.89844 0,467 V 45 C 0,20.097656 20.097656,0 45,0 h 75 l 30,75 H 362 L 392,9.601562 c 1.5,1.199219 3,2.097657 4.5,3.597657 L 498.80078,115.5 C 507.19922,124.19922 512,135.30078 512,147.30078 Z m 0,0"
         inkscape:connector-curvature="0" />
      <path
         style="fill:#e7eced;fill-opacity:1"
         id="path6"
         d="M 392,332 V 512 H 120 V 332 l 136,-30 z m 0,0"
         inkscape:connector-curvature="0" />
      <path
         style="fill:#e7eced;fill-opacity:1"
         id="path14"
         d="m 120,0 v 165 c 0,8.28906 6.71094,15 15,15 H 256 L 286,90 256,0 Z m 0,0"
         inkscape:connector-curvature="0" />
      <path
         style="fill:#e7eced;fill-opacity:1"
         id="path16"
         d="M 364.57812,0 H 316 l -30,90 30,90 h 61 c 8.28906,0 15,-6.71094 15,-15 V 9.570312 C 384.15234,3.476562 374.66797,0 364.57812,0 Z m 0,0"
         inkscape:connector-curvature="0" />
      <path
         style="fill:#c7cac7;fill-opacity:1"
         id="path20"
         d="m 392,287 v 45 H 120 v -45 c 0,-8.40234 6.59766,-15 15,-15 h 242 c 8.40234,0 15,6.59766 15,15 z m 0,0"
         inkscape:connector-curvature="0" />
      <path
         style="fill:#c7cac7;fill-opacity:1"
         id="path24"
         d="m 256,0 h 60 v 180 h -60 z m 0,0"
         inkscape:connector-curvature="0" />
      <path
         style="fill:#424a60;fill-opacity:1"
         id="path26"
         d="m 331,407 c 0,8.39844 -6.59766,15 -15,15 H 195 c -8.40234,0 -15,-6.60156 -15,-15 0,-8.40234 6.59766,-15 15,-15 h 121 c 8.40234,0 15,6.59766 15,15 z m 0,0"
         inkscape:connector-curvature="0" />
      <path
         style="fill:#424a60;fill-opacity:1;stroke-width:0.95742714"
         id="path24-3"
         d="m 255.99974,7.4997499 h 60 V 172.49974 h -60 z m 0,0"
         inkscape:connector-curvature="0" />
      <path
         inkscape:connector-curvature="0"
         id="path10"
         d="M 162.26426,-2.5463558e-4 V 164.99948 c 0,8.27919 6.71936,15.00026 15.00029,15.00026 h 150.00113 c 8.29464,0 15.00029,-6.71936 15.00029,-15.00026 V -2.5463558e-4 Z M 312.26539,135.00062 c 0,8.27921 -6.70564,15.00028 -15.00028,15.00028 h -15.00029 c -8.29464,0 -15.00029,-6.71936 -15.00029,-15.00028 V 45.000607 c 0,-8.279213 6.70565,-15.000287 15.00029,-15.000287 h 15.00029 c 8.29464,0 15.00028,6.71936 15.00028,15.000287 z"
         style="fill:#e7eced;fill-opacity:1;stroke-width:1.71412265" />
    </g>
  </g>
</svg>
