<?xml version="1.0" encoding="UTF-8" standalone="no"?>
<!-- Generator: Adobe Illustrator 19.0.0, SVG Export Plug-In . SVG Version: 6.00 Build 0)  -->

<svg
   xmlns:dc="http://purl.org/dc/elements/1.1/"
   xmlns:cc="http://creativecommons.org/ns#"
   xmlns:rdf="http://www.w3.org/1999/02/22-rdf-syntax-ns#"
   xmlns:svg="http://www.w3.org/2000/svg"
   xmlns="http://www.w3.org/2000/svg"
   xmlns:sodipodi="http://sodipodi.sourceforge.net/DTD/sodipodi-0.dtd"
   xmlns:inkscape="http://www.inkscape.org/namespaces/inkscape"
   version="1.1"
   id="Layer_1"
   x="0px"
   y="0px"
   viewBox="0 0 464.674 464.674"
   style="enable-background:new 0 0 464.674 464.674;"
   xml:space="preserve"
   sodipodi:docname="ernesto.svg"
   inkscape:version="0.92.2 (5c3e80d, 2017-08-06)"><metadata
     id="metadata1137"><rdf:RDF><cc:Work
         rdf:about=""><dc:format>image/svg+xml</dc:format><dc:type
           rdf:resource="http://purl.org/dc/dcmitype/StillImage" /><dc:title /></cc:Work></rdf:RDF></metadata><defs
     id="defs1135" /><sodipodi:namedview
     pagecolor="#ffffff"
     bordercolor="#666666"
     borderopacity="1"
     objecttolerance="10"
     gridtolerance="10"
     guidetolerance="10"
     inkscape:pageopacity="0"
     inkscape:pageshadow="2"
     inkscape:window-width="1600"
     inkscape:window-height="836"
     id="namedview1133"
     showgrid="false"
     inkscape:zoom="1.4142136"
     inkscape:cx="321.27978"
     inkscape:cy="355.402"
     inkscape:window-x="0"
     inkscape:window-y="27"
     inkscape:window-maximized="1"
     inkscape:current-layer="layer1" /><g
     id="g1100"
     style="display:inline" /><g
     inkscape:groupmode="layer"
     id="layer1"
     inkscape:label="Layer 1"><rect
       style="fill:#bdc6ca;fill-opacity:1;stroke:none;stroke-width:0.92160428"
       id="rect2450"
       width="463.0784"
       height="463.0784"
       x="0.46080214"
       y="1.1348128" /><path
       style="display:inline;fill:#5e342e;fill-opacity:1"
       d="m 312.208,288 c -16.73,-5.334 -58.032,-7.846 -80,-7.993 v 0 c -21.968,0.147 -63.27,2.659 -80,7.993 l 80,73 z"
       id="path1028"
       inkscape:connector-curvature="0" /><path
       style="display:inline;fill:#fdc88e"
       d="M 388.836,437.024 378.71,356.012 c -1.529,-12.228 -9.943,-22.492 -21.633,-26.389 l -28.943,-9.648 c 0.077,-0.466 1.095,-7.575 -7.504,-13.308 -7,-4.667 2.167,-13.167 -8.5,-18.667 l -26.835,24.152 c -3.168,-2.961 -5.085,-7.151 -5.085,-11.684 v -25.802 l 34.461,-14.359 c 17.887,-7.453 29.539,-24.93 29.539,-44.308 v -105 c 0,-22.091 -17.909,-40 -40,-40 h -144 c -22.091,0 -40,17.909 -40,40 v 105 c 0,19.377 11.651,36.854 29.538,44.308 l 34.462,14.359 v 25.801 c 0,4.551 -1.933,8.757 -5.124,11.72 L 152.208,288 c -10.667,5.5 -1.5,14 -8.5,18.667 -8.891,5.927 -7.501,13.327 -7.5,13.333 l -28.868,9.623 c -11.691,3.897 -20.105,14.161 -21.633,26.389 l -10.126,81.012 c -1.791,14.324 9.379,26.977 23.815,26.977 h 0.225 265.176 0.225 c 14.435,0 25.605,-12.653 23.814,-26.977 z"
       id="path1030"
       inkscape:connector-curvature="0" /><g
       style="display:inline"
       id="g1034"><path
         style="fill:#fdc88e"
         d="m 280.208,274.667 -96,-21.334 v 47.135 c 0,5.759 -3.186,10.831 -8.017,13.659 67.094,11.744 104.017,-39.46 104.017,-39.46 z"
         id="path1032"
         inkscape:connector-curvature="0" /></g><g
       style="display:inline"
       id="g1038"><path
         style="fill:#ffe1b2"
         d="m 314.669,260.308 -51.694,21.539 c -9.75,4.062 -20.207,6.154 -30.769,6.154 v 0 c -10.562,0 -21.02,-2.092 -30.77,-6.154 l -51.691,-21.538 c -17.887,-7.453 -29.538,-24.93 -29.538,-44.308 v -105 c 0,-22.091 17.909,-40 40,-40 h 144 c 22.091,0 40,17.909 40,40 V 216 c 0.001,19.378 -11.65,36.855 -29.538,44.308 z"
         id="path1036"
         inkscape:connector-curvature="0" /></g><g
       style="display:inline"
       id="g1042"><path
         style="fill:#623f33"
         d="m 176.208,192 v 0 c -4.4,0 -8,-3.6 -8,-8 v -8 c 0,-4.4 3.6,-8 8,-8 v 0 c 4.4,0 8,3.6 8,8 v 8 c 0,4.4 -3.6,8 -8,8 z"
         id="path1040"
         inkscape:connector-curvature="0" /></g><g
       style="display:inline"
       id="g1046"><path
         style="fill:#623f33"
         d="m 288.208,192 v 0 c -4.4,0 -8,-3.6 -8,-8 v -8 c 0,-4.4 3.6,-8 8,-8 v 0 c 4.4,0 8,3.6 8,8 v 8 c 0,4.4 -3.6,8 -8,8 z"
         id="path1044"
         inkscape:connector-curvature="0" /></g><g
       style="display:inline"
       id="g1052"><g
         id="g1050"><path
           style="fill:#e4b07b"
           d="m 232.208,248.219 c -14.223,0 -27.527,-3.5 -36.5,-9.605 -3.652,-2.484 -4.602,-7.461 -2.113,-11.113 2.48,-3.648 7.461,-4.598 11.113,-2.113 6.289,4.277 16.57,6.832 27.5,6.832 10.93,0 21.211,-2.555 27.5,-6.832 3.66,-2.492 8.629,-1.539 11.113,2.113 2.488,3.652 1.539,8.629 -2.113,11.113 -8.973,6.105 -22.277,9.605 -36.5,9.605 z"
           id="path1048"
           inkscape:connector-curvature="0" /></g></g><path
       style="display:inline;fill:#ffd7a3"
       d="m 270.208,156.001 v -54 l -150,-1 v 115 c 0,19.378 11.651,36.855 29.538,44.308 l 51.69,21.538 c 2.53,1.054 5.112,1.962 7.727,2.749 -22.844,-16.711 -38.05,-31.32 -46.96,-40.872 -6.482,-6.95 -9.995,-16.121 -9.995,-25.625 v -88.097 c 14.5,7.999 63,25.999 118,25.999 z"
       id="path1054"
       inkscape:connector-curvature="0" /><g
       style="display:inline;fill:#8d5f3d;fill-opacity:1"
       id="g1058"
       transform="matrix(0.99920292,0,0,1.0041414,0.06030457,-1.9244005)"><path
         style="fill:#8d5f3d;fill-opacity:1"
         d="m 389.078,436.226 -10.538,-80.96 c -1.591,-12.22 -10.057,-22.441 -21.767,-26.278 l -45.242,-14.826 c -3.608,-1.182 -7.619,0.297 -9.416,3.641 -13.423,24.981 -66.957,42.181 -70.054,42.197 -3.097,0.016 -56.803,-16.639 -70.48,-41.482 -1.831,-3.326 -5.857,-4.764 -9.452,-3.545 l -45.089,15.285 c -11.671,3.956 -20.033,14.263 -21.499,26.498 l -9.714,81.063 c -1.718,14.333 9.516,26.929 23.952,26.855 l 264.9975,-0.72858 c 14.435,-0.073 26.1645,-13.40442 24.3015,-27.71942 z"
         id="path1056"
         inkscape:connector-curvature="0"
         sodipodi:nodetypes="cccccscccccccc" /></g><g
       style="display:inline"
       id="g1062"><path
         style="fill:#623f33;fill-opacity:1"
         d="m 92.278344,340.55081 c -3.552,4.497 -5.965157,9.9886 -6.704157,15.9016 l -9.993187,81.012 c -1.791,14.325 9.333706,27.85473 23.768125,27.64106 L 144.209,464.44141 v -52.067 c 0,-7.697 -2.774,-15.135 -7.813,-20.953 z"
         id="path1060"
         inkscape:connector-curvature="0"
         sodipodi:nodetypes="cccscscc" /></g><g
       style="display:inline;fill:#623f33;fill-opacity:1"
       id="g1066"><path
         style="fill:#623f33;fill-opacity:1"
         d="m 372.38375,339.98441 c 3.552,4.497 5.58625,10.11359 6.32525,16.02659 l 10.126,81.012 C 390.626,451.348 379.456,464 365.02,464 h -44.813 v -52.067 c 0,-7.697 2.774,-15.135 7.813,-20.953 z"
         id="path1064"
         inkscape:connector-curvature="0"
         sodipodi:nodetypes="cccscscc" /></g><g
       style="display:inline;fill:#623f33;fill-opacity:1"
       id="g1070"><path
         style="fill:#623f33;fill-opacity:1"
         d="m 320.629,306.667 c -7,-4.667 2.167,-13.167 -8.5,-18.667 L 232.169,359.964 152.208,288 c -10.667,5.5 -1.5,14 -8.5,18.667 -8.895,5.93 -7.5,13.334 -7.5,13.334 l 95.921,47.96 V 368 l 0.04,-0.02 0.04,0.02 v -0.04 L 328.129,320 c 0,0 1.395,-7.403 -7.5,-13.333 z"
         id="path1068"
         inkscape:connector-curvature="0" /></g><path
       style="display:inline;fill:#9d6e48"
       d="m 154.935,104.935 c 1.461,1.313 23.273,21.816 53.273,23.066 v -16 c 0,0 20.667,26.5 72,33 v -33 l 16,32 53,-26.5 v -36.5 c 0,-38.66 -31.34,-70 -70,-70 h -94 c -38.66,0 -70,31.34 -70,70 v 60 l 39.724,-36.068 c 0.001,0 0.002,10e-4 0.003,0.002 z"
       id="path1076"
       inkscape:connector-curvature="0" /><path
       style="display:inline;fill:#8d5f3d"
       d="m 178.405,11.335 c -35.466,3.422 -63.197,33.302 -63.197,69.666 v 60 l 39.724,-36.068 c 0.001,10e-4 0.002,0.002 0.003,0.002 1.461,1.313 23.273,21.816 53.273,23.066 C 188.985,93.673 179.818,37.147 178.405,11.335 Z"
       id="path1078"
       inkscape:connector-curvature="0" /><g
       style="display:inline"
       id="g1082"><path
         style="fill:#a63f44"
         d="m 104.208,208 h -8 c -4.418,0 -8,-3.582 -8,-8 v -24 c 0,-4.418 3.582,-8 8,-8 h 8 c 4.418,0 8,3.582 8,8 v 24 c 0,4.419 -3.582,8 -8,8 z"
         id="path1080"
         inkscape:connector-curvature="0" /></g><g
       style="display:inline"
       id="g1086"><path
         style="fill:#a63f44"
         d="m 360.208,168 h 8 c 4.418,0 8,3.582 8,8 v 24 c 0,4.418 -3.582,8 -8,8 h -8 c -4.418,0 -8,-3.582 -8,-8 v -24 c 0,-4.418 3.582,-8 8,-8 z"
         id="path1084"
         inkscape:connector-curvature="0" /></g><path
       inkscape:connector-curvature="0"
       style="fill:#734a3e"
       d="m 347.208,156 h -83 c -6.617,0 -12,5.383 -12,12 v 0.432 c -5.086,-5.198 -12.172,-8.432 -20,-8.432 -7.828,0 -14.914,3.234 -20,8.432 V 168 c 0,-6.617 -5.383,-12 -12,-12 h -83 c -2.209,0 -4,1.791 -4,4 0,2.209 1.791,4 4,4 h 23.7 c -0.445,1.253 -0.7,2.596 -0.7,4 v 24 c 0,6.617 5.383,12 12,12 h 48 c 6.617,0 12,-5.383 12,-12 v -4 c 0,-11.027 8.973,-20 20,-20 11.027,0 20,8.973 20,20 v 4 c 0,6.617 5.383,12 12,12 h 48 c 6.617,0 12,-5.383 12,-12 v -24 c 0,-1.404 -0.255,-2.747 -0.7,-4 h 23.7 c 2.209,0 4,-1.791 4,-4 0,-2.209 -1.791,-4 -4,-4 z m -143,36 c 0,2.203 -1.793,4 -4,4 h -48 c -2.207,0 -4,-1.797 -4,-4 v -24 c 0,-2.203 1.793,-4 4,-4 h 48 c 2.207,0 4,1.797 4,4 z m 112,-24 v 24 c 0,2.203 -1.793,4 -4,4 h -48 c -2.207,0 -4,-1.797 -4,-4 v -24 c 0,-2.203 1.793,-4 4,-4 h 48 c 2.207,0 4,1.797 4,4 z"
       id="path3095" /><g
       style="display:inline"
       id="g1090"><path
         style="fill:#a63f44"
         d="m 360.208,168 h -16 V 80 c 0,-35.289 -28.711,-64 -64,-64 h -96 c -35.289,0 -64,28.711 -64,64 v 88 h -16 V 80 c 0,-44.109 35.887,-80 80,-80 h 96 c 44.113,0 80,35.891 80,80 z"
         id="path1088"
         inkscape:connector-curvature="0" /></g><g
       style="display:inline"
       id="g1094"><path
         style="fill:#f23f44"
         d="m 108.208,224 v 0 c -6.627,0 -12,-5.373 -12,-12 v -48 c 0,-6.627 5.373,-12 12,-12 v 0 c 6.627,0 12,5.373 12,12 v 48 c 0,6.628 -5.373,12 -12,12 z"
         id="path1092"
         inkscape:connector-curvature="0" /></g><g
       style="display:inline"
       id="g1098"><path
         style="fill:#f23f44"
         d="m 356.208,152 v 0 c 6.627,0 12,5.373 12,12 v 48 c 0,6.627 -5.373,12 -12,12 v 0 c -6.627,0 -12,-5.373 -12,-12 v -48 c 0,-6.627 5.373,-12 12,-12 z"
         id="path1096"
         inkscape:connector-curvature="0" /></g><path
       inkscape:connector-curvature="0"
       style="fill:#e4b07b"
       d="m 232.208,248.219 c -14.223,0 -27.527,-3.5 -36.5,-9.605 -3.652,-2.484 -4.602,-7.461 -2.113,-11.113 2.48,-3.648 7.461,-4.598 11.113,-2.113 6.289,4.277 16.57,6.832 27.5,6.832 10.93,0 21.211,-2.555 27.5,-6.832 3.66,-2.492 8.629,-1.539 11.113,2.113 2.488,3.652 1.539,8.629 -2.113,11.113 -8.972,6.105 -22.277,9.605 -36.5,9.605 z"
       id="path3075" /><text
       xml:space="preserve"
       style="font-style:normal;font-weight:normal;font-size:107.46482086px;line-height:1.25;font-family:sans-serif;letter-spacing:0px;word-spacing:0px;fill:#000000;fill-opacity:1;stroke:none;stroke-width:2.68662047"
       x="174.99504"
       y="484.50116"
       id="text3859"><tspan
         sodipodi:role="line"
         id="tspan3857"
         x="174.99504"
         y="484.50116"
         style="fill:#ffffff;stroke-width:2.68662047">∃!</tspan></text>
</g><g
     id="g1102" /><g
     id="g1104" /><g
     id="g1106" /><g
     id="g1108" /><g
     id="g1110" /><g
     id="g1112" /><g
     id="g1114" /><g
     id="g1116" /><g
     id="g1118" /><g
     id="g1120" /><g
     id="g1122" /><g
     id="g1124" /><g
     id="g1126" /><g
     id="g1128" /><g
     id="g1130" /></svg>