<?xml version="1.0" encoding="UTF-8" standalone="no"?>
<!-- Generator: Adobe Illustrator 19.0.0, SVG Export Plug-In . SVG Version: 6.00 Build 0)  -->

<svg
   xmlns:dc="http://purl.org/dc/elements/1.1/"
   xmlns:cc="http://creativecommons.org/ns#"
   xmlns:rdf="http://www.w3.org/1999/02/22-rdf-syntax-ns#"
   xmlns:svg="http://www.w3.org/2000/svg"
   xmlns="http://www.w3.org/2000/svg"
   xmlns:sodipodi="http://sodipodi.sourceforge.net/DTD/sodipodi-0.dtd"
   xmlns:inkscape="http://www.inkscape.org/namespaces/inkscape"
   version="1.1"
   id="Layer_1"
   x="0px"
   y="0px"
   viewBox="0 0 440.001 440.001"
   style="enable-background:new 0 0 440.001 440.001;"
   xml:space="preserve"
   sodipodi:docname="jordi.svg"
   inkscape:version="0.92.1 r15371"><metadata
     id="metadata5881"><rdf:RDF><cc:Work
         rdf:about=""><dc:format>image/svg+xml</dc:format><dc:type
           rdf:resource="http://purl.org/dc/dcmitype/StillImage" /><dc:title /></cc:Work></rdf:RDF></metadata><defs
     id="defs5879" /><sodipodi:namedview
     pagecolor="#ffffff"
     bordercolor="#666666"
     borderopacity="1"
     objecttolerance="10"
     gridtolerance="10"
     guidetolerance="10"
     inkscape:pageopacity="0"
     inkscape:pageshadow="2"
     inkscape:window-width="2560"
     inkscape:window-height="1477"
     id="namedview5877"
     showgrid="false"
     inkscape:zoom="2"
     inkscape:cx="4.8550832"
     inkscape:cy="-87.319881"
     inkscape:window-x="0"
     inkscape:window-y="0"
     inkscape:window-maximized="1"
     inkscape:current-layer="g5844"
     inkscape:measure-start="0,0"
     inkscape:measure-end="0,0" /><g
     id="g5844"><rect
       style="fill:#4b98cc;fill-opacity:1;stroke:#00ff00"
       id="rect3145"
       width="512.71301"
       height="518.30627"
       x="-20.508522"
       y="-27.966162" /><path
       style="fill:#f6b47b;fill-opacity:1"
       d="M379.863,398.878l-0.726-6.536c-0.287-2.585-2.616-4.449-5.201-4.162l-0.407,0.045l-7.027-56.214   c-1.529-12.228-9.943-22.492-21.634-26.389l-39.047-13.016c-5.362-1.788-11.244-0.65-15.379,2.874l-11.502-3.834   c-6.534-2.178-10.94-8.292-10.94-15.179v-25.802l34.461-14.359C320.349,228.855,332,211.378,332,192v-8c13.255,0,24-10.745,24-24   c0-10.313-6.507-19.105-15.639-22.5l3.886-69.949C346.286,30.865,317.089,0,280.346,0H159.655c-36.741,0-65.94,30.865-63.902,67.55   l3.886,69.949C90.507,140.895,84,149.687,84,160c0,13.255,10.745,24,24,24v8c0,19.377,11.651,36.854,29.538,44.308l34.462,14.359   v25.801c0,6.887-4.407,13.001-10.94,15.179l-11.502,3.834c-4.135-3.524-10.017-4.662-15.379-2.874l-39.047,13.016   c-11.691,3.897-20.105,14.161-21.634,26.389l-7.027,56.214l-0.407-0.045c-2.586-0.287-4.914,1.576-5.201,4.162l-0.726,6.536   c-0.287,2.585,1.576,4.914,4.161,5.201L76,405.38V424c0,8.836,7.163,16,16,16h256c8.837,0,16-7.164,16-16v-18.621l11.702-1.3   C378.287,403.792,380.151,401.463,379.863,398.878z"
       id="path5796" /><g
       id="g5800"><path
         style="fill:#623F33;"
         d="M95.753,67.55L100,144h240l4.247-76.45C346.286,30.865,317.089,0,280.346,0H159.655    C122.913,0,93.715,30.865,95.753,67.55z"
         id="path5798" /></g><g
       id="g5804"
       style="fill:#ffdc46;fill-opacity:1"><path
         style="fill:#ffdc46;fill-opacity:1"
         d="M308,440.001v-40h67l-8.499-67.989c-1.529-12.228-9.943-22.492-21.634-26.389l-39.047-13.016    c-6.8-2.267-14.45,0.154-18.291,6.206C273.349,321.157,248.424,336,220.001,336s-53.349-14.844-67.53-37.188    c-3.841-6.052-11.491-8.473-18.291-6.206l-39.047,13.016c-11.691,3.897-20.105,14.161-21.634,26.389l-7.609,60.872L132.001,400v40    h176V440.001z"
         id="path5802" /></g><g
       id="g5808"
       style="fill:#e2a071;fill-opacity:1"><path
         style="fill:#e2a071;fill-opacity:1"
         d="M268,250h-96v26.468c0,5.759-3.186,10.831-8.017,13.659C231.077,301.871,268,250,268,250z"
         id="path5806" /></g><path
       style="fill:#fdc88e;fill-opacity:1"
       d="M332,136v-32c0-22.091-17.909-40-40-40h-144c-22.091,0-40,17.909-40,40v32   c-13.255,0-24,10.745-24,24s10.745,24,24,24v8c0,19.377,11.651,36.854,29.538,44.308l51.691,21.538   C198.98,261.909,209.438,264,220,264l0,0c10.562,0,21.019-2.092,30.769-6.154l51.694-21.539C320.349,228.855,332,211.378,332,192   v-8c13.255,0,24-10.745,24-24S345.255,136,332,136z"
       id="path5810" /><g
       id="g5814"><path
         style="fill:#623F33;"
         d="M164.001,168L164.001,168c-4.4,0-8-3.6-8-8v-8c0-4.4,3.6-8,8-8l0,0c4.4,0,8,3.6,8,8v8    C172.001,164.4,168.4,168,164.001,168z"
         id="path5812" /></g><g
       id="g5818"><path
         style="fill:#623F33;"
         d="M276,168L276,168c-4.4,0-8-3.6-8-8v-8c0-4.4,3.6-8,8-8l0,0c4.4,0,8,3.6,8,8v8    C284,164.4,280.4,168,276,168z"
         id="path5816" /></g><g
       id="g5824"
       style="fill:#e2a071;fill-opacity:1"><g
         id="g5822"
         style="fill:#e2a071;fill-opacity:1"><path
           style="fill:#e2a071;fill-opacity:1"
           d="M220.001,224.219c-14.223,0-27.527-3.5-36.5-9.605c-3.652-2.484-4.602-7.461-2.113-11.113     c2.48-3.648,7.461-4.598,11.113-2.113c6.289,4.277,16.57,6.832,27.5,6.832s21.211-2.555,27.5-6.832     c3.66-2.492,8.629-1.539,11.113,2.113c2.488,3.652,1.539,8.629-2.113,11.113C247.529,220.719,234.224,224.219,220.001,224.219z"
           id="path5820" /></g></g><g
       id="g5828"
       style="fill:#ffc84a;fill-opacity:1"><path
         style="fill:#ffc84a;fill-opacity:1"
         d="m 132.001,406.04 v -18.106 c 0,-7.697 -2.774,-15.135 -7.813,-20.953 L 80.118219,316.15628 C 76.566219,320.65328 74.239,326.098 73.5,332.011 l -8.356,66.847 z"
         id="path5826"
         inkscape:connector-curvature="0"
         sodipodi:nodetypes="csccccc" /></g><g
       id="g5832"
       style="fill:#ffb04d;fill-opacity:1"><path
         style="fill:#ffb04d;fill-opacity:1"
         d="M132.001,395.507l-65.936-7.326c-2.586-0.287-4.914,1.576-5.202,4.161l-0.726,6.536    c-0.287,2.585,1.576,4.914,4.161,5.201l67.703,7.523V395.507z"
         id="path5830" /></g><g
       id="g5836"
       style="fill:#ffc84a;fill-opacity:1"><path
         style="fill:#ffc84a;fill-opacity:1"
         d="m 308,406.04 v -18.106 c 0,-7.697 2.774,-15.135 7.813,-20.953 l 44.05025,-50.83253 c 3.552,4.497 5.89875,9.94953 6.63775,15.86253 l 8.356,66.847 z"
         id="path5834"
         inkscape:connector-curvature="0"
         sodipodi:nodetypes="csccccc" /></g><g
       id="g5840"
       style="fill:#ffb04d;fill-opacity:1"><path
         style="fill:#ffb04d;fill-opacity:1"
         d="M308,395.507l65.936-7.326c2.586-0.287,4.914,1.576,5.202,4.161l0.726,6.536    c0.287,2.585-1.576,4.914-4.161,5.201L308,411.602V395.507z"
         id="path5838" /></g><path
       style="fill:#f6b47b;fill-opacity:1"
       d="M149.997,219.723c-6.482-6.95-9.995-16.121-9.995-25.625V64.806c-18.257,3.707-32,19.843-32,39.194   v32c-13.255,0-24,10.745-24,24s10.745,24,24,24v8c0,19.378,11.651,36.855,29.538,44.308l51.69,21.538   c2.53,1.054,5.112,1.962,7.727,2.749C174.111,243.883,158.906,229.274,149.997,219.723z"
       id="path5842" /><circle
       style="fill:#ffb04d;fill-opacity:1;stroke:none;stroke-width:2.4000001;stroke-miterlimit:4;stroke-dasharray:none;stroke-opacity:1"
       id="path2453"
       cx="219.99986"
       cy="447.6705"
       r="44.745865" /><rect
       style="fill:#ffc84a;fill-opacity:1;stroke:none;stroke-width:2.21071768;stroke-miterlimit:4;stroke-dasharray:none;stroke-opacity:1"
       id="rect2487"
       width="13.050878"
       height="37.288219"
       x="216.60219"
       y="358.64487" /><rect
       style="fill:#ffc84a;fill-opacity:1;stroke:none;stroke-width:2.21071768;stroke-miterlimit:4;stroke-dasharray:none;stroke-opacity:1"
       id="rect2487-0"
       width="13.050878"
       height="37.288219"
       x="153.68924"
       y="-417.63651"
       transform="rotate(135.01625)" /><rect
       style="fill:#ffc84a;fill-opacity:1;stroke:none;stroke-width:2.21071768;stroke-miterlimit:4;stroke-dasharray:none;stroke-opacity:1"
       id="rect2487-0-9"
       width="13.050878"
       height="37.288219"
       x="468.98251"
       y="66.407738"
       transform="rotate(44.936333)" /><rect
       style="fill:#ffc84a;fill-opacity:1;stroke:none;stroke-width:2.11178803;stroke-miterlimit:4;stroke-dasharray:none;stroke-opacity:1"
       id="rect2487-6"
       width="34.02528"
       height="13.051"
       x="132.00101"
       y="436.94901" /><rect
       style="fill:#ffc84a;fill-opacity:1;stroke:none;stroke-width:2.11178803;stroke-miterlimit:4;stroke-dasharray:none;stroke-opacity:1"
       id="rect2487-6-6"
       width="34.02528"
       height="13.051"
       x="273.97571"
       y="436.95001" /></g><g
     id="g5846" /><g
     id="g5848" /><g
     id="g5850" /><g
     id="g5852" /><g
     id="g5854" /><g
     id="g5856" /><g
     id="g5858" /><g
     id="g5860" /><g
     id="g5862" /><g
     id="g5864" /><g
     id="g5866" /><g
     id="g5868" /><g
     id="g5870" /><g
     id="g5872" /><g
     id="g5874" /></svg>
