<?xml version="1.0" encoding="UTF-8" standalone="no"?>
<!-- Generator: Adobe Illustrator 19.0.0, SVG Export Plug-In . SVG Version: 6.00 Build 0)  -->

<svg
   xmlns:dc="http://purl.org/dc/elements/1.1/"
   xmlns:cc="http://creativecommons.org/ns#"
   xmlns:rdf="http://www.w3.org/1999/02/22-rdf-syntax-ns#"
   xmlns:svg="http://www.w3.org/2000/svg"
   xmlns="http://www.w3.org/2000/svg"
   xmlns:sodipodi="http://sodipodi.sourceforge.net/DTD/sodipodi-0.dtd"
   xmlns:inkscape="http://www.inkscape.org/namespaces/inkscape"
   version="1.1"
   id="Layer_1"
   x="0px"
   y="0px"
   viewBox="0 0 464 464"
   style="enable-background:new 0 0 464 464;"
   xml:space="preserve"
   sodipodi:docname="miquel.svg"
   inkscape:version="0.92.2 (5c3e80d, 2017-08-06)"><metadata
     id="metadata3825"><rdf:RDF><cc:Work
         rdf:about=""><dc:format>image/svg+xml</dc:format><dc:type
           rdf:resource="http://purl.org/dc/dcmitype/StillImage" /><dc:title></dc:title></cc:Work></rdf:RDF></metadata><defs
     id="defs3823" /><sodipodi:namedview
     pagecolor="#ffffff"
     bordercolor="#666666"
     borderopacity="1"
     objecttolerance="10"
     gridtolerance="10"
     guidetolerance="10"
     inkscape:pageopacity="0"
     inkscape:pageshadow="2"
     inkscape:window-width="1600"
     inkscape:window-height="836"
     id="namedview3821"
     showgrid="false"
     inkscape:zoom="0.70710678"
     inkscape:cx="189.57927"
     inkscape:cy="252.66514"
     inkscape:window-x="0"
     inkscape:window-y="27"
     inkscape:window-maximized="1"
     inkscape:current-layer="layer1"
     inkscape:snap-grids="false" /><g
     inkscape:groupmode="layer"
     id="layer1"
     inkscape:label="Layer 1"><rect
       style="fill:#bdc6ca;fill-opacity:1;stroke:none;stroke-width:0.87124497"
       id="rect3868"
       width="464"
       height="464"
       x="0"
       y="-1.4210855e-14" /><g
       style="enable-background:new 0 0 464 464"
       id="g3788"><path
         style="fill:#ffc85c;fill-opacity:1"
         d="M232.232,0h-0.064C155.382,0,80.2,58,80.2,136c0,103.333,56,152,56,152   s-11.542,23.589-15.012,44.996h41.961C159.318,310.596,160.2,288,160.2,288s216-39.333,216-152C376.2,59.214,309.018,0,232.232,0z"
         id="path3734" /><path
         style="fill:#f6b45e;fill-opacity:1"
         d="M299.295,15.919C279.017,5.733,256.092,0,232.232,0h-0.063C155.382,0,80.2,58,80.2,136   c0,103.333,56,152,56,152s-11.552,23.59-15.023,44.996h41.97C159.316,310.596,160.2,288,160.2,288s22.901-4.196,53.735-13.687   L104.2,166.055C104.2,166.055,263.108,110.285,299.295,15.919z"
         id="path3736" /><path
         style="fill:#f6b47b;fill-opacity:1"
         d="M383.588,413.991l-1.526-5.227c-0.737-2.525-3.197-4.073-5.727-3.751l-5.334-40.002   c-1.752-13.142-9.895-24.558-23.304-31.262l-15.714-7.857c-2.545-1.272-4.488,0.365-6.357,2.444l-34.485-12.689   c-6.534-2.178-10.94-8.292-10.94-15.179v-25.802l34.461-14.359c17.887-7.453,29.539-24.93,29.539-44.308v-8   c13.255,0,24-10.745,24-24s-10.745-24-24-24v-16c0-22.091-17.909-56-40-56h-144c-22.092,0-40,33.909-40,56v16   c-13.255,0-24,10.745-24,24s10.745,24,24,24v8c0,19.378,11.651,36.855,29.538,44.308l34.462,14.36v25.801   c0,6.887-4.407,13.001-10.94,15.179l-34.485,12.689c-1.869-2.079-3.812-3.717-6.357-2.444l-15.714,7.857   c-13.41,6.705-21.552,18.121-23.304,31.262l-5.334,40.002c-2.53-0.322-4.989,1.226-5.727,3.751l-1.526,5.227   c-0.817,2.799,0.79,5.729,3.589,6.546l11.799,3.442V448c0,8.836,7.164,16,16,16h32h176h32c8.836,0,16-7.164,16-16v-24.021   l11.799-3.442C382.798,419.721,384.405,416.79,383.588,413.991z"
         id="path3738" /><path
         style="fill:#e2a071;fill-opacity:1"
         d="M280.2,273.831l-96,0.165v26.472c0,5.693-3.017,10.852-7.752,13.701   C243.371,325.732,280.197,273.835,280.2,273.831z"
         id="path3740" /><g
         id="g3744"><path
           style="fill:#9BCE7A;"
           d="M371.001,365.011c-1.752-13.142-9.895-24.558-23.304-31.262l-15.714-7.857    c-2.905-1.452-5.025,0.886-7.146,3.345c-42.636,49.431-92.635,70.767-92.635,70.767h-0.001H232.2c0,0-49.999-21.336-92.635-70.767    c-2.121-2.459-4.242-4.797-7.146-3.345l-15.714,7.857c-13.41,6.705-21.552,18.121-23.304,31.262l-6.512,48.836    C108.022,421.124,144.2,432,144.2,432v32h176v-32c0,0,36.178-10.876,57.313-18.153L371.001,365.011z"
           id="path3742" /></g><path
         style="fill:#fdc88e;fill-opacity:1"
         d="M344.2,160v-16c0-22.091-17.909-56-40-56h-144c-22.092,0-40,33.909-40,56v15.996   c-13.255,0-24,10.745-24,24s10.745,24,24,24V216c0,19.378,11.651,36.855,29.538,44.308l51.691,21.538   c9.75,4.063,20.208,6.154,30.77,6.154l0,0c10.562,0,21.019-2.092,30.769-6.154l51.694-21.539   c17.887-7.453,29.539-24.93,29.539-44.308v-8c13.255,0,24-10.745,24-24S357.455,160,344.2,160z"
         id="path3746" /><g
         id="g3750"><path
           style="fill:#623F33;"
           d="M288.2,192L288.2,192c-4.4,0-8-3.6-8-8v-8c0-4.4,3.6-8,8-8l0,0c4.4,0,8,3.6,8,8v8    C296.2,188.4,292.6,192,288.2,192z"
           id="path3748" /></g><g
         id="g3756"><g
           id="g3754"><path
             style="fill:#E4B07B;"
             d="M232.2,248.219c-14.223,0-27.527-3.5-36.5-9.605c-3.652-2.484-4.601-7.461-2.113-11.113     c2.48-3.648,7.461-4.598,11.113-2.113c6.289,4.277,16.57,6.832,27.5,6.832s21.211-2.555,27.5-6.832     c3.66-2.492,8.629-1.539,11.113,2.113c2.488,3.652,1.539,8.629-2.113,11.113C259.727,244.719,246.423,248.219,232.2,248.219z"
             id="path3752" /></g></g><path
         style="fill:#f6b47b;fill-opacity:1"
         d="M120.2,160c-13.255,0-24,10.745-24,24s10.745,24,24,24v8c0,19.378,11.651,36.855,29.538,44.308   l51.69,21.538c2.53,1.054,5.112,1.962,7.727,2.749c-22.844-16.711-38.05-31.32-46.96-40.872   c-6.482-6.949-9.995-16.121-9.995-25.625V176c0,0,133.333-16.667,168-72c2.026-3.233,3.425-6.167,4.277-8.832   C246.467,139.992,120.2,160,120.2,160z"
         id="path3758" /><g
         id="g3762"><path
           style="fill:#8ABE69;"
           d="M144.002,429.556c-0.489-9.513-3.665-18.705-9.402-26.355l-37.557-50.076    c-1.813,3.734-3.087,7.708-3.645,11.887l-6.341,47.561L144.002,429.556z"
           id="path3760" /></g><g
         id="g3766"><path
           style="fill:#76AB5F;"
           d="M80.812,413.991c-0.817,2.799,0.79,5.73,3.588,6.546l59.799,17.444V432    c0-3.779-0.594-7.481-1.461-11.113l-53.856-15.71c-2.798-0.816-5.728,0.79-6.544,3.588L80.812,413.991z"
           id="path3764" /></g><g
         id="g3770"><path
           style="fill:#8ABE69;"
           d="M320.398,429.556c0.489-9.513,3.665-18.705,9.402-26.355l37.557-50.076    c1.813,3.734,3.087,7.708,3.645,11.887l6.341,47.561L320.398,429.556z"
           id="path3768" /></g><g
         id="g3774"><path
           style="fill:#76AB5F;"
           d="M383.588,413.991c0.817,2.799-0.79,5.73-3.588,6.546l-59.8,17.444V432    c0-3.779,0.594-7.481,1.461-11.113l53.856-15.71c2.798-0.816,5.728,0.79,6.544,3.588L383.588,413.991z"
           id="path3772" /></g><g
         id="g3778"><path
           style="fill:#76AB5F;"
           d="M160.2,296h-24c-4.418,0-8-3.582-8-8l0,0c0-4.418,3.582-8,8-8h24c4.418,0,8,3.582,8,8l0,0    C168.2,292.418,164.618,296,160.2,296z"
           id="path3776" /></g><g
         id="g3784"><path
           style="fill:#623F33;"
           d="M176.2,192L176.2,192c-4.4,0-8-3.6-8-8v-8c0-4.4,3.6-8,8-8l0,0c4.4,0,8,3.6,8,8v8    C184.2,188.4,180.6,192,176.2,192z"
           id="path3782" /></g><path
         inkscape:connector-curvature="0"
         style="fill:#000000;fill-opacity:1"
         d="m 156.2,464 h 152 V 316.465 c -3.418,1.03 -6.465,3.189 -8.47,6.348 C 285.549,345.157 260.624,360 232.2,360 c -28.424,0 -53.349,-14.844 -67.53,-37.188 -2.005,-3.159 -5.052,-5.318 -8.47,-6.348 z"
         id="path4004" /><path
         inkscape:connector-curvature="0"
         style="fill:#623f33"
         d="m 288.2,192 v 0 c -4.4,0 -8,-3.6 -8,-8 v -8 c 0,-4.4 3.6,-8 8,-8 v 0 c 4.4,0 8,3.6 8,8 v 8 c 0,4.4 -3.6,8 -8,8 z"
         id="path4016" /><path
         inkscape:connector-curvature="0"
         style="fill:#e2a071"
         d="m 232.2,248.219 c -14.223,0 -27.527,-3.5 -36.5,-9.605 -3.652,-2.484 -4.602,-7.461 -2.113,-11.113 2.48,-3.648 7.461,-4.598 11.113,-2.113 6.289,4.277 16.57,6.832 27.5,6.832 10.93,0 21.211,-2.555 27.5,-6.832 3.66,-2.492 8.629,-1.539 11.113,2.113 2.488,3.652 1.539,8.629 -2.113,11.113 -8.971,6.105 -22.277,9.605 -36.5,9.605 z"
         id="path4018" /><path
         inkscape:connector-curvature="0"
         style="fill:#202020;fill-opacity:1"
         d="m 317.76687,316.92591 c -6.8,-2.267 -14.19487,-0.16491 -18.03587,5.88709 C 285.549,345.157 260.624,360 232.2,360 c -28.424,0 -53.349,-14.844 -67.53,-37.188 -3.841,-6.052 -11.39533,-8.21787 -18.19533,-5.95087 l -2.68167,0.83011 C 158.391,352.09324 192.476,376 232.2,376 c 39.724,0 73.55487,-23.68452 88.15187,-58.08452 z"
         id="path4022"
         sodipodi:nodetypes="ccssccscc" /><path
         inkscape:connector-curvature="0"
         style="fill:#79a67c;fill-opacity:1"
         d="M 388.151,431.592 C 372.411,429.582 360.2,416.286 360.2,400 c 0,-13.528 8.422,-25.033 20.286,-29.715 z"
         id="path4030" /></g><path
       inkscape:connector-curvature="0"
       style="enable-background:new 0 0 464 464;fill:#734a3e"
       d="m 347.2,156 h -83 c -6.617,0 -12,5.383 -12,12 v 0.432 c -5.086,-5.198 -12.172,-8.432 -20,-8.432 -7.828,0 -14.914,3.234 -20,8.432 V 168 c 0,-6.617 -5.383,-12 -12,-12 h -83 c -2.209,0 -4,1.791 -4,4 0,2.209 1.791,4 4,4 h 23.7 c -0.445,1.253 -0.7,2.596 -0.7,4 v 24 c 0,6.617 5.383,12 12,12 h 48 c 6.617,0 12,-5.383 12,-12 v -4 c 0,-11.027 8.973,-20 20,-20 11.027,0 20,8.973 20,20 v 4 c 0,6.617 5.383,12 12,12 h 48 c 6.617,0 12,-5.383 12,-12 v -24 c 0,-1.404 -0.255,-2.747 -0.7,-4 h 23.7 c 2.209,0 4,-1.791 4,-4 0,-2.209 -1.791,-4 -4,-4 z m -143,36 c 0,2.203 -1.793,4 -4,4 h -48 c -2.207,0 -4,-1.797 -4,-4 v -24 c 0,-2.203 1.793,-4 4,-4 h 48 c 2.207,0 4,1.797 4,4 z m 112,-24 v 24 c 0,2.203 -1.793,4 -4,4 h -48 c -2.207,0 -4,-1.797 -4,-4 v -24 c 0,-2.203 1.793,-4 4,-4 h 48 c 2.207,0 4,1.797 4,4 z"
       id="path4979" /><path
       style="enable-background:new 0 0 464 464;fill:#ffc85c;fill-opacity:1"
       d="m 104.2,84.996 v 81.059 c 124.89,-14.872 184.031,-41.191 210.985,-59.117 1.986,29.312 2.32353,-48.454513 -11.36547,-4.69051 0,0 47.01647,54.97151 39.59347,-17.25049 z"
       id="path3780"
       inkscape:connector-curvature="0"
       sodipodi:nodetypes="cccccc" /><path
       style="enable-background:new 0 0 464 464;fill:#f6b45e;fill-opacity:1"
       d="M104.2,84.996v81.059l0,0c0.009-0.003,83.212-29.188,142.933-81.059   C247.133,84.996,104.2,84.996,104.2,84.996z"
       id="path3786" /><path
       sodipodi:type="star"
       style="enable-background:new 0 0 464 464;fill:none;fill-opacity:1;stroke:#ff0000;stroke-width:3.66189289;stroke-miterlimit:4;stroke-dasharray:none;stroke-opacity:1"
       id="path2629"
       sodipodi:sides="5"
       sodipodi:cx="229.61832"
       sodipodi:cy="446.47227"
       sodipodi:r1="61.858997"
       sodipodi:r2="50.044983"
       sodipodi:arg1="1.2220253"
       sodipodi:arg2="1.8503439"
       inkscape:flatsided="true"
       inkscape:rounded="0"
       inkscape:randomized="0"
       d="m 250.7582,504.60694 -69.89666,-20.06485 -2.51646,-72.67606 68.34142,-24.85143 44.75376,57.31704 z"
       inkscape:transform-center-x="-5.2743504"
       inkscape:transform-center-y="-0.66149165" /><circle
       style="enable-background:new 0 0 464 464;fill:none;fill-opacity:1;stroke:#ff0000;stroke-width:2.3;stroke-miterlimit:4;stroke-dasharray:none;stroke-opacity:1"
       id="path2631"
       cx="229.83514"
       cy="446.32037"
       r="62.301239" /><circle
       style="enable-background:new 0 0 464 464;fill:#ff0000;fill-opacity:1;stroke:#ff0000;stroke-width:2.90665841;stroke-miterlimit:4;stroke-dasharray:none;stroke-opacity:1"
       id="path2668"
       cx="179.12451"
       cy="411.93036"
       inkscape:transform-center-x="38.694761"
       inkscape:transform-center-y="-11.055644"
       r="3.5466707" /><circle
       style="enable-background:new 0 0 464 464;fill:#ff0000;fill-opacity:1;stroke:#ff0000;stroke-width:2.90665841;stroke-miterlimit:4;stroke-dasharray:none;stroke-opacity:1"
       id="path2668-6"
       cx="247.22124"
       cy="387.20578"
       inkscape:transform-center-x="38.694761"
       inkscape:transform-center-y="-11.055644"
       r="3.5466707" /><path
       style="enable-background:new 0 0 464 464;fill:none;stroke:#ff0000;stroke-width:2.3;stroke-linecap:butt;stroke-linejoin:miter;stroke-opacity:1;stroke-miterlimit:4;stroke-dasharray:none"
       d="M 291.44026,444.33164 H 167.36546 Z"
       id="path2685"
       inkscape:connector-curvature="0" /><path
       style="enable-background:new 0 0 464 464;fill:#4b98cc;fill-opacity:1;stroke:#ff0000;stroke-width:2.29999995;stroke-linecap:butt;stroke-linejoin:miter;stroke-miterlimit:4;stroke-dasharray:none;stroke-opacity:1"
       d="M 246.6865,377.0146 V 495.58624 Z"
       id="path2687"
       inkscape:connector-curvature="0" /><path
       style="enable-background:new 0 0 464 464;fill:#4b98cc;fill-opacity:1;stroke:#ff0000;stroke-width:2.29999995;stroke-linecap:butt;stroke-linejoin:miter;stroke-miterlimit:4;stroke-dasharray:none;stroke-opacity:1"
       d="M 228.67443,383.28324 V 501.85488 Z"
       id="path2687-1"
       inkscape:connector-curvature="0" /><circle
       style="enable-background:new 0 0 464 464;fill:#ff0000;fill-opacity:1;stroke:#ff0000;stroke-width:2.90665841;stroke-miterlimit:4;stroke-dasharray:none;stroke-opacity:1"
       id="path2668-6-8"
       cx="228.59673"
       cy="444.61008"
       inkscape:transform-center-x="38.694761"
       inkscape:transform-center-y="-11.055644"
       r="3.5466707" /><circle
       style="enable-background:new 0 0 464 464;fill:#ff0000;fill-opacity:1;stroke:#ff0000;stroke-width:2.90665841;stroke-miterlimit:4;stroke-dasharray:none;stroke-opacity:1"
       id="path2668-6-8-7"
       cx="246.96611"
       cy="444.35498"
       inkscape:transform-center-x="38.694761"
       inkscape:transform-center-y="-11.055644"
       r="3.5466707" /><circle
       style="enable-background:new 0 0 464 464;fill:#ff0000;fill-opacity:1;stroke:#ff0000;stroke-width:2.90665841;stroke-miterlimit:4;stroke-dasharray:none;stroke-opacity:1"
       id="path2668-6-8-7-9"
       cx="228.85187"
       cy="421.64838"
       inkscape:transform-center-x="38.694761"
       inkscape:transform-center-y="-11.055644"
       r="3.5466707" /><path
       style="enable-background:new 0 0 464 464;fill:none;stroke:#ff0000;stroke-width:2.3;stroke-linecap:butt;stroke-linejoin:miter;stroke-opacity:1;stroke-miterlimit:4;stroke-dasharray:none"
       d="M 291.44026,444.33164 228.59673,421.64837 Z"
       id="path2749"
       inkscape:connector-curvature="0" /><path
       style="enable-background:new 0 0 464 464;fill:none;stroke:#ff0000;stroke-width:2.3;stroke-linecap:butt;stroke-linejoin:miter;stroke-opacity:1;stroke-miterlimit:4;stroke-dasharray:none"
       d="m 246.71098,444.35497 -18.11425,-22.7066 z"
       id="path2751"
       inkscape:connector-curvature="0" /><path
       inkscape:connector-curvature="0"
       style="enable-background:new 0 0 464 464;fill:#95b995;fill-opacity:1"
       d="M 184.2,464.001 161.673,321.329 c -0.771,-4.883 -5.742,-7.905 -10.432,-6.342 l -48.692,16.231 c -8.767998,2.923 -15.078998,10.621 -16.224998,19.792 l -10.752001,86.015 c -1.791,14.324 9.379,26.977 23.815001,26.977 z"
       id="path4024" /><path
       inkscape:connector-curvature="0"
       style="enable-background:new 0 0 464 464;fill:#79a67c;fill-opacity:1"
       d="m 91.151002,339.372 c -2.56,3.326 -4.285,7.305 -4.827,11.636 l -10.752001,86.015 c -1.791,14.325 9.379,26.977 23.815001,26.977 H 144.2 v -45.965 c 0,-11.627 -4.22,-22.858 -11.876,-31.608 z"
       id="path4034" /><path
       inkscape:connector-curvature="0"
       style="enable-background:new 0 0 464 464;fill:#95b995;fill-opacity:1"
       d="m 280.2,464.001 22.527,-142.672 c 0.771,-4.883 5.742,-7.905 10.432,-6.342 l 48.692,16.231 c 8.768,2.923 15.079,10.621 16.225,19.792 l 10.752,86.015 c 1.791,14.324 -9.379,26.977 -23.815,26.977 z"
       id="path4026" /><path
       inkscape:connector-curvature="0"
       style="fill:#79a67c;fill-opacity:1"
       d="m 373.28906,339.36419 c 2.56,3.326 4.24594,7.31281 4.78794,11.64381 l 10.752,86.015 C 390.62,451.348 379.45,464 365.014,464 H 320.2 v -45.965 c 0,-11.627 4.22,-22.858 11.876,-31.608 z"
       id="path4028"
       sodipodi:nodetypes="cccscscc" /><path
       style="fill:none;fill-opacity:1;stroke:#ff0000;stroke-width:1.5;stroke-miterlimit:4;stroke-dasharray:none;stroke-opacity:1"
       id="path3527"
       sodipodi:type="arc"
       sodipodi:cx="248.62447"
       sodipodi:cy="382.741"
       sodipodi:rx="75.646126"
       sodipodi:ry="75.646126"
       sodipodi:start="2.5307274"
       sodipodi:end="2.9670597"
       d="M 186.65879,426.12983 A 75.646126,75.646126 0 0 1 174.12758,395.87681"
       sodipodi:open="true" /><path
       style="fill:none;fill-opacity:0.06333331;stroke:#ff0000;stroke-width:1.5;stroke-miterlimit:4;stroke-dasharray:none;stroke-opacity:1"
       id="path4550"
       sodipodi:type="arc"
       sodipodi:cx="228.90625"
       sodipodi:cy="421.96875"
       sodipodi:rx="11"
       sodipodi:ry="11"
       sodipodi:start="0.29670597"
       sodipodi:end="1.5707963"
       d="m 239.4256,425.18484 a 11,11 0 0 1 -10.51935,7.78391 l 0,-11 z" /></g><g
     id="g3790" /><g
     id="g3792" /><g
     id="g3794" /><g
     id="g3796" /><g
     id="g3798" /><g
     id="g3800" /><g
     id="g3802" /><g
     id="g3804" /><g
     id="g3806" /><g
     id="g3808" /><g
     id="g3810" /><g
     id="g3812" /><g
     id="g3814" /><g
     id="g3816" /><g
     id="g3818" /></svg>