<?xml version="1.0" encoding="UTF-8" standalone="no"?>
<!-- Generator: Adobe Illustrator 19.0.0, SVG Export Plug-In . SVG Version: 6.00 Build 0)  -->

<svg
   xmlns:dc="http://purl.org/dc/elements/1.1/"
   xmlns:cc="http://creativecommons.org/ns#"
   xmlns:rdf="http://www.w3.org/1999/02/22-rdf-syntax-ns#"
   xmlns:svg="http://www.w3.org/2000/svg"
   xmlns="http://www.w3.org/2000/svg"
   xmlns:sodipodi="http://sodipodi.sourceforge.net/DTD/sodipodi-0.dtd"
   xmlns:inkscape="http://www.inkscape.org/namespaces/inkscape"
   version="1.1"
   id="Layer_1"
   x="0px"
   y="0px"
   viewBox="0 0 464.001 464.001"
   style="enable-background:new 0 0 464.001 464.001;"
   xml:space="preserve"
   sodipodi:docname="oscar.svg"
   inkscape:version="0.92.2 (5c3e80d, 2017-08-06)"><metadata
     id="metadata2113"><rdf:RDF><cc:Work
         rdf:about=""><dc:format>image/svg+xml</dc:format><dc:type
           rdf:resource="http://purl.org/dc/dcmitype/StillImage" /><dc:title /></cc:Work></rdf:RDF></metadata><defs
     id="defs2111" /><sodipodi:namedview
     pagecolor="#ffffff"
     bordercolor="#666666"
     borderopacity="1"
     objecttolerance="10"
     gridtolerance="10"
     guidetolerance="10"
     inkscape:pageopacity="0"
     inkscape:pageshadow="2"
     inkscape:window-width="1600"
     inkscape:window-height="836"
     id="namedview2109"
     showgrid="false"
     inkscape:zoom="2"
     inkscape:cx="252.98189"
     inkscape:cy="-31.00065"
     inkscape:window-x="0"
     inkscape:window-y="27"
     inkscape:window-maximized="1"
     inkscape:current-layer="g2076" /><g
     id="g2076"><rect
       style="fill:#4b98cc;fill-opacity:1;stroke:#00ff00"
       id="rect1077"
       width="497.4248"
       height="511.18753"
       x="-14.745794"
       y="-22.610205" /><path
       style="fill:#FDC88E;"
       d="M391.863,422.878l-0.726-6.536c-0.287-2.585-2.616-4.449-5.201-4.162l-0.407,0.045l-7.027-56.214   c-1.529-12.228-9.943-22.492-21.634-26.389l-39.047-13.016c-5.362-1.788-11.244-0.65-15.379,2.874l-11.502-3.834   c-6.534-2.178-10.94-8.292-10.94-15.179v-25.802l34.461-14.359C332.349,252.855,344,235.378,344,216v-8c13.255,0,24-10.745,24-24   c0-5.565-1.9-10.684-5.079-14.755C369.876,151.701,385.637,101.46,368,40c0,0-2.863-2.102-8.21-5.26C358.341,16.289,352,8,352,8   l-29.199,9.733C297.358,8.546,261.586,0,216.001,0c0,0-5.25,5.5-16,8c0,0-27.25-6-56-8l-16,40c0,0-40-0.333-40,48   c0,17.727,9.883,61.932,14.105,80.013C98.31,172.258,96,177.858,96,184c0,13.255,10.745,24,24,24v8   c0,19.377,11.651,36.854,29.538,44.308l34.462,14.359v25.801c0,6.887-4.407,13.001-10.94,15.179l-11.502,3.834   c-4.135-3.524-10.017-4.662-15.379-2.874l-39.047,13.016c-11.691,3.897-20.105,14.161-21.634,26.389l-7.027,56.214l-0.407-0.045   c-2.586-0.287-4.914,1.576-5.202,4.162l-0.726,6.536c-0.287,2.585,1.576,4.914,4.161,5.201L88,429.38V448c0,8.836,7.163,16,16,16   h256c8.837,0,16-7.164,16-16v-18.621l11.702-1.3C390.287,427.792,392.151,425.463,391.863,422.878z"
       id="path2024" /><g
       id="g2028"><path
         style="fill:#F5B97A;"
         d="M280,274h-96v26.468c0,5.759-3.186,10.831-8.017,13.659C243.077,325.871,280,274,280,274z"
         id="path2026" /></g><path
       style="fill:#FFD7A3;"
       d="M344,160v-16c0-22.091-17.909-40-40-40h-144c-22.091,0-40,17.909-40,40v16   c-13.255,0-24,10.745-24,24s10.745,24,24,24v8c0,19.377,11.651,36.854,29.538,44.308l51.691,21.538   C210.98,285.909,221.438,288,232,288l0,0c10.562,0,21.019-2.092,30.769-6.154l51.694-21.539C332.349,252.855,344,235.378,344,216   v-8c13.255,0,24-10.745,24-24S357.255,160,344,160z"
       id="path2030" /><g
       id="g2034"
       style="fill:#9bce7a;fill-opacity:1"><path
         style="fill:#9bce7a;fill-opacity:1"
         d="M320,464.001v-40h67l-8.499-67.989c-1.529-12.228-9.943-22.492-21.634-26.389l-39.047-13.016    c-6.8-2.267-14.45,0.154-18.291,6.206C285.349,345.157,260.424,360,232.001,360s-53.349-14.844-67.53-37.188    c-3.841-6.052-11.491-8.473-18.291-6.206l-39.047,13.016c-11.691,3.897-20.105,14.161-21.634,26.389l-7.609,60.872L144.001,417    v47.001H320z"
         id="path2032" /></g><g
       id="g2038"><path
         style="fill:#623F33;"
         d="M176.001,192L176.001,192c-4.4,0-8-3.6-8-8v-8c0-4.4,3.6-8,8-8l0,0c4.4,0,8,3.6,8,8v8    C184.001,188.4,180.4,192,176.001,192z"
         id="path2036" /></g><g
       id="g2042"><path
         style="fill:#623F33;"
         d="M288,192L288,192c-4.4,0-8-3.6-8-8v-8c0-4.4,3.6-8,8-8l0,0c4.4,0,8,3.6,8,8v8    C296,188.4,292.4,192,288,192z"
         id="path2040" /></g><g
       id="g2048"><g
         id="g2046"><path
           style="fill:#E4B07B;"
           d="M232.001,248.219c-14.223,0-27.527-3.5-36.5-9.605c-3.652-2.484-4.602-7.461-2.113-11.113     c2.48-3.648,7.461-4.598,11.113-2.113c6.289,4.277,16.57,6.832,27.5,6.832s21.211-2.555,27.5-6.832     c3.66-2.492,8.629-1.539,11.113,2.113c2.488,3.652,1.539,8.629-2.113,11.113C259.529,244.719,246.224,248.219,232.001,248.219z"
           id="path2044" /></g></g><path
       style="fill:#FDC88E;"
       d="M161.997,243.723c-6.482-6.95-9.995-16.121-9.995-25.625v-70.606   C174.081,135.549,238.601,104,304,104h-144c-2.754,0-5.421,0.321-8,0.881v-0.075c-18.257,3.707-32,19.843-32,39.194v16   c-13.255,0-24,10.745-24,24s10.745,24,24,24v8c0,19.378,11.651,36.855,29.538,44.308l51.69,21.538   c2.53,1.054,5.112,1.962,7.727,2.749C186.111,267.883,170.906,253.274,161.997,243.723z"
       id="path2050" /><g
       id="g2054"
       style="fill:#8abe69;fill-opacity:1"><path
         style="fill:#8abe69;fill-opacity:1"
         d="m 144.001,430.04 v -18.106 c 0,-7.697 -2.774,-15.135 -7.813,-20.953 L 92.141656,340.13675 C 88.589656,344.63375 86.239,350.098 85.5,356.011 l -8.356,66.847 c 12.723,0.764 46.567,4.729 66.857,7.182 z"
         id="path2052"
         inkscape:connector-curvature="0"
         sodipodi:nodetypes="csccccc" /></g><g
       id="g2058"
       style="fill:#76ab5f;fill-opacity:1"><path
         style="fill:#76ab5f;fill-opacity:1"
         d="M144.001,419.507l-65.936-7.326c-2.586-0.287-4.914,1.576-5.202,4.161l-0.726,6.536    c-0.287,2.585,1.576,4.914,4.161,5.201l67.703,7.523V419.507z"
         id="path2056" /></g><g
       id="g2062"
       style="fill:#8abe69;fill-opacity:1"><path
         style="fill:#8abe69;fill-opacity:1"
         d="m 320,430.04 v -18.106 c 0,-7.697 2.774,-15.135 7.813,-20.953 l 44.04634,-50.82862 c 3.552,4.497 5.90266,9.94562 6.64166,15.85862 l 8.356,66.847 c -12.723,0.764 -46.568,4.729 -66.857,7.182 z"
         id="path2060"
         inkscape:connector-curvature="0"
         sodipodi:nodetypes="csccccc" /></g><g
       id="g2066"
       style="fill:#76ab5f;fill-opacity:1"><path
         style="fill:#76ab5f;fill-opacity:1"
         d="M320,419.507l65.936-7.326c2.586-0.287,4.914,1.576,5.202,4.161l0.726,6.536    c0.287,2.585-1.576,4.914-4.161,5.201L320,435.602V419.507z"
         id="path2064" /></g><g
       id="g2070"><path
         style="fill:#9D6E48;"
         d="M368,40c0,0-2.863-2.102-8.21-5.26C358.341,16.289,352,8,352,8l-29.199,9.733    C297.358,8.546,261.586,0,216.001,0c0,0-5.25,5.5-16,8c0,0-27.25-6-56-8l-16,40c0,0-40-0.333-40,48    c0,17.761,9.921,62.104,14.13,80.12c4.396-4.944,10.734-8.12,17.87-8.12v-16c0-21.893,17.604-39.625,39.421-39.942    C153.28,117.382,152.001,128,152.001,128c20-13.334,46-24,80-24h72c22.091,0,40,17.909,40,40v16    c7.708,0,14.491,3.698,18.882,9.346C369.817,151.89,385.669,101.572,368,40z"
         id="path2068" /></g><g
       id="g2074"><path
         style="fill:#8D5F3D;"
         d="M352,8l-29.199,9.733C297.358,8.546,261.586,0,216.001,0c0,0-5.25,5.5-16,8c0,0-27.25-6-56-8    l-16,40c0,0-40-0.333-40,48c0,17.761,9.921,62.104,14.13,80.12c4.396-4.944,10.734-8.12,17.87-8.12v-16    c0-20.881,16.059-37.829,36.468-39.644c-2.145,5.966-4.468,14.467-4.468,23.644c31.5-40,76.242-54.431,112-64    c35.5-9.5,40-24,40-24S339,38,352,8z"
         id="path2072" /></g><g
       transform="matrix(1.9740991,0,0,-1.9740991,158.13996,457.39992)"
       inkscape:label="logo"
       id="g1014"
       style="fill:#33546a;fill-opacity:1"><g
         aria-label="ApuntsFME"
         transform="matrix(1,0,0,-1,2.57,5.053)"
         style="font-variant:normal;font-weight:bold;font-size:11.9552002px;font-family:sans-serif;-inkscape-font-specification:Montserrat-Bold;writing-mode:lr-tb;fill:#33546a;fill-opacity:1;fill-rule:nonzero;stroke:none"
         id="text1022"><path
           d="M 6.3862251,-1.5878 H 2.87205 L 2.3174875,0 H 0.058375 L 3.2865126,-8.7153876 H 5.9659251 L 9.1940627,0 H 6.9349501 Z m -2.953775,-1.6169876 h 2.3875375 l -1.19085,-3.467475 z"
           style=""
           id="path1117" /><path
           d="M 12.335244,-0.94567502 V 2.486775 h -2.089825 v -9.0247751 h 2.089825 v 0.95735 q 0.431975,-0.572075 0.95735,-0.8406 0.525375,-0.2743625 1.208363,-0.2743625 1.208362,0 1.98475,0.9631875 0.776387,0.95735 0.776387,2.4692625 0,1.5119126 -0.776387,2.47510009 -0.776388,0.95735001 -1.98475,0.95735001 -0.682988,0 -1.208363,-0.268525 -0.525375,-0.27436251 -0.95735,-0.84643752 z m 1.389325,-4.23218758 q -0.671312,0 -1.033237,0.4961875 -0.356088,0.49035 -0.356088,1.4185125 0,0.9281626 0.356088,1.4243501 0.361925,0.49035 1.033237,0.49035 0.671313,0 1.021563,-0.49035 0.356087,-0.49035 0.356087,-1.4243501 0,-0.934 -0.356087,-1.42435 -0.35025,-0.49035 -1.021563,-0.49035 z"
           style=""
           id="path1119" /><path
           d="m 18.376637,-2.54515 v -3.9928501 h 2.1015 v 0.6538 q 0,0.5312125 -0.0058,1.3367875 -0.0058,0.7997375 -0.0058,1.0682625 0,0.7880626 0.04086,1.1383126 0.04086,0.3444125 0.1401,0.502025 0.128425,0.2043125 0.332738,0.315225 0.21015,0.1109125 0.478675,0.1109125 0.6538,0 1.0274,-0.502025 0.3736,-0.502025 0.3736,-1.3951626 v -3.2281375 h 2.089825 V 0 h -2.089825 v -0.94567502 q -0.472838,0.57207501 -1.00405,0.84643752 -0.525375,0.268525 -1.161663,0.268525 -1.132475,0 -1.7279,-0.69466251 Q 18.376637,-1.2200375 18.376637,-2.54515 Z"
           style=""
           id="path1121" /><path
           d="M 32.957965,-3.9811751 V 0 h -2.1015 V -0.64796251 -3.047175 q 0,-0.8464376 -0.04086,-1.1675001 -0.03502,-0.3210625 -0.128425,-0.4728375 -0.122587,-0.2043125 -0.332737,-0.315225 -0.21015,-0.11675 -0.478675,-0.11675 -0.6538,0 -1.0274,0.5078625 -0.3736,0.502025 -0.3736,1.3951625 V 0 H 26.38494 v -6.5380001 h 2.089825 v 0.95735 q 0.472837,-0.572075 1.00405,-0.8406 0.531212,-0.2743625 1.173337,-0.2743625 1.132475,0 1.716226,0.6946625 0.589587,0.6946625 0.589587,2.019775 z"
           style=""
           id="path1123" /><path
           d="m 36.725207,-8.3943251 v 1.856325 h 2.154037 v 1.4944 h -2.154037 v 2.7728126 q 0,0.455325 0.180962,0.618775 0.180963,0.1576125 0.718013,0.1576125 h 1.0741 V 0 h -1.792113 q -1.23755,0 -1.757087,-0.51370001 -0.5137,-0.51953749 -0.5137,-1.75708749 v -2.7728126 h -1.039075 v -1.4944 h 1.039075 v -1.856325 z"
           style=""
           id="path1125" /><path
           d="m 44.774979,-6.3336876 v 1.5878 q -0.671312,-0.2802 -1.295925,-0.4203 -0.624612,-0.1401 -1.179175,-0.1401 -0.595425,0 -0.8873,0.151775 -0.286038,0.1459375 -0.286038,0.455325 0,0.2510125 0.215988,0.385275 0.221825,0.1342625 0.788063,0.198475 l 0.367762,0.052537 q 1.605313,0.2043125 2.159875,0.6713125 0.554563,0.4670001 0.554563,1.4652126 0,1.04491249 -0.77055,1.57028749 -0.77055,0.52537501 -2.299975,0.52537501 -0.647963,0 -1.342626,-0.105075 -0.688825,-0.0992375 -1.418512,-0.30355 v -1.5878 q 0.624612,0.30355 1.278412,0.455325 0.659638,0.151775 1.336788,0.151775 0.612938,0 0.922325,-0.1692875 0.309388,-0.1692875 0.309388,-0.502025 0,-0.2802 -0.215988,-0.4144625 -0.21015,-0.1401 -0.846437,-0.2159875 l -0.367763,-0.0467 q -1.395163,-0.175125 -1.955563,-0.6479626 -0.5604,-0.4728375 -0.5604,-1.436025 0,-1.039075 0.712175,-1.5411 0.712175,-0.502025 2.183226,-0.502025 0.577912,0 1.2142,0.087562 0.636287,0.087562 1.383487,0.2743625 z"
           style=""
           id="path1127" /><path
           d="m 45.941406,-8.7153876 h 6.065163 v 1.6987125 h -3.817725 v 1.622825 h 3.590062 v 1.6987125 H 48.188844 V 0 h -2.247438 z"
           style=""
           id="path1129" /><path
           d="m 53.198211,-8.7153876 h 2.860375 l 1.984751,4.6641625 1.996425,-4.6641625 h 2.854537 V 0 h -2.12485 v -6.3745501 l -2.0081,4.6991876 h -1.42435 l -2.0081,-4.6991876 V 0 h -2.130688 z"
           style=""
           id="path1131" /><path
           d="m 64.424145,-8.7153876 h 6.065162 v 1.6987125 h -3.817725 v 1.622825 h 3.590063 v 1.6987125 h -3.590063 v 1.9964251 h 3.94615 V 0 h -6.193587 z"
           style=""
           id="path1133" /></g></g></g><g
     id="g2078" /><g
     id="g2080" /><g
     id="g2082" /><g
     id="g2084" /><g
     id="g2086" /><g
     id="g2088" /><g
     id="g2090" /><g
     id="g2092" /><g
     id="g2094" /><g
     id="g2096" /><g
     id="g2098" /><g
     id="g2100" /><g
     id="g2102" /><g
     id="g2104" /><g
     id="g2106" /></svg>
